<?xml version="1.0" encoding="UTF-8" standalone="no"?>
<svg
   xmlns:dc="http://purl.org/dc/elements/1.1/"
   xmlns:cc="http://creativecommons.org/ns#"
   xmlns:rdf="http://www.w3.org/1999/02/22-rdf-syntax-ns#"
   xmlns:svg="http://www.w3.org/2000/svg"
   xmlns="http://www.w3.org/2000/svg"
   viewBox="0 0 246.0485 58.939816"
   height="58.939816"
   width="246.04851"
   xml:space="preserve"
   id="svg2"
   version="1.1"><metadata
     id="metadata8"><rdf:RDF><cc:Work
         rdf:about=""><dc:format>image/svg+xml</dc:format><dc:type
           rdf:resource="http://purl.org/dc/dcmitype/StillImage" /><dc:title></dc:title></cc:Work></rdf:RDF></metadata><defs
     id="defs6" /><g
     transform="matrix(1.3333333,0,0,-1.3333333,-494.89467,347.85751)"
     id="g10"><g
       id="g12"><path
         d="m 545.855,224.4724 -150.648,0"
         style="fill:none;stroke:#2d3e9f;stroke-width:3.20000005;stroke-linecap:round;stroke-linejoin:miter;stroke-miterlimit:4;stroke-dasharray:none;stroke-opacity:1"
         id="path86" /><path
         d="m 553.242,224.4724 -11.074,-6.398 0,12.797 z"
         style="fill:#2d3e9f;fill-opacity:1;fill-rule:evenodd;stroke:#2d3e9f;stroke-width:1.60000002;stroke-linecap:butt;stroke-linejoin:miter;stroke-miterlimit:4;stroke-dasharray:none;stroke-opacity:1"
         id="path90" /><path
         d="m 395.602,230.8124 0,-12.117"
         style="fill:none;stroke:#2d3e9f;stroke-width:3.20000005;stroke-linecap:round;stroke-linejoin:miter;stroke-miterlimit:4;stroke-dasharray:none;stroke-opacity:1"
         id="path94" /><path
         d="m 498.715,230.8124 0,-12.117"
         style="fill:none;stroke:#2d3e9f;stroke-width:3.20000005;stroke-linecap:round;stroke-linejoin:miter;stroke-miterlimit:4;stroke-dasharray:none;stroke-opacity:1"
         id="path98" /><g
         transform="matrix(1,0,0,-1,0,446.4064)"
         id="g100"><path
           id="path102"
           style="fill:none;stroke:#2d3e9f;stroke-width:3.20000005;stroke-linecap:round;stroke-linejoin:miter;stroke-miterlimit:4;stroke-dasharray:none;stroke-opacity:1"
           d="m 437.824,215.594 0,12.117" /></g><path
         d="m 498.301,257.6524 0,-12.551"
         style="fill:none;stroke:#2d3e9f;stroke-width:2.4000001;stroke-linecap:round;stroke-linejoin:miter;stroke-miterlimit:4;stroke-dasharray:none;stroke-opacity:1"
         id="path106" /><path
         d="m 502.43,253.5664 -8.262,0"
         style="fill:none;stroke:#2d3e9f;stroke-width:2.4000001;stroke-linecap:round;stroke-linejoin:miter;stroke-miterlimit:4;stroke-dasharray:none;stroke-opacity:1"
         id="path110" /><g
         id="flowRoot6859"
         style="font-style:normal;font-variant:normal;font-weight:normal;font-stretch:normal;font-size:26.66666603px;line-height:2.25;font-family:Montserrat;-inkscape-font-specification:'Montserrat, Normal';text-align:start;letter-spacing:0px;word-spacing:0px;writing-mode:lr-tb;text-anchor:start;fill:#2d3e9f;fill-opacity:1;stroke:none"
         transform="matrix(0.75000002,0,0,-0.75000002,8.9848752,439.3131)"
         aria-label="author"><path
           id="path6976"
           style="font-style:normal;font-variant:normal;font-weight:normal;font-stretch:normal;font-family:'Glacial Indifference';-inkscape-font-specification:'Glacial Indifference';fill:#2d3e9f;fill-opacity:1"
           d="m 493.04818,252.02661 c 0,1.14666 -0.4,2.16 -1.2,2.98666 -0.8,0.85334 -1.78667,1.28 -2.93334,1.28 -1.17333,0 -2.16,-0.42666 -2.96,-1.28 -0.8,-0.82666 -1.17333,-1.84 -1.17333,-2.98666 0,-1.12 0.37333,-2.13334 1.17333,-2.98667 0.8,-0.85333 1.78667,-1.28 2.96,-1.28 1.14667,0 2.13334,0.42667 2.93334,1.28 0.8,0.85333 1.2,1.86667 1.2,2.98667 z m 1.86666,5.86666 0,-11.73333 -1.86666,0 0,2.02667 c -0.10667,-0.16 -0.24,-0.29334 -0.34667,-0.42667 -1.12,-1.22667 -2.48,-1.86667 -4.08,-1.86667 -1.62667,0 -2.98667,0.64 -4.10667,1.86667 -1.06666,1.22667 -1.6,2.64 -1.6,4.26667 0,1.65333 0.53334,3.06666 1.6,4.26666 1.12,1.25334 2.48,1.86667 4.10667,1.86667 1.6,0 2.96,-0.61333 4.08,-1.86667 0.10667,-0.10666 0.24,-0.24 0.34667,-0.4 l 0,2 z" /><path
           id="path6978"
           style="font-style:normal;font-variant:normal;font-weight:normal;font-stretch:normal;font-family:'Glacial Indifference';-inkscape-font-specification:'Glacial Indifference';fill:#2d3e9f;fill-opacity:1"
           d="m 507.02984,255.89327 0,2 1.86667,0 0,-11.73333 -1.86667,0 0,4.90667 c 0,1.65333 -0.32,2.90666 -0.93333,3.84 -0.58667,0.90666 -1.62667,1.36 -3.06667,1.36 -0.8,0 -1.38666,-0.26667 -1.73333,-0.8 -0.34667,-0.53334 -0.50667,-1.2 -0.50667,-1.97334 l 0,-7.33333 -1.86666,0 0,7.33333 c 0,1.36 0.34666,2.48 1.09333,3.36 0.74667,0.85334 1.76,1.28 3.09333,1.28 1.73334,0 3.04,-0.74666 3.92,-2.24 z" /><path
           id="path6980"
           style="font-style:normal;font-variant:normal;font-weight:normal;font-stretch:normal;font-family:'Glacial Indifference';-inkscape-font-specification:'Glacial Indifference';fill:#2d3e9f;fill-opacity:1"
           d="m 511.05026,247.89327 2.93333,0 0,10 1.86667,0 0,-10 2.90667,0 0,-1.73333 -2.90667,0 0,-4.56 -1.86667,0 0,4.56 -2.93333,0 z" /><path
           id="path6982"
           style="font-style:normal;font-variant:normal;font-weight:normal;font-stretch:normal;font-family:'Glacial Indifference';-inkscape-font-specification:'Glacial Indifference';fill:#2d3e9f;fill-opacity:1"
           d="m 523.13359,257.89327 0,-4.90666 c 0,-1.62667 0.26667,-2.85334 0.82667,-3.70667 0.32,-0.48 0.72,-0.82667 1.22667,-1.09333 0.48,-0.26667 1.14666,-0.4 1.94666,-0.4 0.8,0 1.36,0.29333 1.70667,0.82666 0.34667,0.53334 0.53333,1.2 0.53333,1.94667 l 0,7.33333 1.86667,0 0,-7.33333 c 0,-1.36 -0.37333,-2.45333 -1.06667,-3.28 -0.37333,-0.42667 -0.8,-0.74667 -1.30666,-0.98667 -0.53334,-0.24 -1.2,-0.37333 -2.02667,-0.37333 -0.85333,0 -1.57333,0.24 -2.21333,0.66667 -0.61334,0.4 -1.12,0.93333 -1.49334,1.6 l 0,-10.29334 -1.86666,0 0,20 z" /><path
           id="path6984"
           style="font-style:normal;font-variant:normal;font-weight:normal;font-stretch:normal;font-family:'Glacial Indifference';-inkscape-font-specification:'Glacial Indifference';fill:#2d3e9f;fill-opacity:1"
           d="m 544.46068,251.97327 c 0,1.17334 -0.42667,2.16 -1.25334,2.98667 -0.85333,0.85333 -1.84,1.25333 -3.01333,1.25333 -1.17333,0 -2.18667,-0.4 -3.01333,-1.25333 -0.85334,-0.82667 -1.25334,-1.81333 -1.25334,-2.98667 0,-1.17333 0.4,-2.16 1.25334,-3.01333 0.82666,-0.82667 1.84,-1.25333 3.01333,-1.25333 1.17333,0 2.16,0.42666 3.01333,1.25333 0.82667,0.85333 1.25334,1.84 1.25334,3.01333 z m 1.86666,0 c 0,-1.68 -0.61333,-3.12 -1.81333,-4.32 -1.2,-1.2 -2.64,-1.81333 -4.32,-1.81333 -1.70667,0 -3.14667,0.61333 -4.34667,1.81333 -1.2,1.2 -1.78666,2.64 -1.78666,4.32 0,1.70667 0.58666,3.14667 1.78666,4.32 1.2,1.2 2.66667,1.78667 4.34667,1.78667 1.65333,0 3.12,-0.58667 4.32,-1.78667 1.2,-1.17333 1.81333,-2.61333 1.81333,-4.32 z" /><path
           id="path6986"
           style="font-style:normal;font-variant:normal;font-weight:normal;font-stretch:normal;font-family:'Glacial Indifference';-inkscape-font-specification:'Glacial Indifference';fill:#2d3e9f;fill-opacity:1"
           d="m 555.57485,248.58661 0,-2.42667 c -0.37334,-0.16 -0.77334,-0.24 -1.17334,-0.24 -1.33333,0 -2.29333,0.74667 -2.90666,2.18667 l -0.08,0.48 0,-2.42667 -1.86667,0 0,11.73333 1.86667,0 0,-5.86666 c 0,-0.96 0.21333,-1.81334 0.66666,-2.58667 0.21334,-0.4 0.50667,-0.74667 0.85334,-1.01333 0.34666,-0.26667 0.77333,-0.42667 1.25333,-0.42667 0.48,0 0.93333,0.21333 1.38667,0.58667 z" /></g><g
         id="flowRoot6901"
         style="font-style:normal;font-variant:normal;font-weight:normal;font-stretch:normal;font-size:26.66666603px;line-height:2.25;font-family:Montserrat;-inkscape-font-specification:'Montserrat, Normal';text-align:start;letter-spacing:0px;word-spacing:0px;writing-mode:lr-tb;text-anchor:start;fill:#2d3e9f;fill-opacity:1;stroke:none"
         transform="matrix(0.75000002,0,0,-0.75000002,174.37751,439.3131)"
         aria-label="70"><path
           id="path6922"
           style="font-style:normal;font-variant:normal;font-weight:normal;font-stretch:normal;font-family:'Glacial Indifference';-inkscape-font-specification:'Glacial Indifference';fill:#2d3e9f;fill-opacity:1"
           d="m 485.92818,257.89327 7.97333,-18.05333 -11.38667,0 0,1.86667 8.48,0 -7.14666,16.18666 z" /><path
           id="path6924"
           style="font-style:normal;font-variant:normal;font-weight:normal;font-stretch:normal;font-family:'Glacial Indifference';-inkscape-font-specification:'Glacial Indifference';fill:#2d3e9f;fill-opacity:1"
           d="m 503.74651,241.86661 c 0.85333,0.53333 1.46667,1.36 1.89333,2.48 0.50667,1.44 0.77334,2.93333 0.77334,4.53333 0,0.37333 -0.0267,0.82667 -0.08,1.33333 -0.21334,1.97334 -0.72,3.52 -1.54667,4.61334 -0.69333,0.96 -1.52,1.41333 -2.50667,1.41333 -1.12,0 -2.02666,-0.45333 -2.72,-1.38667 -0.32,-0.42666 -0.56,-0.88 -0.77333,-1.41333 -0.21333,-0.53333 -0.34667,-1.06667 -0.45333,-1.62667 -0.10667,-0.53333 -0.18667,-1.06666 -0.24,-1.6 -0.0533,-0.50666 -0.0533,-1.09333 -0.0533,-1.76 0,-0.66666 0.08,-1.52 0.29334,-2.50666 0.10666,-0.53334 0.24,-1.09334 0.45333,-1.62667 0.18667,-0.53333 0.42667,-1.01333 0.74667,-1.44 0.32,-0.42667 0.69333,-0.74667 1.12,-1.01333 0.42666,-0.26667 0.96,-0.4 1.54666,-0.4 0.58667,0 1.12,0.13333 1.54667,0.4 z m -1.44,16.26666 c 2.13333,0 3.73333,-1.04 4.82667,-3.14666 0.85333,-1.68 1.30666,-3.73334 1.30666,-6.18667 0,-2.42667 -0.45333,-4.48 -1.30666,-6.16 -1.09334,-2.10667 -2.69334,-3.17333 -4.82667,-3.17333 -2.16,0 -3.76,1.06666 -4.85333,3.17333 -0.85334,1.68 -1.28,3.73333 -1.28,6.16 0,2.45333 0.42666,4.50667 1.28,6.18667 1.09333,2.10666 2.69333,3.14666 4.85333,3.14666 z" /></g></g></g></svg>