<?xml version="1.0" encoding="UTF-8" standalone="no"?>
<svg
   xmlns:dc="http://purl.org/dc/elements/1.1/"
   xmlns:cc="http://creativecommons.org/ns#"
   xmlns:rdf="http://www.w3.org/1999/02/22-rdf-syntax-ns#"
   xmlns:svg="http://www.w3.org/2000/svg"
   xmlns="http://www.w3.org/2000/svg"
   xmlns:sodipodi="http://sodipodi.sourceforge.net/DTD/sodipodi-0.dtd"
   xmlns:inkscape="http://www.inkscape.org/namespaces/inkscape"
   width="43.462223mm"
   height="43.462223mm"
   viewBox="0 0 154 154"
   id="svg24910"
   version="1.1"
   inkscape:version="0.91 r13725"
   sodipodi:docname="original-expression.svg">
  <sodipodi:namedview
     pagecolor="#ffffff"
     bordercolor="#666666"
     borderopacity="1"
     objecttolerance="10"
     gridtolerance="10"
     guidetolerance="10"
     inkscape:pageopacity="0"
     inkscape:pageshadow="2"
     inkscape:window-width="908"
     inkscape:window-height="659"
     id="namedview34556"
     showgrid="false"
     fit-margin-top="0"
     fit-margin-left="0"
     fit-margin-right="0"
     fit-margin-bottom="0"
     inkscape:zoom="0.41958371"
     inkscape:cx="-313.4544"
     inkscape:cy="281.23112"
     inkscape:window-x="0"
     inkscape:window-y="0"
     inkscape:window-maximized="0"
     inkscape:current-layer="svg24910" />
  <defs
     id="defs24912" />
  <metadata
     id="metadata24915">
    <rdf:RDF>
      <cc:Work
         rdf:about="">
        <dc:format>image/svg+xml</dc:format>
        <dc:type
           rdf:resource="http://purl.org/dc/dcmitype/StillImage" />
        <dc:title></dc:title>
      </cc:Work>
    </rdf:RDF>
  </metadata>
  <g
     transform="translate(-3517.2996,-3540.2347)"
     style="font-style:normal;font-variant:normal;font-weight:bold;font-stretch:normal;font-size:19.29931259px;line-height:125%;font-family:'Glacial Indifference';-inkscape-font-specification:'Glacial Indifference Bold';letter-spacing:0px;word-spacing:0px;display:inline;fill:#2d3e9f;fill-opacity:1;stroke:none;stroke-width:1px;stroke-linecap:butt;stroke-linejoin:miter;stroke-opacity:1"
     id="flowRoot11691-2">
    <path
       d="m 3565.8452,3607.5858 c 0,1.5054 -0.5404,2.7791 -1.5825,3.8213 -1.0615,1.0614 -2.3353,1.5825 -3.8213,1.5825 -1.486,0 -2.7598,-0.5211 -3.802,-1.5825 -1.0614,-1.0422 -1.5825,-2.3159 -1.5825,-3.8213 0,-1.4667 0.5211,-2.7405 1.5825,-3.802 1.0422,-1.0421 2.316,-1.5825 3.802,-1.5825 1.486,0 2.7598,0.5404 3.8213,1.5825 1.0421,1.0615 1.5825,2.3353 1.5825,3.802 z m 1.351,0 c 0,-0.9264 -0.193,-1.7948 -0.5404,-2.6247 -0.3474,-0.8106 -0.8299,-1.5246 -1.4475,-2.1422 -0.6175,-0.5983 -1.3316,-1.0808 -2.1422,-1.4282 -0.8299,-0.3474 -1.6983,-0.5404 -2.6247,-0.5404 -0.9264,0 -1.8141,0.193 -2.6247,0.5404 -0.8106,0.3474 -1.5246,0.8299 -2.1422,1.4282 -0.6176,0.6176 -1.1001,1.3316 -1.4475,2.1422 -0.3474,0.8299 -0.5211,1.6983 -0.5211,2.6247 0,0.9264 0.1737,1.8141 0.5211,2.6247 0.3474,0.8299 0.8299,1.544 1.4475,2.1615 0.6176,0.6176 1.3316,1.1001 2.1422,1.4475 0.8106,0.3474 1.6983,0.5211 2.6247,0.5211 0.9264,0 1.7948,-0.1737 2.6247,-0.5211 0.8106,-0.3474 1.5247,-0.8299 2.1422,-1.4475 0.6176,-0.6175 1.1001,-1.3316 1.4475,-2.1615 0.3474,-0.8106 0.5404,-1.6983 0.5404,-2.6247 z"
       style="font-style:normal;font-variant:normal;font-weight:normal;font-stretch:normal;font-family:'Glacial Indifference';-inkscape-font-specification:'Glacial Indifference';text-align:center;text-anchor:middle;fill:#2d3e9f;fill-opacity:1"
       id="path34738" />
    <path
       d="m 3570.8642,3607.7016 0,-5.3459 3.0493,0 c 0.7913,0 1.4282,0.2509 1.9107,0.7527 0.4631,0.5017 0.714,1.1193 0.714,1.8913 0,0.772 -0.2509,1.4088 -0.7526,1.9299 -0.5018,0.5211 -1.1194,0.772 -1.8721,0.772 l -3.0493,0 z m 7.025,-2.6826 c 0,-1.1194 -0.4246,-2.0843 -1.2352,-2.837 -0.7912,-0.7334 -1.7755,-1.1194 -2.9335,-1.1194 l -4.2072,0 0,13.1236 1.3509,0 0,-5.1915 1.5633,0 3.8598,5.1915 1.8142,0 -4.0529,-5.1915 c 1.0229,-0.058 1.8914,-0.4246 2.6054,-1.1001 0.8106,-0.7527 1.2352,-1.7176 1.2352,-2.8756 z"
       style="font-style:normal;font-variant:normal;font-weight:normal;font-stretch:normal;font-family:'Glacial Indifference';-inkscape-font-specification:'Glacial Indifference';text-align:center;text-anchor:middle;fill:#2d3e9f;fill-opacity:1"
       id="path34740" />
    <path
       d="m 3581.3432,3614.1862 0,-13.1236 -1.351,0 0,13.1236 1.351,0 z"
       style="font-style:normal;font-variant:normal;font-weight:normal;font-stretch:normal;font-family:'Glacial Indifference';-inkscape-font-specification:'Glacial Indifference';text-align:center;text-anchor:middle;fill:#2d3e9f;fill-opacity:1"
       id="path34742" />
    <path
       d="m 3597.1638,3608.049 -6.832,0 0,1.1772 5.3266,0 c -0.4053,1.1387 -1.0807,2.0651 -2.0457,2.7405 -0.965,0.6948 -2.0457,1.0229 -3.223,1.0229 -1.5053,0 -2.7791,-0.5211 -3.8405,-1.5825 -1.0422,-1.0615 -1.5633,-2.3545 -1.5633,-3.8406 0,-1.486 0.5211,-2.7598 1.5826,-3.8213 1.0421,-1.0421 2.3159,-1.5825 3.8212,-1.5825 1.1194,0 2.1422,0.3281 3.0493,0.965 0.9264,0.6368 1.5825,1.4667 2.0071,2.5282 l 1.4282,0 c -0.4439,-1.4475 -1.2738,-2.6054 -2.4703,-3.4932 -1.1966,-0.8878 -2.5861,-1.351 -4.1494,-1.351 -0.8492,0 -1.679,0.193 -2.4896,0.5404 -0.8299,0.3474 -1.5439,0.8299 -2.1615,1.4475 -0.6176,0.6176 -1.1001,1.3316 -1.4475,2.1422 -0.3474,0.8299 -0.521,1.7176 -0.521,2.644 0,0.9264 0.1736,1.8141 0.521,2.6247 0.3474,0.8299 0.8299,1.544 1.4475,2.1615 0.6176,0.6176 1.3316,1.1001 2.1615,1.4475 0.8106,0.3474 1.6983,0.5211 2.6247,0.5211 1.5826,0 3.0107,-0.5018 4.2845,-1.5247 1.2737,-1.0421 2.065,-2.3545 2.3545,-3.9563 l 0.1351,-0.8106 z"
       style="font-style:normal;font-variant:normal;font-weight:normal;font-stretch:normal;font-family:'Glacial Indifference';-inkscape-font-specification:'Glacial Indifference';text-align:center;text-anchor:middle;fill:#2d3e9f;fill-opacity:1"
       id="path34744" />
    <path
       d="m 3600.8309,3614.1862 0,-13.1236 -1.3509,0 0,13.1236 1.3509,0 z"
       style="font-style:normal;font-variant:normal;font-weight:normal;font-stretch:normal;font-family:'Glacial Indifference';-inkscape-font-specification:'Glacial Indifference';text-align:center;text-anchor:middle;fill:#2d3e9f;fill-opacity:1"
       id="path34746" />
    <path
       d="m 3605.0527,3604.5172 7.3723,10.4795 0,-13.9341 -1.3509,0 0,9.6497 -7.3724,-10.4795 0,13.9534 1.351,0 0,-9.669 z"
       style="font-style:normal;font-variant:normal;font-weight:normal;font-stretch:normal;font-family:'Glacial Indifference';-inkscape-font-specification:'Glacial Indifference';text-align:center;text-anchor:middle;fill:#2d3e9f;fill-opacity:1"
       id="path34748" />
    <path
       d="m 3617.3967,3609.3613 2.3931,-6.0406 2.3738,6.0406 -4.7669,0 z m 8.1443,4.8249 -5.7512,-14.0306 -5.7705,14.0306 1.4668,0 1.4088,-3.5704 5.7705,0 1.4089,3.5704 1.4667,0 z"
       style="font-style:normal;font-variant:normal;font-weight:normal;font-stretch:normal;font-family:'Glacial Indifference';-inkscape-font-specification:'Glacial Indifference';text-align:center;text-anchor:middle;fill:#2d3e9f;fill-opacity:1"
       id="path34750" />
    <path
       d="m 3628.536,3612.8352 0,-11.7726 -1.3509,0 0,13.1236 0.6754,0 0.6755,0 4.6897,0 0,-1.351 -4.6897,0 z"
       style="font-style:normal;font-variant:normal;font-weight:normal;font-stretch:normal;font-family:'Glacial Indifference';-inkscape-font-specification:'Glacial Indifference';text-align:center;text-anchor:middle;fill:#2d3e9f;fill-opacity:1"
       id="path34752" />
    <path
       d="m 3549.0774,3638.3102 0,-1.2545 -6.4459,0 0,-4.6704 6.2529,0 0,-1.2738 -6.2529,0 0,-4.6704 6.4459,0 0,-1.2544 -7.7969,0 0,13.1235 7.7969,0 z"
       style="font-style:normal;font-variant:normal;font-weight:normal;font-stretch:normal;font-family:'Glacial Indifference';-inkscape-font-specification:'Glacial Indifference';text-align:center;text-anchor:middle;fill:#2d3e9f;fill-opacity:1"
       id="path34754" />
    <path
       d="m 3560.1308,3638.3102 1.6597,0 -4.6125,-6.5618 4.6125,-6.5617 -1.6597,0 -3.7827,5.5968 -3.7826,-5.5968 -1.6791,0 4.6319,6.581 -4.6126,6.5425 1.6598,0 3.7826,-5.5968 3.7827,5.5968 z"
       style="font-style:normal;font-variant:normal;font-weight:normal;font-stretch:normal;font-family:'Glacial Indifference';-inkscape-font-specification:'Glacial Indifference';text-align:center;text-anchor:middle;fill:#2d3e9f;fill-opacity:1"
       id="path34756" />
    <path
       d="m 3564.984,3631.8063 0,-5.3266 3.0493,0 c 0.7912,0 1.4281,0.2509 1.9106,0.7334 0.4632,0.5018 0.7141,1.1193 0.7141,1.8913 0,0.7913 -0.2509,1.4282 -0.7527,1.9493 -0.5018,0.5017 -1.1194,0.7526 -1.872,0.7526 l -3.0493,0 z m 7.0249,-2.6633 c 0,-1.1579 -0.4246,-2.1036 -1.2351,-2.8563 -0.8106,-0.7334 -1.7756,-1.1 -2.9335,-1.1 l -4.2073,0 0,13.1235 1.351,0 0,-5.1915 2.8563,0 c 1.1579,0 2.1422,-0.3667 2.9335,-1.1001 0.8105,-0.772 1.2351,-1.7176 1.2351,-2.8756 z"
       style="font-style:normal;font-variant:normal;font-weight:normal;font-stretch:normal;font-family:'Glacial Indifference';-inkscape-font-specification:'Glacial Indifference';text-align:center;text-anchor:middle;fill:#2d3e9f;fill-opacity:1"
       id="path34758" />
    <path
       d="m 3575.1614,3631.8256 0,-5.3459 3.0492,0 c 0.7913,0 1.4282,0.2509 1.9107,0.7527 0.4632,0.5018 0.714,1.1193 0.714,1.8913 0,0.772 -0.2508,1.4089 -0.7526,1.93 -0.5018,0.521 -1.1194,0.7719 -1.8721,0.7719 l -3.0492,0 z m 7.0249,-2.6826 c 0,-1.1193 -0.4246,-2.0843 -1.2352,-2.837 -0.7912,-0.7334 -1.7755,-1.1193 -2.9335,-1.1193 l -4.2072,0 0,13.1235 1.351,0 0,-5.1915 1.5632,0 3.8599,5.1915 1.8141,0 -4.0529,-5.1915 c 1.0229,-0.058 1.8914,-0.4246 2.6054,-1.1001 0.8106,-0.7527 1.2352,-1.7176 1.2352,-2.8756 z"
       style="font-style:normal;font-variant:normal;font-weight:normal;font-stretch:normal;font-family:'Glacial Indifference';-inkscape-font-specification:'Glacial Indifference';text-align:center;text-anchor:middle;fill:#2d3e9f;fill-opacity:1"
       id="path34760" />
    <path
       d="m 3592.0862,3638.3102 0,-1.2545 -6.4459,0 0,-4.6704 6.253,0 0,-1.2738 -6.253,0 0,-4.6704 6.4459,0 0,-1.2544 -7.7969,0 0,13.1235 7.7969,0 z"
       style="font-style:normal;font-variant:normal;font-weight:normal;font-stretch:normal;font-family:'Glacial Indifference';-inkscape-font-specification:'Glacial Indifference';text-align:center;text-anchor:middle;fill:#2d3e9f;fill-opacity:1"
       id="path34762" />
    <path
       d="m 3598.585,3632.1344 c 1.6983,0.4053 2.8563,0.8492 3.4739,1.351 0.4246,0.3474 0.6368,0.7912 0.6368,1.3316 0,0.5404 -0.1158,0.9843 -0.3473,1.2931 -0.579,0.8105 -1.6212,1.2158 -3.0879,1.2158 -2.0458,0 -3.2037,-0.6947 -3.4546,-2.0843 l -1.5826,0 c 0.4632,2.2194 2.1423,3.3195 5.0372,3.3195 1.293,0 2.3738,-0.2702 3.2422,-0.8492 1.0422,-0.6755 1.5826,-1.679 1.5826,-2.9914 0,-1.0807 -0.4246,-1.9106 -1.2738,-2.4896 -0.5982,-0.4246 -1.5632,-0.8106 -2.8949,-1.158 -1.3509,-0.3473 -2.2194,-0.6368 -2.6247,-0.8491 -0.8877,-0.4439 -1.3316,-1.0615 -1.3123,-1.8721 0,-0.4245 0.077,-0.7912 0.2702,-1.0614 0.5018,-0.7527 1.3895,-1.1387 2.6633,-1.1387 1.7948,0 2.8177,0.579 3.0879,1.6984 l 1.4667,0 c -0.4825,-1.8914 -2.0071,-2.8563 -4.5546,-2.8563 -1.158,0 -2.1808,0.3088 -3.03,0.9263 -0.8685,0.6176 -1.3124,1.5247 -1.3124,2.7598 0,1.6791 1.351,2.837 4.0143,3.4546 z"
       style="font-style:normal;font-variant:normal;font-weight:normal;font-stretch:normal;font-family:'Glacial Indifference';-inkscape-font-specification:'Glacial Indifference';text-align:center;text-anchor:middle;fill:#2d3e9f;fill-opacity:1"
       id="path34764" />
    <path
       d="m 3609.6293,3632.1344 c 1.6984,0.4053 2.8563,0.8492 3.4739,1.351 0.4246,0.3474 0.6369,0.7912 0.6369,1.3316 0,0.5404 -0.1158,0.9843 -0.3474,1.2931 -0.579,0.8105 -1.6212,1.2158 -3.0879,1.2158 -2.0457,0 -3.2037,-0.6947 -3.4546,-2.0843 l -1.5825,0 c 0.4632,2.2194 2.1422,3.3195 5.0371,3.3195 1.2931,0 2.3738,-0.2702 3.2423,-0.8492 1.0421,-0.6755 1.5825,-1.679 1.5825,-2.9914 0,-1.0807 -0.4246,-1.9106 -1.2737,-2.4896 -0.5983,-0.4246 -1.5633,-0.8106 -2.8949,-1.158 -1.351,-0.3473 -2.2194,-0.6368 -2.6247,-0.8491 -0.8878,-0.4439 -1.3317,-1.0615 -1.3124,-1.8721 0,-0.4245 0.077,-0.7912 0.2702,-1.0614 0.5018,-0.7527 1.3896,-1.1387 2.6633,-1.1387 1.7948,0 2.8177,0.579 3.0879,1.6984 l 1.4667,0 c -0.4824,-1.8914 -2.0071,-2.8563 -4.5546,-2.8563 -1.1579,0 -2.1808,0.3088 -3.03,0.9263 -0.8684,0.6176 -1.3123,1.5247 -1.3123,2.7598 0,1.6791 1.3509,2.837 4.0142,3.4546 z"
       style="font-style:normal;font-variant:normal;font-weight:normal;font-stretch:normal;font-family:'Glacial Indifference';-inkscape-font-specification:'Glacial Indifference';text-align:center;text-anchor:middle;fill:#2d3e9f;fill-opacity:1"
       id="path34766" />
    <path
       d="m 3618.3963,3638.3102 0,-13.1235 -1.3509,0 0,13.1235 1.3509,0 z"
       style="font-style:normal;font-variant:normal;font-weight:normal;font-stretch:normal;font-family:'Glacial Indifference';-inkscape-font-specification:'Glacial Indifference';text-align:center;text-anchor:middle;fill:#2d3e9f;fill-opacity:1"
       id="path34768" />
    <path
       d="m 3632.8274,3631.7098 c 0,1.5054 -0.5404,2.7791 -1.5826,3.8213 -1.0614,1.0615 -2.3352,1.5825 -3.8212,1.5825 -1.4861,0 -2.7598,-0.521 -3.802,-1.5825 -1.0614,-1.0422 -1.5825,-2.3159 -1.5825,-3.8213 0,-1.4667 0.5211,-2.7405 1.5825,-3.8019 1.0422,-1.0422 2.3159,-1.5826 3.802,-1.5826 1.486,0 2.7598,0.5404 3.8212,1.5826 1.0422,1.0614 1.5826,2.3352 1.5826,3.8019 z m 1.3509,0 c 0,-0.9263 -0.1929,-1.7948 -0.5403,-2.6247 -0.3474,-0.8106 -0.8299,-1.5246 -1.4475,-2.1422 -0.6176,-0.5983 -1.3316,-1.0808 -2.1422,-1.4282 -0.8299,-0.3473 -1.6983,-0.5403 -2.6247,-0.5403 -0.9264,0 -1.8141,0.193 -2.6247,0.5403 -0.8106,0.3474 -1.5247,0.8299 -2.1422,1.4282 -0.6176,0.6176 -1.1001,1.3316 -1.4475,2.1422 -0.3474,0.8299 -0.5211,1.6984 -0.5211,2.6247 0,0.9264 0.1737,1.8142 0.5211,2.6247 0.3474,0.8299 0.8299,1.544 1.4475,2.1616 0.6175,0.6175 1.3316,1.1 2.1422,1.4474 0.8106,0.3474 1.6983,0.5211 2.6247,0.5211 0.9264,0 1.7948,-0.1737 2.6247,-0.5211 0.8106,-0.3474 1.5246,-0.8299 2.1422,-1.4474 0.6176,-0.6176 1.1001,-1.3317 1.4475,-2.1616 0.3474,-0.8105 0.5403,-1.6983 0.5403,-2.6247 z"
       style="font-style:normal;font-variant:normal;font-weight:normal;font-stretch:normal;font-family:'Glacial Indifference';-inkscape-font-specification:'Glacial Indifference';text-align:center;text-anchor:middle;fill:#2d3e9f;fill-opacity:1"
       id="path34770" />
    <path
       d="m 3637.8464,3628.6412 7.3724,10.4796 0,-13.9341 -1.351,0 0,9.6496 -7.3723,-10.4795 0,13.9534 1.3509,0 0,-9.669 z"
       style="font-style:normal;font-variant:normal;font-weight:normal;font-stretch:normal;font-family:'Glacial Indifference';-inkscape-font-specification:'Glacial Indifference';text-align:center;text-anchor:middle;fill:#2d3e9f;fill-opacity:1"
       id="path34772" />
  </g>
  <circle
     r="75.5"
     cy="77"
     cx="77"
     id="circle11745-3"
     style="display:inline;opacity:1;fill:none;fill-opacity:1;stroke:#2d3e9f;stroke-width:3;stroke-linecap:round;stroke-linejoin:miter;stroke-miterlimit:4;stroke-dasharray:none;stroke-dashoffset:0;stroke-opacity:1" />
  <path
     d="m 107.81326,23.19905 a 62,62 0 0 1 19.4985,17.56939"
     style="display:inline;opacity:1;fill:none;fill-opacity:1;stroke:#2d3e9f;stroke-width:3;stroke-linecap:round;stroke-linejoin:miter;stroke-miterlimit:4;stroke-dasharray:none;stroke-dashoffset:0;stroke-opacity:1"
     id="path11747-8"
     inkscape:connector-curvature="0" />
  <path
     d="M 99.735199,27.46859 A 54.5,54.5 0 0 1 119.90011,43.38706"
     id="path11749-5"
     style="display:inline;opacity:1;fill:none;fill-opacity:1;stroke:#2d3e9f;stroke-width:3;stroke-linecap:round;stroke-linejoin:miter;stroke-miterlimit:4;stroke-dasharray:none;stroke-dashoffset:0;stroke-opacity:1"
     inkscape:connector-curvature="0" />
  <path
     style="display:inline;opacity:1;fill:none;fill-opacity:1;stroke:#2d3e9f;stroke-width:3;stroke-linecap:round;stroke-linejoin:miter;stroke-miterlimit:4;stroke-dasharray:none;stroke-dashoffset:0;stroke-opacity:1"
     id="path11751-8"
     d="m 110.0465,43.06954 a 56,56 0 0 1 16.72333,-13.5466"
     inkscape:connector-curvature="0" />
  <path
     d="M 102.37623,36.65339 A 66,66 0 0 1 118.33228,22.83818"
     id="path11753-7"
     style="display:inline;opacity:1;fill:none;fill-opacity:1;stroke:#2d3e9f;stroke-width:3;stroke-linecap:round;stroke-linejoin:miter;stroke-miterlimit:4;stroke-dasharray:none;stroke-dashoffset:0;stroke-opacity:1"
     inkscape:connector-curvature="0" />
</svg>
