<?xml version="1.0" encoding="UTF-8" standalone="no"?>
<!-- Created with Inkscape (http://www.inkscape.org/) -->

<svg
   xmlns:dc="http://purl.org/dc/elements/1.1/"
   xmlns:cc="http://creativecommons.org/ns#"
   xmlns:rdf="http://www.w3.org/1999/02/22-rdf-syntax-ns#"
   xmlns:svg="http://www.w3.org/2000/svg"
   xmlns="http://www.w3.org/2000/svg"
   xmlns:sodipodi="http://sodipodi.sourceforge.net/DTD/sodipodi-0.dtd"
   xmlns:inkscape="http://www.inkscape.org/namespaces/inkscape"
   width="201.40964mm"
   height="98.519661mm"
   viewBox="0 0 713.6562 349.08541"
   id="svg8167"
   version="1.1"
   inkscape:version="0.91 r13725"
   sodipodi:docname="original-expression-island.svg">
  <defs
     id="defs8169" />
  <sodipodi:namedview
     id="base"
     pagecolor="#ffffff"
     bordercolor="#666666"
     borderopacity="1.0"
     inkscape:pageopacity="0.0"
     inkscape:pageshadow="2"
     inkscape:zoom="1.979899"
     inkscape:cx="409.92579"
     inkscape:cy="214.34785"
     inkscape:document-units="px"
     inkscape:current-layer="g8715"
     showgrid="false"
     fit-margin-top="0"
     fit-margin-left="0"
     fit-margin-right="0"
     fit-margin-bottom="0"
     inkscape:window-width="1440"
     inkscape:window-height="851"
     inkscape:window-x="127"
     inkscape:window-y="0"
     inkscape:window-maximized="0" />
  <metadata
     id="metadata8172">
    <rdf:RDF>
      <cc:Work
         rdf:about="">
        <dc:format>image/svg+xml</dc:format>
        <dc:type
           rdf:resource="http://purl.org/dc/dcmitype/StillImage" />
        <dc:title></dc:title>
      </cc:Work>
    </rdf:RDF>
  </metadata>
  <g
     inkscape:label="Layer 1"
     inkscape:groupmode="layer"
     id="layer1"
     transform="translate(443.25667,-357.81948)">
    <circle
       r="75.5"
       cy="583.12793"
       cx="-232.30322"
       id="circle8681"
       style="display:inline;opacity:1;fill:none;fill-opacity:1;stroke:#2d3e9f;stroke-width:3;stroke-linecap:round;stroke-linejoin:miter;stroke-miterlimit:4;stroke-dasharray:none;stroke-dashoffset:0;stroke-opacity:1" />
    <path
       d="m -201.48995,529.32698 a 62,62 0 0 1 19.4985,17.56939"
       sodipodi:open="true"
       sodipodi:end="5.6590695"
       sodipodi:start="5.2325136"
       sodipodi:ry="62"
       sodipodi:rx="62"
       sodipodi:cy="583.12793"
       sodipodi:cx="-232.30322"
       sodipodi:type="arc"
       style="display:inline;opacity:1;fill:none;fill-opacity:1;stroke:#2d3e9f;stroke-width:3;stroke-linecap:round;stroke-linejoin:miter;stroke-miterlimit:4;stroke-dasharray:none;stroke-dashoffset:0;stroke-opacity:1"
       id="path8695" />
    <path
       d="M -209.56801,533.59652 A 54.5,54.5 0 0 1 -189.4031,549.515"
       sodipodi:open="true"
       sodipodi:end="5.6185767"
       sodipodi:start="5.142707"
       sodipodi:ry="54.5"
       sodipodi:rx="54.5"
       sodipodi:cy="583.12793"
       sodipodi:cx="-232.30322"
       sodipodi:type="arc"
       id="path8697"
       style="display:inline;opacity:1;fill:none;fill-opacity:1;stroke:#2d3e9f;stroke-width:3;stroke-linecap:round;stroke-linejoin:miter;stroke-miterlimit:4;stroke-dasharray:none;stroke-dashoffset:0;stroke-opacity:1" />
    <path
       sodipodi:open="true"
       style="display:inline;opacity:1;fill:none;fill-opacity:1;stroke:#2d3e9f;stroke-width:3;stroke-linecap:round;stroke-linejoin:miter;stroke-miterlimit:4;stroke-dasharray:none;stroke-dashoffset:0;stroke-opacity:1"
       id="path8699"
       sodipodi:type="arc"
       sodipodi:cx="-156.30321"
       sodipodi:cy="585.12793"
       sodipodi:rx="56"
       sodipodi:ry="56"
       sodipodi:start="3.838195"
       sodipodi:end="4.224915"
       d="m -199.2567,549.19747 a 56,56 0 0 1 16.72334,-13.5466" />
    <path
       d="m -206.92696,542.78132 a 66,66 0 0 1 15.95604,-13.81521"
       sodipodi:end="4.1593586"
       sodipodi:start="3.838195"
       sodipodi:ry="66"
       sodipodi:rx="66"
       sodipodi:cy="585.12793"
       sodipodi:cx="-156.30321"
       sodipodi:type="arc"
       id="path8701"
       style="display:inline;opacity:1;fill:none;fill-opacity:1;stroke:#2d3e9f;stroke-width:3;stroke-linecap:round;stroke-linejoin:miter;stroke-miterlimit:4;stroke-dasharray:none;stroke-dashoffset:0;stroke-opacity:1"
       sodipodi:open="true" />
    <path
       style="color:#000000;font-style:normal;font-variant:normal;font-weight:normal;font-stretch:normal;font-size:medium;line-height:normal;font-family:sans-serif;text-indent:0;text-align:start;text-decoration:none;text-decoration-line:none;text-decoration-style:solid;text-decoration-color:#000000;letter-spacing:normal;word-spacing:normal;text-transform:none;direction:ltr;block-progression:tb;writing-mode:lr-tb;baseline-shift:baseline;text-anchor:start;white-space:normal;clip-rule:nonzero;display:inline;overflow:visible;visibility:visible;opacity:1;isolation:auto;mix-blend-mode:normal;color-interpolation:sRGB;color-interpolation-filters:linearRGB;solid-color:#000000;solid-opacity:1;fill:#2d3e9f;fill-opacity:1;fill-rule:nonzero;stroke:none;stroke-width:2.99999976;stroke-linecap:round;stroke-linejoin:round;stroke-miterlimit:4;stroke-dasharray:none;stroke-dashoffset:0;stroke-opacity:1;color-rendering:auto;image-rendering:auto;shape-rendering:auto;text-rendering:auto;enable-background:accumulate"
       d="M 545.95703 196.12891 C 456.81892 196.04875 368.66781 202.36218 285.61523 214.61133 A 75.5 75.5 0 0 1 285.97852 217.61133 C 419.05321 197.97988 565.32519 193.59584 707.67188 206.37891 A 1.5001499 1.5001499 0 1 0 707.93945 203.39062 C 660.60359 199.13976 612.83915 196.7815 565.26953 196.24609 C 558.82781 196.17359 552.39006 196.13469 545.95703 196.12891 z M 137.9043 244.16211 C 91.559964 256.15783 48.125176 270.30479 8.5742188 286.50391 A 1.5001499 1.5001499 0 0 0 8.3789062 286.60156 L 6.8828125 287.48828 A 1.5001499 1.5001499 0 0 0 6.7324219 287.58984 C 2.6991519 290.69389 0.32359688 293.90776 0.029296875 297.35938 C -0.26500313 300.81098 1.6612212 304.06057 5.1445312 306.90234 C 12.111151 312.58586 25.667308 317.50456 45.705078 322.0625 C 85.780618 331.17838 151.67414 338.45592 240.14062 343.17969 C 370.56929 350.14413 538.20488 350.90101 712.17969 345.70312 A 1.5006733 1.5006733 0 1 0 712.08984 342.70312 C 538.18125 347.89904 370.60431 347.14135 240.30078 340.18359 C 151.91917 335.46435 86.088954 328.17124 46.371094 319.13672 C 26.512164 314.61946 13.154986 309.56603 7.0410156 304.57812 C 3.9840256 302.08416 2.8290881 299.82388 3.0175781 297.61328 C 3.2053381 295.41118 4.87549 292.8216 8.53125 289.99805 L 9.8027344 289.24414 C 49.203102 273.11218 92.504162 259.01864 138.72266 247.0625 A 75.5 75.5 0 0 1 137.9043 244.16211 z "
       transform="translate(-443.25667,357.81948)"
       id="path8713" />
    <path
       style="display:inline;opacity:1;fill:none;fill-opacity:1;stroke:#2d3e9f;stroke-width:3;stroke-linecap:round;stroke-linejoin:round;stroke-miterlimit:4;stroke-dasharray:none;stroke-dashoffset:0;stroke-opacity:1"
       d="m 28.218301,389.2666 c 20.1734,-14.0918 39.986,-12.5519 59.8852,-14.7602 l -24.8787,21.2669 c 31.4486,-10.9809 49.919499,2.5485 74.318099,4.8827 l -41.739099,10.7478 41.433499,15.6538 24.5678,17.1607 -56.3461,-8.8019 c 0,0 40.4544,41.7207 27.9382,35.1006 -12.5164,-6.6202 -58.975399,-38.3986 -58.975399,-38.3986 l 14.6938,35.7926 -41.2335,-38.6217 c 3.4789,11.1725 13.4393,42.4953 1.3189,21.7425 l -21.1068,-30.3709 -4.1444,-24.8455 c 2.2816,-2.7962 4.2685,-6.5488 4.2685,-6.5488 z"
       id="path8731"
       inkscape:connector-curvature="0"
       sodipodi:nodetypes="ccccccccsccccccc" />
    <g
       id="g8715"
       transform="translate(-3826.8347,-3638.2188)"
       style="display:inline;fill:#ffffff;stroke:#000000;stroke-opacity:1">
      <path
         style="opacity:1;fill:none;fill-opacity:1;stroke:#2d3e9f;stroke-width:3;stroke-linecap:round;stroke-linejoin:round;stroke-miterlimit:4;stroke-dasharray:none;stroke-dashoffset:0;stroke-opacity:1"
         d="m 3830.9375,4021.2125 10.4669,-13.2466 c 41.7475,-15.4435 36.4196,-8.9867 56.3593,-9.7213 l -14.9031,22.7861"
         id="path8717"
         inkscape:connector-curvature="0"
         sodipodi:nodetypes="cccc" />
      <path
         style="opacity:1;fill:none;fill-opacity:1;stroke:#2d3e9f;stroke-width:3;stroke-linecap:round;stroke-linejoin:round;stroke-miterlimit:4;stroke-dasharray:none;stroke-dashoffset:0;stroke-opacity:1"
         d="m 3892.3361,4177.9114 5.8447,34.7094 c 9.705,1.6711 19.1832,5.799 29.7074,-1.3999 l -1.9126,-38.2444 c -8.713,3.4765 -16.3742,7.7234 -33.6395,4.9349 z"
         id="path8719"
         inkscape:connector-curvature="0"
         sodipodi:nodetypes="ccccc" />
      <path
         sodipodi:nodetypes="ccccc"
         inkscape:connector-curvature="0"
         id="path8721"
         d="m 3881.2204,4147.3881 13.3876,32.5555 c 9.8343,-0.5176 19.9915,1.411 28.6599,-7.9378 l -10.3362,-36.8729 c -7.7266,5.3179 -14.257,11.1546 -31.7113,12.2552 z"
         style="opacity:1;fill:none;fill-opacity:1;stroke:#2d3e9f;stroke-width:3;stroke-linecap:round;stroke-linejoin:round;stroke-miterlimit:4;stroke-dasharray:none;stroke-dashoffset:0;stroke-opacity:1" />
      <path
         style="opacity:1;fill:none;fill-opacity:1;stroke:#2d3e9f;stroke-width:3;stroke-linecap:round;stroke-linejoin:round;stroke-miterlimit:4;stroke-dasharray:none;stroke-dashoffset:0;stroke-opacity:1"
         d="m 3868.4922,4115.3164 16.9138,30.8731 c 9.7162,-1.6033 20.0246,-0.8111 27.6033,-11.0622 l -14.3595,-35.5018 c -7.0895,6.1407 -12.9327,12.6646 -30.1576,15.6909 z"
         id="path8723"
         inkscape:connector-curvature="0"
         sodipodi:nodetypes="ccccc" />
      <path
         sodipodi:nodetypes="ccccc"
         inkscape:connector-curvature="0"
         id="path8725"
         d="m 3850.9871,4085.5989 19.1739,29.5242 c 9.5692,-2.3241 19.9079,-2.3037 26.6992,-13.0919 l -16.9727,-34.3308 c -6.6107,6.6528 -11.9499,13.5947 -28.9004,17.8985 z"
         style="opacity:1;fill:none;fill-opacity:1;stroke:#2d3e9f;stroke-width:3;stroke-linecap:round;stroke-linejoin:round;stroke-miterlimit:4;stroke-dasharray:none;stroke-dashoffset:0;stroke-opacity:1" />
      <path
         style="opacity:1;fill:none;fill-opacity:1;stroke:#2d3e9f;stroke-width:3;stroke-linecap:round;stroke-linejoin:round;stroke-miterlimit:4;stroke-dasharray:none;stroke-dashoffset:0;stroke-opacity:1"
         d="M 442.80469 26.943359 C 431.34917 26.862593 420.3881 28.992128 409.16797 29.962891 L 437.73047 45.953125 C 404.73907 41.334725 389.27594 58.214891 365.80664 65.275391 L 408.84375 67.652344 C 383.70465 80.132544 373.86169 110.25267 355.11719 130.57617 L 415.91992 89.884766 L 416.85742 111.17578 L 418.6582 108.96289 C 423.16993 96.76241 429.30534 84.712183 443.95312 73.447266 L 412.53125 82.626953 C 425.26615 67.187053 434.81354 49.770463 457.65234 40.601562 L 457.6543 40.601562 C 457.6543 40.601562 461.88441 40.990528 465.47461 40.611328 C 465.98436 40.557475 466.90741 41.564151 468.08398 43.25 L 467.20703 37.996094 C 468.69073 36.177755 469.9887 34.047124 470.75781 32.714844 C 460.90538 28.404415 451.70624 27.00612 442.80469 26.943359 z "
         transform="translate(3383.578,3996.0383)"
         id="path8727" />
      <path
         style="opacity:1;fill:#ffffff;fill-opacity:1;stroke:#2d3e9f;stroke-width:3;stroke-linecap:round;stroke-linejoin:round;stroke-miterlimit:4;stroke-dasharray:none;stroke-dashoffset:0;stroke-opacity:1"
         d="m 3852.0315,4046.7345 c -10.1851,17.6667 -16.8127,40.3333 -19,58"
         id="path8735"
         inkscape:connector-curvature="0"
         sodipodi:nodetypes="cc" />
      <path
         style="opacity:1;fill:#ffffff;fill-opacity:1;stroke:#2d3e9f;stroke-width:3;stroke-linecap:round;stroke-linejoin:round;stroke-miterlimit:4;stroke-dasharray:none;stroke-dashoffset:0;stroke-opacity:1"
         d="m 3867.0315,4042.7345 c 18,4.5378 36,8.6929 54,21"
         id="path8733"
         inkscape:connector-curvature="0"
         sodipodi:nodetypes="cc" />
    </g>
    <path
       id="path8751"
       style="display:inline;opacity:1;fill:none;fill-opacity:1;stroke:#2d3e9f;stroke-width:3;stroke-linecap:round;stroke-linejoin:miter;stroke-miterlimit:4;stroke-dasharray:none;stroke-dashoffset:0;stroke-opacity:1"
       sodipodi:type="arc"
       sodipodi:cx="-232.30322"
       sodipodi:cy="583.12793"
       sodipodi:rx="62"
       sodipodi:ry="62"
       sodipodi:start="5.2325136"
       sodipodi:end="5.6590695"
       sodipodi:open="true"
       d="m -201.48995,529.32698 a 62,62 0 0 1 19.4985,17.56939" />
    <path
       style="display:inline;opacity:1;fill:none;fill-opacity:1;stroke:#2d3e9f;stroke-width:3;stroke-linecap:round;stroke-linejoin:miter;stroke-miterlimit:4;stroke-dasharray:none;stroke-dashoffset:0;stroke-opacity:1"
       id="path8753"
       sodipodi:type="arc"
       sodipodi:cx="-232.30322"
       sodipodi:cy="583.12793"
       sodipodi:rx="54.5"
       sodipodi:ry="54.5"
       sodipodi:start="5.142707"
       sodipodi:end="5.6185767"
       sodipodi:open="true"
       d="M -209.56801,533.59652 A 54.5,54.5 0 0 1 -189.4031,549.515" />
    <path
       d="m -199.2567,549.19747 a 56,56 0 0 1 16.72334,-13.5466"
       sodipodi:end="4.224915"
       sodipodi:start="3.838195"
       sodipodi:ry="56"
       sodipodi:rx="56"
       sodipodi:cy="585.12793"
       sodipodi:cx="-156.30321"
       sodipodi:type="arc"
       id="path8755"
       style="display:inline;opacity:1;fill:none;fill-opacity:1;stroke:#2d3e9f;stroke-width:3;stroke-linecap:round;stroke-linejoin:miter;stroke-miterlimit:4;stroke-dasharray:none;stroke-dashoffset:0;stroke-opacity:1"
       sodipodi:open="true" />
    <path
       sodipodi:open="true"
       style="display:inline;opacity:1;fill:none;fill-opacity:1;stroke:#2d3e9f;stroke-width:3;stroke-linecap:round;stroke-linejoin:miter;stroke-miterlimit:4;stroke-dasharray:none;stroke-dashoffset:0;stroke-opacity:1"
       id="path8757"
       sodipodi:type="arc"
       sodipodi:cx="-156.30321"
       sodipodi:cy="585.12793"
       sodipodi:rx="66"
       sodipodi:ry="66"
       sodipodi:start="3.838195"
       sodipodi:end="4.1593586"
       d="m -206.92696,542.78132 a 66,66 0 0 1 15.95604,-13.81521" />
    <g
       transform="translate(-3827.9349,-3035.4476)"
       style="font-style:normal;font-variant:normal;font-weight:bold;font-stretch:normal;font-size:19.29931259px;line-height:125%;font-family:'Glacial Indifference';-inkscape-font-specification:'Glacial Indifference Bold';letter-spacing:0px;word-spacing:0px;display:inline;fill:#2d3e9f;fill-opacity:1;stroke:none;stroke-width:1px;stroke-linecap:butt;stroke-linejoin:miter;stroke-opacity:1"
       id="flowRoot11691-2">
      <path
         inkscape:connector-curvature="0"
         d="m 3565.8452,3607.5858 c 0,1.5054 -0.5404,2.7791 -1.5825,3.8213 -1.0615,1.0614 -2.3353,1.5825 -3.8213,1.5825 -1.486,0 -2.7598,-0.5211 -3.802,-1.5825 -1.0614,-1.0422 -1.5825,-2.3159 -1.5825,-3.8213 0,-1.4667 0.5211,-2.7405 1.5825,-3.802 1.0422,-1.0421 2.316,-1.5825 3.802,-1.5825 1.486,0 2.7598,0.5404 3.8213,1.5825 1.0421,1.0615 1.5825,2.3353 1.5825,3.802 z m 1.351,0 c 0,-0.9264 -0.193,-1.7948 -0.5404,-2.6247 -0.3474,-0.8106 -0.8299,-1.5246 -1.4475,-2.1422 -0.6175,-0.5983 -1.3316,-1.0808 -2.1422,-1.4282 -0.8299,-0.3474 -1.6983,-0.5404 -2.6247,-0.5404 -0.9264,0 -1.8141,0.193 -2.6247,0.5404 -0.8106,0.3474 -1.5246,0.8299 -2.1422,1.4282 -0.6176,0.6176 -1.1001,1.3316 -1.4475,2.1422 -0.3474,0.8299 -0.5211,1.6983 -0.5211,2.6247 0,0.9264 0.1737,1.8141 0.5211,2.6247 0.3474,0.8299 0.8299,1.544 1.4475,2.1615 0.6176,0.6176 1.3316,1.1001 2.1422,1.4475 0.8106,0.3474 1.6983,0.5211 2.6247,0.5211 0.9264,0 1.7948,-0.1737 2.6247,-0.5211 0.8106,-0.3474 1.5247,-0.8299 2.1422,-1.4475 0.6176,-0.6175 1.1001,-1.3316 1.4475,-2.1615 0.3474,-0.8106 0.5404,-1.6983 0.5404,-2.6247 z"
         style="font-style:normal;font-variant:normal;font-weight:normal;font-stretch:normal;font-family:'Glacial Indifference';-inkscape-font-specification:'Glacial Indifference';text-align:center;text-anchor:middle;fill:#2d3e9f;fill-opacity:1"
         id="path34738" />
      <path
         inkscape:connector-curvature="0"
         d="m 3570.8642,3607.7016 0,-5.3459 3.0493,0 c 0.7913,0 1.4282,0.2509 1.9107,0.7527 0.4631,0.5017 0.714,1.1193 0.714,1.8913 0,0.772 -0.2509,1.4088 -0.7526,1.9299 -0.5018,0.5211 -1.1194,0.772 -1.8721,0.772 l -3.0493,0 z m 7.025,-2.6826 c 0,-1.1194 -0.4246,-2.0843 -1.2352,-2.837 -0.7912,-0.7334 -1.7755,-1.1194 -2.9335,-1.1194 l -4.2072,0 0,13.1236 1.3509,0 0,-5.1915 1.5633,0 3.8598,5.1915 1.8142,0 -4.0529,-5.1915 c 1.0229,-0.058 1.8914,-0.4246 2.6054,-1.1001 0.8106,-0.7527 1.2352,-1.7176 1.2352,-2.8756 z"
         style="font-style:normal;font-variant:normal;font-weight:normal;font-stretch:normal;font-family:'Glacial Indifference';-inkscape-font-specification:'Glacial Indifference';text-align:center;text-anchor:middle;fill:#2d3e9f;fill-opacity:1"
         id="path34740" />
      <path
         inkscape:connector-curvature="0"
         d="m 3581.3432,3614.1862 0,-13.1236 -1.351,0 0,13.1236 1.351,0 z"
         style="font-style:normal;font-variant:normal;font-weight:normal;font-stretch:normal;font-family:'Glacial Indifference';-inkscape-font-specification:'Glacial Indifference';text-align:center;text-anchor:middle;fill:#2d3e9f;fill-opacity:1"
         id="path34742" />
      <path
         inkscape:connector-curvature="0"
         d="m 3597.1638,3608.049 -6.832,0 0,1.1772 5.3266,0 c -0.4053,1.1387 -1.0807,2.0651 -2.0457,2.7405 -0.965,0.6948 -2.0457,1.0229 -3.223,1.0229 -1.5053,0 -2.7791,-0.5211 -3.8405,-1.5825 -1.0422,-1.0615 -1.5633,-2.3545 -1.5633,-3.8406 0,-1.486 0.5211,-2.7598 1.5826,-3.8213 1.0421,-1.0421 2.3159,-1.5825 3.8212,-1.5825 1.1194,0 2.1422,0.3281 3.0493,0.965 0.9264,0.6368 1.5825,1.4667 2.0071,2.5282 l 1.4282,0 c -0.4439,-1.4475 -1.2738,-2.6054 -2.4703,-3.4932 -1.1966,-0.8878 -2.5861,-1.351 -4.1494,-1.351 -0.8492,0 -1.679,0.193 -2.4896,0.5404 -0.8299,0.3474 -1.5439,0.8299 -2.1615,1.4475 -0.6176,0.6176 -1.1001,1.3316 -1.4475,2.1422 -0.3474,0.8299 -0.521,1.7176 -0.521,2.644 0,0.9264 0.1736,1.8141 0.521,2.6247 0.3474,0.8299 0.8299,1.544 1.4475,2.1615 0.6176,0.6176 1.3316,1.1001 2.1615,1.4475 0.8106,0.3474 1.6983,0.5211 2.6247,0.5211 1.5826,0 3.0107,-0.5018 4.2845,-1.5247 1.2737,-1.0421 2.065,-2.3545 2.3545,-3.9563 l 0.1351,-0.8106 z"
         style="font-style:normal;font-variant:normal;font-weight:normal;font-stretch:normal;font-family:'Glacial Indifference';-inkscape-font-specification:'Glacial Indifference';text-align:center;text-anchor:middle;fill:#2d3e9f;fill-opacity:1"
         id="path34744" />
      <path
         inkscape:connector-curvature="0"
         d="m 3600.8309,3614.1862 0,-13.1236 -1.3509,0 0,13.1236 1.3509,0 z"
         style="font-style:normal;font-variant:normal;font-weight:normal;font-stretch:normal;font-family:'Glacial Indifference';-inkscape-font-specification:'Glacial Indifference';text-align:center;text-anchor:middle;fill:#2d3e9f;fill-opacity:1"
         id="path34746" />
      <path
         inkscape:connector-curvature="0"
         d="m 3605.0527,3604.5172 7.3723,10.4795 0,-13.9341 -1.3509,0 0,9.6497 -7.3724,-10.4795 0,13.9534 1.351,0 0,-9.669 z"
         style="font-style:normal;font-variant:normal;font-weight:normal;font-stretch:normal;font-family:'Glacial Indifference';-inkscape-font-specification:'Glacial Indifference';text-align:center;text-anchor:middle;fill:#2d3e9f;fill-opacity:1"
         id="path34748" />
      <path
         inkscape:connector-curvature="0"
         d="m 3617.3967,3609.3613 2.3931,-6.0406 2.3738,6.0406 -4.7669,0 z m 8.1443,4.8249 -5.7512,-14.0306 -5.7705,14.0306 1.4668,0 1.4088,-3.5704 5.7705,0 1.4089,3.5704 1.4667,0 z"
         style="font-style:normal;font-variant:normal;font-weight:normal;font-stretch:normal;font-family:'Glacial Indifference';-inkscape-font-specification:'Glacial Indifference';text-align:center;text-anchor:middle;fill:#2d3e9f;fill-opacity:1"
         id="path34750" />
      <path
         inkscape:connector-curvature="0"
         d="m 3628.536,3612.8352 0,-11.7726 -1.3509,0 0,13.1236 0.6754,0 0.6755,0 4.6897,0 0,-1.351 -4.6897,0 z"
         style="font-style:normal;font-variant:normal;font-weight:normal;font-stretch:normal;font-family:'Glacial Indifference';-inkscape-font-specification:'Glacial Indifference';text-align:center;text-anchor:middle;fill:#2d3e9f;fill-opacity:1"
         id="path34752" />
      <path
         inkscape:connector-curvature="0"
         d="m 3549.0774,3638.3102 0,-1.2545 -6.4459,0 0,-4.6704 6.2529,0 0,-1.2738 -6.2529,0 0,-4.6704 6.4459,0 0,-1.2544 -7.7969,0 0,13.1235 7.7969,0 z"
         style="font-style:normal;font-variant:normal;font-weight:normal;font-stretch:normal;font-family:'Glacial Indifference';-inkscape-font-specification:'Glacial Indifference';text-align:center;text-anchor:middle;fill:#2d3e9f;fill-opacity:1"
         id="path34754" />
      <path
         inkscape:connector-curvature="0"
         d="m 3560.1308,3638.3102 1.6597,0 -4.6125,-6.5618 4.6125,-6.5617 -1.6597,0 -3.7827,5.5968 -3.7826,-5.5968 -1.6791,0 4.6319,6.581 -4.6126,6.5425 1.6598,0 3.7826,-5.5968 3.7827,5.5968 z"
         style="font-style:normal;font-variant:normal;font-weight:normal;font-stretch:normal;font-family:'Glacial Indifference';-inkscape-font-specification:'Glacial Indifference';text-align:center;text-anchor:middle;fill:#2d3e9f;fill-opacity:1"
         id="path34756" />
      <path
         inkscape:connector-curvature="0"
         d="m 3564.984,3631.8063 0,-5.3266 3.0493,0 c 0.7912,0 1.4281,0.2509 1.9106,0.7334 0.4632,0.5018 0.7141,1.1193 0.7141,1.8913 0,0.7913 -0.2509,1.4282 -0.7527,1.9493 -0.5018,0.5017 -1.1194,0.7526 -1.872,0.7526 l -3.0493,0 z m 7.0249,-2.6633 c 0,-1.1579 -0.4246,-2.1036 -1.2351,-2.8563 -0.8106,-0.7334 -1.7756,-1.1 -2.9335,-1.1 l -4.2073,0 0,13.1235 1.351,0 0,-5.1915 2.8563,0 c 1.1579,0 2.1422,-0.3667 2.9335,-1.1001 0.8105,-0.772 1.2351,-1.7176 1.2351,-2.8756 z"
         style="font-style:normal;font-variant:normal;font-weight:normal;font-stretch:normal;font-family:'Glacial Indifference';-inkscape-font-specification:'Glacial Indifference';text-align:center;text-anchor:middle;fill:#2d3e9f;fill-opacity:1"
         id="path34758" />
      <path
         inkscape:connector-curvature="0"
         d="m 3575.1614,3631.8256 0,-5.3459 3.0492,0 c 0.7913,0 1.4282,0.2509 1.9107,0.7527 0.4632,0.5018 0.714,1.1193 0.714,1.8913 0,0.772 -0.2508,1.4089 -0.7526,1.93 -0.5018,0.521 -1.1194,0.7719 -1.8721,0.7719 l -3.0492,0 z m 7.0249,-2.6826 c 0,-1.1193 -0.4246,-2.0843 -1.2352,-2.837 -0.7912,-0.7334 -1.7755,-1.1193 -2.9335,-1.1193 l -4.2072,0 0,13.1235 1.351,0 0,-5.1915 1.5632,0 3.8599,5.1915 1.8141,0 -4.0529,-5.1915 c 1.0229,-0.058 1.8914,-0.4246 2.6054,-1.1001 0.8106,-0.7527 1.2352,-1.7176 1.2352,-2.8756 z"
         style="font-style:normal;font-variant:normal;font-weight:normal;font-stretch:normal;font-family:'Glacial Indifference';-inkscape-font-specification:'Glacial Indifference';text-align:center;text-anchor:middle;fill:#2d3e9f;fill-opacity:1"
         id="path34760" />
      <path
         inkscape:connector-curvature="0"
         d="m 3592.0862,3638.3102 0,-1.2545 -6.4459,0 0,-4.6704 6.253,0 0,-1.2738 -6.253,0 0,-4.6704 6.4459,0 0,-1.2544 -7.7969,0 0,13.1235 7.7969,0 z"
         style="font-style:normal;font-variant:normal;font-weight:normal;font-stretch:normal;font-family:'Glacial Indifference';-inkscape-font-specification:'Glacial Indifference';text-align:center;text-anchor:middle;fill:#2d3e9f;fill-opacity:1"
         id="path34762" />
      <path
         inkscape:connector-curvature="0"
         d="m 3598.585,3632.1344 c 1.6983,0.4053 2.8563,0.8492 3.4739,1.351 0.4246,0.3474 0.6368,0.7912 0.6368,1.3316 0,0.5404 -0.1158,0.9843 -0.3473,1.2931 -0.579,0.8105 -1.6212,1.2158 -3.0879,1.2158 -2.0458,0 -3.2037,-0.6947 -3.4546,-2.0843 l -1.5826,0 c 0.4632,2.2194 2.1423,3.3195 5.0372,3.3195 1.293,0 2.3738,-0.2702 3.2422,-0.8492 1.0422,-0.6755 1.5826,-1.679 1.5826,-2.9914 0,-1.0807 -0.4246,-1.9106 -1.2738,-2.4896 -0.5982,-0.4246 -1.5632,-0.8106 -2.8949,-1.158 -1.3509,-0.3473 -2.2194,-0.6368 -2.6247,-0.8491 -0.8877,-0.4439 -1.3316,-1.0615 -1.3123,-1.8721 0,-0.4245 0.077,-0.7912 0.2702,-1.0614 0.5018,-0.7527 1.3895,-1.1387 2.6633,-1.1387 1.7948,0 2.8177,0.579 3.0879,1.6984 l 1.4667,0 c -0.4825,-1.8914 -2.0071,-2.8563 -4.5546,-2.8563 -1.158,0 -2.1808,0.3088 -3.03,0.9263 -0.8685,0.6176 -1.3124,1.5247 -1.3124,2.7598 0,1.6791 1.351,2.837 4.0143,3.4546 z"
         style="font-style:normal;font-variant:normal;font-weight:normal;font-stretch:normal;font-family:'Glacial Indifference';-inkscape-font-specification:'Glacial Indifference';text-align:center;text-anchor:middle;fill:#2d3e9f;fill-opacity:1"
         id="path34764" />
      <path
         inkscape:connector-curvature="0"
         d="m 3609.6293,3632.1344 c 1.6984,0.4053 2.8563,0.8492 3.4739,1.351 0.4246,0.3474 0.6369,0.7912 0.6369,1.3316 0,0.5404 -0.1158,0.9843 -0.3474,1.2931 -0.579,0.8105 -1.6212,1.2158 -3.0879,1.2158 -2.0457,0 -3.2037,-0.6947 -3.4546,-2.0843 l -1.5825,0 c 0.4632,2.2194 2.1422,3.3195 5.0371,3.3195 1.2931,0 2.3738,-0.2702 3.2423,-0.8492 1.0421,-0.6755 1.5825,-1.679 1.5825,-2.9914 0,-1.0807 -0.4246,-1.9106 -1.2737,-2.4896 -0.5983,-0.4246 -1.5633,-0.8106 -2.8949,-1.158 -1.351,-0.3473 -2.2194,-0.6368 -2.6247,-0.8491 -0.8878,-0.4439 -1.3317,-1.0615 -1.3124,-1.8721 0,-0.4245 0.077,-0.7912 0.2702,-1.0614 0.5018,-0.7527 1.3896,-1.1387 2.6633,-1.1387 1.7948,0 2.8177,0.579 3.0879,1.6984 l 1.4667,0 c -0.4824,-1.8914 -2.0071,-2.8563 -4.5546,-2.8563 -1.1579,0 -2.1808,0.3088 -3.03,0.9263 -0.8684,0.6176 -1.3123,1.5247 -1.3123,2.7598 0,1.6791 1.3509,2.837 4.0142,3.4546 z"
         style="font-style:normal;font-variant:normal;font-weight:normal;font-stretch:normal;font-family:'Glacial Indifference';-inkscape-font-specification:'Glacial Indifference';text-align:center;text-anchor:middle;fill:#2d3e9f;fill-opacity:1"
         id="path34766" />
      <path
         inkscape:connector-curvature="0"
         d="m 3618.3963,3638.3102 0,-13.1235 -1.3509,0 0,13.1235 1.3509,0 z"
         style="font-style:normal;font-variant:normal;font-weight:normal;font-stretch:normal;font-family:'Glacial Indifference';-inkscape-font-specification:'Glacial Indifference';text-align:center;text-anchor:middle;fill:#2d3e9f;fill-opacity:1"
         id="path34768" />
      <path
         inkscape:connector-curvature="0"
         d="m 3632.8274,3631.7098 c 0,1.5054 -0.5404,2.7791 -1.5826,3.8213 -1.0614,1.0615 -2.3352,1.5825 -3.8212,1.5825 -1.4861,0 -2.7598,-0.521 -3.802,-1.5825 -1.0614,-1.0422 -1.5825,-2.3159 -1.5825,-3.8213 0,-1.4667 0.5211,-2.7405 1.5825,-3.8019 1.0422,-1.0422 2.3159,-1.5826 3.802,-1.5826 1.486,0 2.7598,0.5404 3.8212,1.5826 1.0422,1.0614 1.5826,2.3352 1.5826,3.8019 z m 1.3509,0 c 0,-0.9263 -0.1929,-1.7948 -0.5403,-2.6247 -0.3474,-0.8106 -0.8299,-1.5246 -1.4475,-2.1422 -0.6176,-0.5983 -1.3316,-1.0808 -2.1422,-1.4282 -0.8299,-0.3473 -1.6983,-0.5403 -2.6247,-0.5403 -0.9264,0 -1.8141,0.193 -2.6247,0.5403 -0.8106,0.3474 -1.5247,0.8299 -2.1422,1.4282 -0.6176,0.6176 -1.1001,1.3316 -1.4475,2.1422 -0.3474,0.8299 -0.5211,1.6984 -0.5211,2.6247 0,0.9264 0.1737,1.8142 0.5211,2.6247 0.3474,0.8299 0.8299,1.544 1.4475,2.1616 0.6175,0.6175 1.3316,1.1 2.1422,1.4474 0.8106,0.3474 1.6983,0.5211 2.6247,0.5211 0.9264,0 1.7948,-0.1737 2.6247,-0.5211 0.8106,-0.3474 1.5246,-0.8299 2.1422,-1.4474 0.6176,-0.6176 1.1001,-1.3317 1.4475,-2.1616 0.3474,-0.8105 0.5403,-1.6983 0.5403,-2.6247 z"
         style="font-style:normal;font-variant:normal;font-weight:normal;font-stretch:normal;font-family:'Glacial Indifference';-inkscape-font-specification:'Glacial Indifference';text-align:center;text-anchor:middle;fill:#2d3e9f;fill-opacity:1"
         id="path34770" />
      <path
         inkscape:connector-curvature="0"
         d="m 3637.8464,3628.6412 7.3724,10.4796 0,-13.9341 -1.351,0 0,9.6496 -7.3723,-10.4795 0,13.9534 1.3509,0 0,-9.669 z"
         style="font-style:normal;font-variant:normal;font-weight:normal;font-stretch:normal;font-family:'Glacial Indifference';-inkscape-font-specification:'Glacial Indifference';text-align:center;text-anchor:middle;fill:#2d3e9f;fill-opacity:1"
         id="path34772" />
    </g>
    <path
       style="display:inline;opacity:1;fill:none;fill-opacity:1;stroke:#2d3e9f;stroke-width:3;stroke-linecap:round;stroke-linejoin:round;stroke-miterlimit:4;stroke-dasharray:none;stroke-dashoffset:0;stroke-opacity:1"
       d="m 14.396501,398.4204 c -22.8388001,9.16889 -32.3869,26.5868 -45.1218,42.02669 L 0.69740087,431.2667 C -25.703399,451.57029 -24.474799,474.42409 -35.866099,496.1131 l 31.8347999,-29.0403 -5.2865,28.19739 7.8796,43.81651 9.1107,-52.45701 c 0,0 15.9452001,58.32301 17.2467001,44.23031 1.3014,-14.0926 0.097,-70.34431 0.097,-70.34431 l 21.9433,31.8722 -9.7952,-55.6233 11.7796,11.0362 c 0,0 -23.1365,-49.74839 -26.7268,-49.36909 -3.5902,0.3792 -7.8204,-0.011 -7.8204,-0.011 z"
       id="path8729"
       inkscape:connector-curvature="0"
       sodipodi:nodetypes="ccccccccsccccsc" />
  </g>
</svg>
