<?xml version="1.0" encoding="UTF-8" standalone="no"?>
<!-- Created with Inkscape (http://www.inkscape.org/) -->

<svg
   xmlns:dc="http://purl.org/dc/elements/1.1/"
   xmlns:cc="http://creativecommons.org/ns#"
   xmlns:rdf="http://www.w3.org/1999/02/22-rdf-syntax-ns#"
   xmlns:svg="http://www.w3.org/2000/svg"
   xmlns="http://www.w3.org/2000/svg"
   xmlns:sodipodi="http://sodipodi.sourceforge.net/DTD/sodipodi-0.dtd"
   xmlns:inkscape="http://www.inkscape.org/namespaces/inkscape"
   width="201.40964mm"
   height="98.519646mm"
   viewBox="0 0 713.6562 349.08536"
   id="svg8986"
   version="1.1"
   inkscape:version="0.91 r13725"
   sodipodi:docname="original-expression-island-non-transparent.svg">
  <defs
     id="defs8988" />
  <sodipodi:namedview
     id="base"
     pagecolor="#ffffff"
     bordercolor="#666666"
     borderopacity="1.0"
     inkscape:pageopacity="0.0"
     inkscape:pageshadow="2"
     inkscape:zoom="0.98994949"
     inkscape:cx="298.95653"
     inkscape:cy="178.21204"
     inkscape:document-units="px"
     inkscape:current-layer="layer1"
     showgrid="false"
     fit-margin-top="0"
     fit-margin-left="0"
     fit-margin-right="0"
     fit-margin-bottom="0"
     inkscape:window-width="1440"
     inkscape:window-height="851"
     inkscape:window-x="0"
     inkscape:window-y="1"
     inkscape:window-maximized="1" />
  <metadata
     id="metadata8991">
    <rdf:RDF>
      <cc:Work
         rdf:about="">
        <dc:format>image/svg+xml</dc:format>
        <dc:type
           rdf:resource="http://purl.org/dc/dcmitype/StillImage" />
        <dc:title></dc:title>
      </cc:Work>
    </rdf:RDF>
  </metadata>
  <g
     inkscape:label="Layer 1"
     inkscape:groupmode="layer"
     id="layer1"
     transform="translate(105.39953,-280.67668)">
    <circle
       r="75.5"
       cy="505.98508"
       cx="105.55392"
       id="circle8681"
       style="display:inline;opacity:1;fill:#007e61;fill-opacity:1;stroke:#2d3e9f;stroke-width:3;stroke-linecap:round;stroke-linejoin:miter;stroke-miterlimit:4;stroke-dasharray:none;stroke-dashoffset:0;stroke-opacity:1" />
    <path
       d="m 136.36719,452.18413 a 62,62 0 0 1 19.4985,17.56939"
       sodipodi:open="true"
       sodipodi:end="5.6590695"
       sodipodi:start="5.2325136"
       sodipodi:ry="62"
       sodipodi:rx="62"
       sodipodi:cy="505.98508"
       sodipodi:cx="105.55392"
       sodipodi:type="arc"
       style="display:inline;opacity:1;fill:none;fill-opacity:1;stroke:#2d3e9f;stroke-width:3;stroke-linecap:round;stroke-linejoin:miter;stroke-miterlimit:4;stroke-dasharray:none;stroke-dashoffset:0;stroke-opacity:1"
       id="path8695" />
    <path
       d="m 128.28913,456.45367 a 54.5,54.5 0 0 1 20.16491,15.91847"
       sodipodi:open="true"
       sodipodi:end="5.6185767"
       sodipodi:start="5.142707"
       sodipodi:ry="54.5"
       sodipodi:rx="54.5"
       sodipodi:cy="505.98508"
       sodipodi:cx="105.55392"
       sodipodi:type="arc"
       id="path8697"
       style="display:inline;opacity:1;fill:none;fill-opacity:1;stroke:#2d3e9f;stroke-width:3;stroke-linecap:round;stroke-linejoin:miter;stroke-miterlimit:4;stroke-dasharray:none;stroke-dashoffset:0;stroke-opacity:1" />
    <path
       sodipodi:open="true"
       style="display:inline;opacity:1;fill:none;fill-opacity:1;stroke:#2d3e9f;stroke-width:3;stroke-linecap:round;stroke-linejoin:miter;stroke-miterlimit:4;stroke-dasharray:none;stroke-dashoffset:0;stroke-opacity:1"
       id="path8699"
       sodipodi:type="arc"
       sodipodi:cx="181.55392"
       sodipodi:cy="507.98508"
       sodipodi:rx="56"
       sodipodi:ry="56"
       sodipodi:start="3.838195"
       sodipodi:end="4.224915"
       d="m 138.60044,472.05462 a 56,56 0 0 1 16.72333,-13.5466" />
    <path
       d="m 130.93017,465.63847 a 66,66 0 0 1 15.95605,-13.81521"
       sodipodi:end="4.1593586"
       sodipodi:start="3.838195"
       sodipodi:ry="66"
       sodipodi:rx="66"
       sodipodi:cy="507.98508"
       sodipodi:cx="181.55392"
       sodipodi:type="arc"
       id="path8701"
       style="display:inline;opacity:1;fill:none;fill-opacity:1;stroke:#2d3e9f;stroke-width:3;stroke-linecap:round;stroke-linejoin:miter;stroke-miterlimit:4;stroke-dasharray:none;stroke-dashoffset:0;stroke-opacity:1"
       sodipodi:open="true" />
    <path
       sodipodi:nodetypes="csccc"
       inkscape:connector-curvature="0"
       id="path8713"
       d="m 606.73532,624.88059 c -173.9417,5.1969 -341.5466,4.439 -471.9127,-2.5221 -176.8481,-9.443 -263.448,-29.1417 -232.573699,-52.9029 l 1.4955,-0.8861 c 181.921398,-74.5106 446.419599,-105.659 698.662499,-83.007"
       style="display:inline;opacity:1;fill:none;fill-opacity:1;stroke:#2d3e9f;stroke-width:2.99999976;stroke-linecap:round;stroke-linejoin:round;stroke-miterlimit:4;stroke-dasharray:none;stroke-dashoffset:0;stroke-opacity:1" />
    <g
       id="g8715"
       transform="translate(-3488.9775,-3715.3616)"
       style="display:inline;fill:#ffffff;stroke:#000000;stroke-opacity:1">
      <path
         style="opacity:1;fill:#ffffff;fill-opacity:1;stroke:#2d3e9f;stroke-width:3;stroke-linecap:round;stroke-linejoin:round;stroke-miterlimit:4;stroke-dasharray:none;stroke-dashoffset:0;stroke-opacity:1"
         d="m 3830.9375,4021.2125 10.4669,-13.2466 c 41.7475,-15.4435 36.4196,-8.9867 56.3593,-9.7213 l -14.9031,22.7861"
         id="path8717"
         inkscape:connector-curvature="0"
         sodipodi:nodetypes="cccc" />
      <path
         style="opacity:1;fill:#ffffff;fill-opacity:1;stroke:#2d3e9f;stroke-width:3;stroke-linecap:round;stroke-linejoin:round;stroke-miterlimit:4;stroke-dasharray:none;stroke-dashoffset:0;stroke-opacity:1"
         d="m 3892.3361,4177.9114 5.8447,34.7094 c 9.705,1.6711 19.1832,5.799 29.7074,-1.3999 l -1.9126,-38.2444 c -8.713,3.4765 -16.3742,7.7234 -33.6395,4.9349 z"
         id="path8719"
         inkscape:connector-curvature="0"
         sodipodi:nodetypes="ccccc" />
      <path
         sodipodi:nodetypes="ccccc"
         inkscape:connector-curvature="0"
         id="path8721"
         d="m 3881.2204,4147.3881 13.3876,32.5555 c 9.8343,-0.5176 19.9915,1.411 28.6599,-7.9378 l -10.3362,-36.8729 c -7.7266,5.3179 -14.257,11.1546 -31.7113,12.2552 z"
         style="opacity:1;fill:#ffffff;fill-opacity:1;stroke:#2d3e9f;stroke-width:3;stroke-linecap:round;stroke-linejoin:round;stroke-miterlimit:4;stroke-dasharray:none;stroke-dashoffset:0;stroke-opacity:1" />
      <path
         style="opacity:1;fill:#ffffff;fill-opacity:1;stroke:#2d3e9f;stroke-width:3;stroke-linecap:round;stroke-linejoin:round;stroke-miterlimit:4;stroke-dasharray:none;stroke-dashoffset:0;stroke-opacity:1"
         d="m 3868.4922,4115.3164 16.9138,30.8731 c 9.7162,-1.6033 20.0246,-0.8111 27.6033,-11.0622 l -14.3595,-35.5018 c -7.0895,6.1407 -12.9327,12.6646 -30.1576,15.6909 z"
         id="path8723"
         inkscape:connector-curvature="0"
         sodipodi:nodetypes="ccccc" />
      <path
         sodipodi:nodetypes="ccccc"
         inkscape:connector-curvature="0"
         id="path8725"
         d="m 3850.9871,4085.5989 19.1739,29.5242 c 9.5692,-2.3241 19.9079,-2.3037 26.6992,-13.0919 l -16.9727,-34.3308 c -6.6107,6.6528 -11.9499,13.5947 -28.9004,17.8985 z"
         style="opacity:1;fill:#ffffff;fill-opacity:1;stroke:#2d3e9f;stroke-width:3;stroke-linecap:round;stroke-linejoin:round;stroke-miterlimit:4;stroke-dasharray:none;stroke-dashoffset:0;stroke-opacity:1" />
      <path
         sodipodi:nodetypes="ccccccccccc"
         inkscape:connector-curvature="0"
         id="path8727"
         d="m 3854.3635,4028.7642 c -22.5436,-9.874 -41.6714,-4.4893 -61.6183,-2.7635 l 28.5636,15.9903 c -32.9914,-4.6184 -48.4548,12.2613 -71.9241,19.3218 l 43.0373,2.3774 c -25.1391,12.4802 -34.9826,42.6005 -53.7271,62.924 l 60.8024,-40.6908 0.9377,21.2897 25.1591,-30.9023 c 29.5266,-7.1712 26.1269,-5.989 39.6726,-31.5086 -2.7852,-2.2959 -10.9032,-16.038 -10.9032,-16.038 z"
         style="opacity:1;fill:#ffffff;fill-opacity:1;stroke:#2d3e9f;stroke-width:3;stroke-linecap:round;stroke-linejoin:round;stroke-miterlimit:4;stroke-dasharray:none;stroke-dashoffset:0;stroke-opacity:1" />
      <path
         style="opacity:1;fill:#ffffff;fill-opacity:1;stroke:#2d3e9f;stroke-width:3;stroke-linecap:round;stroke-linejoin:round;stroke-miterlimit:4;stroke-dasharray:none;stroke-dashoffset:0;stroke-opacity:1"
         d="m 3841.2312,4036.6392 c -22.8388,9.1689 -32.3869,26.5868 -45.1218,42.0267 l 31.4227,-9.1804 c -26.4008,20.3036 -25.1722,43.1574 -36.5635,64.8464 l 31.8348,-29.0403 -5.2865,28.1974 7.8796,43.8165 9.1107,-52.457 c 0,0 15.9452,58.323 17.2467,44.2303 1.3014,-14.0926 0.097,-70.3443 0.097,-70.3443 l 21.9433,31.8722 -9.7952,-55.6233 11.7796,11.0362 c 0,0 -23.1365,-49.7484 -26.7268,-49.3691 -3.5902,0.3792 -7.8204,-0.011 -7.8204,-0.011 z"
         id="path8729"
         inkscape:connector-curvature="0"
         sodipodi:nodetypes="ccccccccsccccsc" />
      <path
         style="opacity:1;fill:#ffffff;fill-opacity:1;stroke:#2d3e9f;stroke-width:3;stroke-linecap:round;stroke-linejoin:round;stroke-miterlimit:4;stroke-dasharray:none;stroke-dashoffset:0;stroke-opacity:1"
         d="m 3855.053,4027.4854 c 20.1734,-14.0918 39.986,-12.5519 59.8852,-14.7602 l -24.8787,21.2669 c 31.4486,-10.9809 49.9195,2.5485 74.3181,4.8827 l -41.7391,10.7478 41.4335,15.6538 24.5678,17.1607 -56.3461,-8.8019 c 0,0 40.4544,41.7207 27.9382,35.1006 -12.5164,-6.6202 -58.9754,-38.3986 -58.9754,-38.3986 l 14.6938,35.7926 -41.2335,-38.6217 c 3.4789,11.1725 13.4393,42.4953 1.3189,21.7425 l -21.1068,-30.3709 -4.1444,-24.8455 c 2.2816,-2.7962 4.2685,-6.5488 4.2685,-6.5488 z"
         id="path8731"
         inkscape:connector-curvature="0"
         sodipodi:nodetypes="ccccccccsccccccc" />
      <path
         style="opacity:1;fill:#ffffff;fill-opacity:1;stroke:#2d3e9f;stroke-width:3;stroke-linecap:round;stroke-linejoin:round;stroke-miterlimit:4;stroke-dasharray:none;stroke-dashoffset:0;stroke-opacity:1"
         d="m 3867.0315,4042.7345 c 18,4.5378 36,8.6929 54,21"
         id="path8733"
         inkscape:connector-curvature="0"
         sodipodi:nodetypes="cc" />
      <path
         style="opacity:1;fill:#ffffff;fill-opacity:1;stroke:#2d3e9f;stroke-width:3;stroke-linecap:round;stroke-linejoin:round;stroke-miterlimit:4;stroke-dasharray:none;stroke-dashoffset:0;stroke-opacity:1"
         d="m 3852.0315,4046.7345 c -10.1851,17.6667 -16.8127,40.3333 -19,58"
         id="path8735"
         inkscape:connector-curvature="0"
         sodipodi:nodetypes="cc" />
    </g>
    <circle
       style="display:inline;opacity:1;fill:#ffffff;fill-opacity:1;stroke:#2d3e9f;stroke-width:3;stroke-linecap:round;stroke-linejoin:miter;stroke-miterlimit:4;stroke-dasharray:none;stroke-dashoffset:0;stroke-opacity:1"
       id="circle8737"
       cx="105.55392"
       cy="505.98508"
       r="75.5" />
    <g
       transform="translate(-3488.7457,-3113.2498)"
       style="font-style:normal;font-variant:normal;font-weight:500;font-stretch:normal;font-size:19.29931259px;line-height:125%;font-family:'Gotham HTF';-inkscape-font-specification:'Gotham HTF Medium';letter-spacing:0px;word-spacing:0px;display:inline;fill:#2d3e9f;fill-opacity:1;stroke:none;stroke-width:1px;stroke-linecap:butt;stroke-linejoin:miter;stroke-opacity:1"
       id="flowRoot8739">
      <path
         d="m 3570.8069,3609.9017 c 0,0.8492 -0.3087,1.5633 -0.907,2.1615 -0.6176,0.6176 -1.3317,0.9071 -2.1808,0.9071 -0.8492,0 -1.5826,-0.2895 -2.1809,-0.9071 -0.6175,-0.5982 -0.907,-1.3123 -0.907,-2.1615 0,-0.8491 0.2895,-1.5632 0.907,-2.1808 0.5983,-0.5983 1.3317,-0.9071 2.1809,-0.9071 0.8491,0 1.5632,0.3088 2.1808,0.9071 0.5983,0.6176 0.907,1.3317 0.907,2.1808 z m 1.351,0 c 0,-1.2158 -0.4439,-2.258 -1.3124,-3.1265 -0.8684,-0.8684 -1.9106,-1.3123 -3.1264,-1.3123 -1.2352,0 -2.2774,0.4439 -3.1458,1.3123 -0.8685,0.8685 -1.2931,1.9107 -1.2931,3.1265 0,1.2352 0.4246,2.2773 1.2931,3.1265 0.8684,0.8685 1.9299,1.2931 3.1458,1.2931 1.1965,0 2.258,-0.4246 3.1264,-1.2931 0.8685,-0.8492 1.3124,-1.8913 1.3124,-3.1265 z"
         style="font-style:normal;font-variant:normal;font-weight:normal;font-stretch:normal;font-family:'Glacial Indifference';-inkscape-font-specification:'Glacial Indifference';text-align:center;text-anchor:middle;fill:#2d3e9f;fill-opacity:1"
         id="path9680" />
      <path
         d="m 3578.8505,3607.4507 0,-1.7562 c -0.2702,-0.1158 -0.5596,-0.1737 -0.8491,-0.1737 -0.965,0 -1.6598,0.5404 -2.1037,1.5825 l -0.058,0.3474 0,-1.7562 -1.3509,0 0,8.4917 1.3509,0 0,-4.2459 c 0,-0.6948 0.1544,-1.3123 0.4825,-1.872 0.1544,-0.2895 0.3667,-0.5404 0.6176,-0.7334 0.2509,-0.193 0.5597,-0.3088 0.9071,-0.3088 0.3474,0 0.6754,0.1544 1.0035,0.4246 z"
         style="font-style:normal;font-variant:normal;font-weight:normal;font-stretch:normal;font-family:'Glacial Indifference';-inkscape-font-specification:'Glacial Indifference';text-align:center;text-anchor:middle;fill:#2d3e9f;fill-opacity:1"
         id="path9682" />
      <path
         d="m 3581.8525,3602.761 c -0.1737,-0.1544 -0.386,-0.2509 -0.6176,-0.2509 -0.2316,0 -0.4439,0.097 -0.5983,0.2509 -0.1737,0.1737 -0.2509,0.386 -0.2509,0.6176 0,0.2315 0.077,0.4438 0.2509,0.5982 0.1544,0.1737 0.3667,0.2509 0.5983,0.2509 0.2316,0 0.4439,-0.077 0.6176,-0.2509 0.1544,-0.1544 0.2509,-0.3667 0.2509,-0.5982 0,-0.2316 -0.097,-0.4439 -0.2509,-0.6176 z m 0.077,11.4252 0,-8.4917 -1.351,0 0,8.4917 1.351,0 z"
         style="font-style:normal;font-variant:normal;font-weight:normal;font-stretch:normal;font-family:'Glacial Indifference';-inkscape-font-specification:'Glacial Indifference';text-align:center;text-anchor:middle;fill:#2d3e9f;fill-opacity:1"
         id="path9684" />
      <path
         d="m 3591.8007,3609.9403 c 0,0.8299 -0.2895,1.5633 -0.8685,2.1615 -0.579,0.6176 -1.293,0.9264 -2.1229,0.9264 -0.8299,0 -1.544,-0.3088 -2.1229,-0.9264 -0.579,-0.5982 -0.8685,-1.3123 -0.8685,-2.1615 0,-0.8299 0.2895,-1.5439 0.8685,-2.1615 0.5789,-0.6176 1.293,-0.9264 2.1229,-0.9264 0.8299,0 1.5439,0.3088 2.1229,0.9264 0.579,0.6176 0.8685,1.3509 0.8685,2.1615 z m -6.0214,5.4038 -1.3896,0 c 0.1544,0.9071 0.5597,1.6984 1.2545,2.3738 0.8492,0.8685 1.8913,1.2931 3.1072,1.2931 1.1965,0 2.2387,-0.4246 3.1072,-1.2931 0.8491,-0.8491 1.293,-1.8913 1.293,-3.1071 l 0,-8.9163 -1.3509,0 0,1.4281 c -0.077,-0.077 -0.1544,-0.1737 -0.2316,-0.2702 -0.8492,-0.8877 -1.8335,-1.3509 -2.9528,-1.3509 -1.1966,0 -2.1808,0.4632 -2.9914,1.3509 -0.772,0.8878 -1.158,1.9107 -1.158,3.0879 0,1.1966 0.386,2.2194 1.158,3.0879 0.8106,0.9071 1.7948,1.351 2.9914,1.351 1.1579,0 2.1422,-0.4439 2.9528,-1.351 0.077,-0.077 0.1544,-0.1737 0.2316,-0.2509 l 0,1.8335 c 0,0.8491 -0.3088,1.5632 -0.9071,2.1615 -0.5983,0.5983 -1.3123,0.8877 -2.1422,0.8877 -0.8492,0 -1.5633,-0.2894 -2.1615,-0.8877 -0.4246,-0.4246 -0.6948,-0.8878 -0.8106,-1.4282 z"
         style="font-style:normal;font-variant:normal;font-weight:normal;font-stretch:normal;font-family:'Glacial Indifference';-inkscape-font-specification:'Glacial Indifference';text-align:center;text-anchor:middle;fill:#2d3e9f;fill-opacity:1"
         id="path9686" />
      <path
         d="m 3597.3824,3602.761 c -0.1737,-0.1544 -0.386,-0.2509 -0.6176,-0.2509 -0.2316,0 -0.4439,0.097 -0.5983,0.2509 -0.1737,0.1737 -0.2508,0.386 -0.2508,0.6176 0,0.2315 0.077,0.4438 0.2508,0.5982 0.1544,0.1737 0.3667,0.2509 0.5983,0.2509 0.2316,0 0.4439,-0.077 0.6176,-0.2509 0.1544,-0.1544 0.2509,-0.3667 0.2509,-0.5982 0,-0.2316 -0.097,-0.4439 -0.2509,-0.6176 z m 0.077,11.4252 0,-8.4917 -1.351,0 0,8.4917 1.351,0 z"
         style="font-style:normal;font-variant:normal;font-weight:normal;font-stretch:normal;font-family:'Glacial Indifference';-inkscape-font-specification:'Glacial Indifference';text-align:center;text-anchor:middle;fill:#2d3e9f;fill-opacity:1"
         id="path9688" />
      <path
         d="m 3606.327,3614.1862 1.351,0 0,-5.3073 c 0,-0.9843 -0.2702,-1.7756 -0.772,-2.3739 -0.2702,-0.3087 -0.579,-0.5403 -0.9457,-0.714 -0.3859,-0.1737 -0.8684,-0.2702 -1.4667,-0.2702 -0.6176,0 -1.1387,0.1737 -1.6019,0.4825 -0.4438,0.2894 -0.8105,0.6754 -1.0807,1.1579 l 0,-1.4667 -1.351,0 0,8.4917 1.351,0 0,-3.5511 c 0,-1.0808 0.193,-1.9299 0.5983,-2.5668 0.2316,-0.3474 0.521,-0.6369 0.8877,-0.8685 0.3474,-0.2123 0.8299,-0.3281 1.4089,-0.3281 0.579,0 0.9842,0.2123 1.2351,0.5983 0.2509,0.386 0.386,0.8685 0.386,1.4089 l 0,5.3073 z"
         style="font-style:normal;font-variant:normal;font-weight:normal;font-stretch:normal;font-family:'Glacial Indifference';-inkscape-font-specification:'Glacial Indifference';text-align:center;text-anchor:middle;fill:#2d3e9f;fill-opacity:1"
         id="path9690" />
      <path
         d="m 3617.0529,3609.9403 c 0,0.8299 -0.2895,1.5633 -0.8684,2.1615 -0.579,0.6176 -1.2931,0.9264 -2.123,0.9264 -0.8491,0 -1.5632,-0.3088 -2.1422,-0.9264 -0.579,-0.5982 -0.8492,-1.3316 -0.8492,-2.1615 0,-0.8106 0.2702,-1.5439 0.8492,-2.1615 0.579,-0.6176 1.2931,-0.9264 2.1422,-0.9264 0.8299,0 1.544,0.3088 2.123,0.9264 0.5789,0.6176 0.8684,1.3509 0.8684,2.1615 z m 1.351,4.2459 0,-8.4917 -1.351,0 0,1.4667 c -0.077,-0.1158 -0.1737,-0.2123 -0.2509,-0.3088 -0.8105,-0.8877 -1.7948,-1.3509 -2.9528,-1.3509 -1.1772,0 -2.1615,0.4632 -2.9721,1.3509 -0.7719,0.8878 -1.1579,1.9107 -1.1579,3.0879 0,1.1966 0.386,2.2194 1.1579,3.0879 0.8106,0.9071 1.7949,1.351 2.9721,1.351 1.158,0 2.1423,-0.4439 2.9528,-1.351 0.077,-0.077 0.1737,-0.1737 0.2509,-0.2895 l 0,1.4475 1.351,0 z"
         style="font-style:normal;font-variant:normal;font-weight:normal;font-stretch:normal;font-family:'Glacial Indifference';-inkscape-font-specification:'Glacial Indifference';text-align:center;text-anchor:middle;fill:#2d3e9f;fill-opacity:1"
         id="path9692" />
      <path
         d="m 3622.6181,3614.1862 0,-14.4745 -1.351,0 0,14.4745 1.351,0 z"
         style="font-style:normal;font-variant:normal;font-weight:normal;font-stretch:normal;font-family:'Glacial Indifference';-inkscape-font-specification:'Glacial Indifference';text-align:center;text-anchor:middle;fill:#2d3e9f;fill-opacity:1"
         id="path9694" />
      <path
         d="m 3559.4739,3633.8714 c 0,-1.158 -0.4632,-2.1616 -1.351,-3.03 -0.8684,-0.8299 -1.9106,-1.2545 -3.0879,-1.2545 -1.2351,0 -2.2773,0.4439 -3.1458,1.3124 -0.8684,0.8684 -1.293,1.9106 -1.293,3.1264 0,1.2352 0.4246,2.2774 1.293,3.1265 0.4053,0.4053 0.8685,0.7141 1.4089,0.9457 0.5404,0.2316 1.1773,0.3474 1.9299,0.3474 0.7527,0 1.4861,-0.2316 2.2194,-0.6948 0.7334,-0.4632 1.2738,-1.1193 1.6405,-1.9299 l -1.544,0 c -0.3087,0.4053 -0.6754,0.7141 -1.1193,0.9456 -0.4439,0.2316 -0.9071,0.3281 -1.3896,0.3281 -0.7333,0 -1.3895,-0.2316 -1.9685,-0.714 -0.579,-0.4632 -0.9457,-1.0615 -1.0615,-1.7949 l 7.4689,0 0,-0.714 z m -1.4282,-0.4439 -6.0214,0 c 0.077,-0.3474 0.2123,-0.6755 0.4053,-0.9843 0.6176,-1.0036 1.4861,-1.5053 2.6054,-1.5053 0.7141,0 1.351,0.2315 1.9107,0.6947 0.5789,0.4825 0.9263,1.0808 1.1,1.7949 z"
         style="font-style:normal;font-variant:normal;font-weight:normal;font-stretch:normal;font-family:'Glacial Indifference';-inkscape-font-specification:'Glacial Indifference';text-align:center;text-anchor:middle;fill:#2d3e9f;fill-opacity:1"
         id="path9696" />
      <path
         d="m 3566.6903,3638.3102 1.7176,0 -2.972,-4.2459 2.972,-4.2458 -1.7176,0 -2.1229,3.2616 -2.1229,-3.2616 -1.7177,0 2.9721,4.2265 -2.9721,4.2652 1.7177,0 2.1229,-3.3002 2.1229,3.3002 z"
         style="font-style:normal;font-variant:normal;font-weight:normal;font-stretch:normal;font-family:'Glacial Indifference';-inkscape-font-specification:'Glacial Indifference';text-align:center;text-anchor:middle;fill:#2d3e9f;fill-opacity:1"
         id="path9698" />
      <path
         d="m 3571.6747,3643.135 0,-6.2723 c 0.058,0.1158 0.1544,0.2123 0.2315,0.2895 0.8106,0.9071 1.7949,1.351 2.9721,1.351 1.158,0 2.1423,-0.4439 2.9528,-1.351 0.772,-0.8684 1.1773,-1.8913 1.1773,-3.0879 0,-1.1772 -0.4053,-2.2001 -1.1773,-3.0878 -0.8105,-0.8878 -1.7948,-1.351 -2.9528,-1.351 -1.1772,0 -2.1615,0.4632 -2.9721,1.351 -0.077,0.096 -0.1736,0.1929 -0.2315,0.3087 l 0,-1.4667 -1.351,0 0,13.3165 1.351,0 z m 5.9827,-9.0707 c 0,0.8299 -0.2894,1.5633 -0.8684,2.1616 -0.579,0.6175 -1.2931,0.9263 -2.1229,0.9263 -0.8492,0 -1.5633,-0.3088 -2.1423,-0.9263 -0.579,-0.5983 -0.8491,-1.3317 -0.8491,-2.1616 0,-0.8105 0.2701,-1.5439 0.8491,-2.1615 0.579,-0.6176 1.2931,-0.9263 2.1423,-0.9263 0.8298,0 1.5439,0.3087 2.1229,0.9263 0.579,0.6176 0.8684,1.351 0.8684,2.1615 z"
         style="font-style:normal;font-variant:normal;font-weight:normal;font-stretch:normal;font-family:'Glacial Indifference';-inkscape-font-specification:'Glacial Indifference';text-align:center;text-anchor:middle;fill:#2d3e9f;fill-opacity:1"
         id="path9700" />
      <path
         d="m 3585.6543,3631.5747 0,-1.7562 c -0.2702,-0.1158 -0.5597,-0.1737 -0.8492,-0.1737 -0.9649,0 -1.6597,0.5404 -2.1036,1.5825 l -0.058,0.3474 0,-1.7562 -1.3509,0 0,8.4917 1.3509,0 0,-4.2459 c 0,-0.6947 0.1544,-1.3123 0.4825,-1.872 0.1544,-0.2895 0.3667,-0.5404 0.6176,-0.7334 0.2509,-0.193 0.5596,-0.3088 0.907,-0.3088 0.3474,0 0.6755,0.1544 1.0036,0.4246 z"
         style="font-style:normal;font-variant:normal;font-weight:normal;font-stretch:normal;font-family:'Glacial Indifference';-inkscape-font-specification:'Glacial Indifference';text-align:center;text-anchor:middle;fill:#2d3e9f;fill-opacity:1"
         id="path9702" />
      <path
         d="m 3595.5847,3633.8714 c 0,-1.158 -0.4632,-2.1616 -1.351,-3.03 -0.8684,-0.8299 -1.9106,-1.2545 -3.0878,-1.2545 -1.2352,0 -2.2774,0.4439 -3.1458,1.3124 -0.8685,0.8684 -1.2931,1.9106 -1.2931,3.1264 0,1.2352 0.4246,2.2774 1.2931,3.1265 0.4053,0.4053 0.8684,0.7141 1.4088,0.9457 0.5404,0.2316 1.1773,0.3474 1.9299,0.3474 0.7527,0 1.4861,-0.2316 2.2195,-0.6948 0.7333,-0.4632 1.2737,-1.1193 1.6404,-1.9299 l -1.5439,0 c -0.3088,0.4053 -0.6755,0.7141 -1.1194,0.9456 -0.4439,0.2316 -0.9071,0.3281 -1.3895,0.3281 -0.7334,0 -1.3896,-0.2316 -1.9686,-0.714 -0.579,-0.4632 -0.9456,-1.0615 -1.0614,-1.7949 l 7.4688,0 0,-0.714 z m -1.4282,-0.4439 -6.0213,0 c 0.077,-0.3474 0.2123,-0.6755 0.4052,-0.9843 0.6176,-1.0036 1.4861,-1.5053 2.6055,-1.5053 0.714,0 1.3509,0.2315 1.9106,0.6947 0.579,0.4825 0.9264,1.0808 1.1,1.7949 z"
         style="font-style:normal;font-variant:normal;font-weight:normal;font-stretch:normal;font-family:'Glacial Indifference';-inkscape-font-specification:'Glacial Indifference';text-align:center;text-anchor:middle;fill:#2d3e9f;fill-opacity:1"
         id="path9704" />
      <path
         d="m 3599.0185,3637.1136 c -0.3281,-0.2316 -0.579,-0.6175 -0.7141,-1.1772 l -1.4282,0 c 0.2895,1.7562 1.4089,2.6247 3.3774,2.6247 0.4632,0 0.8878,-0.039 1.2931,-0.1544 0.4053,-0.1158 0.7527,-0.2702 1.0807,-0.4825 0.6562,-0.4439 0.9843,-1.1194 0.9843,-2.0264 0,-0.9264 -0.4246,-1.5826 -1.3123,-2.0072 -0.3667,-0.1736 -0.772,-0.3087 -1.2159,-0.4052 -0.4246,-0.097 -0.8299,-0.2123 -1.1966,-0.3281 -0.3859,-0.1158 -0.6947,-0.2702 -0.9456,-0.4439 -0.2509,-0.1737 -0.386,-0.4439 -0.386,-0.8299 0,-0.386 0.1544,-0.6755 0.4632,-0.8491 0.3088,-0.193 0.6754,-0.2895 1.0807,-0.2895 0.4246,0 0.7913,0.096 1.0808,0.2509 0.2895,0.1543 0.5211,0.4631 0.6562,0.9263 l 1.4474,0 c -0.1737,-0.8492 -0.5404,-1.4474 -1.0807,-1.7755 -0.5597,-0.3474 -1.2352,-0.5211 -2.0651,-0.5211 -0.8105,0 -1.5246,0.2316 -2.1229,0.6562 -0.579,0.4439 -0.8878,1.0807 -0.8878,1.9299 0,0.4053 0.1158,0.772 0.3281,1.0808 0.2316,0.3281 0.5597,0.579 0.9843,0.7719 0.386,0.1737 0.7913,0.3088 1.2158,0.4246 0.4246,0.097 0.8299,0.2123 1.2159,0.3281 0.8685,0.2895 1.3124,0.7141 1.3124,1.2545 0,0.9263 -0.6176,1.3702 -1.8528,1.3702 -0.5211,0 -0.9649,-0.096 -1.3123,-0.3281 z"
         style="font-style:normal;font-variant:normal;font-weight:normal;font-stretch:normal;font-family:'Glacial Indifference';-inkscape-font-specification:'Glacial Indifference';text-align:center;text-anchor:middle;fill:#2d3e9f;fill-opacity:1"
         id="path9706" />
      <path
         d="m 3606.7457,3637.1136 c -0.3281,-0.2316 -0.5789,-0.6175 -0.714,-1.1772 l -1.4282,0 c 0.2895,1.7562 1.4089,2.6247 3.3774,2.6247 0.4632,0 0.8878,-0.039 1.293,-0.1544 0.4053,-0.1158 0.7527,-0.2702 1.0808,-0.4825 0.6562,-0.4439 0.9843,-1.1194 0.9843,-2.0264 0,-0.9264 -0.4246,-1.5826 -1.3124,-2.0072 -0.3667,-0.1736 -0.772,-0.3087 -1.2158,-0.4052 -0.4246,-0.097 -0.8299,-0.2123 -1.1966,-0.3281 -0.386,-0.1158 -0.6948,-0.2702 -0.9457,-0.4439 -0.2509,-0.1737 -0.386,-0.4439 -0.386,-0.8299 0,-0.386 0.1544,-0.6755 0.4632,-0.8491 0.3088,-0.193 0.6755,-0.2895 1.0808,-0.2895 0.4246,0 0.7913,0.096 1.0808,0.2509 0.2894,0.1543 0.521,0.4631 0.6561,0.9263 l 1.4475,0 c -0.1737,-0.8492 -0.5404,-1.4474 -1.0808,-1.7755 -0.5597,-0.3474 -1.2351,-0.5211 -2.065,-0.5211 -0.8106,0 -1.5247,0.2316 -2.1229,0.6562 -0.579,0.4439 -0.8878,1.0807 -0.8878,1.9299 0,0.4053 0.1158,0.772 0.3281,1.0808 0.2316,0.3281 0.5597,0.579 0.9843,0.7719 0.3859,0.1737 0.7912,0.3088 1.2158,0.4246 0.4246,0.097 0.8299,0.2123 1.2159,0.3281 0.8684,0.2895 1.3123,0.7141 1.3123,1.2545 0,0.9263 -0.6176,1.3702 -1.8527,1.3702 -0.5211,0 -0.965,-0.096 -1.3124,-0.3281 z"
         style="font-style:normal;font-variant:normal;font-weight:normal;font-stretch:normal;font-family:'Glacial Indifference';-inkscape-font-specification:'Glacial Indifference';text-align:center;text-anchor:middle;fill:#2d3e9f;fill-opacity:1"
         id="path9708" />
      <path
         d="m 3614.6274,3626.885 c -0.1737,-0.1544 -0.386,-0.2509 -0.6176,-0.2509 -0.2316,0 -0.4439,0.096 -0.5983,0.2509 -0.1737,0.1737 -0.2509,0.386 -0.2509,0.6176 0,0.2316 0.077,0.4439 0.2509,0.5983 0.1544,0.1736 0.3667,0.2508 0.5983,0.2508 0.2316,0 0.4439,-0.077 0.6176,-0.2508 0.1544,-0.1544 0.2509,-0.3667 0.2509,-0.5983 0,-0.2316 -0.096,-0.4439 -0.2509,-0.6176 z m 0.077,11.4252 0,-8.4917 -1.351,0 0,8.4917 1.351,0 z"
         style="font-style:normal;font-variant:normal;font-weight:normal;font-stretch:normal;font-family:'Glacial Indifference';-inkscape-font-specification:'Glacial Indifference';text-align:center;text-anchor:middle;fill:#2d3e9f;fill-opacity:1"
         id="path9710" />
      <path
         d="m 3624.6528,3634.0257 c 0,0.8492 -0.3088,1.5633 -0.9071,2.1616 -0.6176,0.6175 -1.3316,0.907 -2.1808,0.907 -0.8492,0 -1.5825,-0.2895 -2.1808,-0.907 -0.6176,-0.5983 -0.9071,-1.3124 -0.9071,-2.1616 0,-0.8491 0.2895,-1.5632 0.9071,-2.1808 0.5983,-0.5983 1.3316,-0.907 2.1808,-0.907 0.8492,0 1.5632,0.3087 2.1808,0.907 0.5983,0.6176 0.9071,1.3317 0.9071,2.1808 z m 1.3509,0 c 0,-1.2158 -0.4438,-2.258 -1.3123,-3.1264 -0.8685,-0.8685 -1.9106,-1.3124 -3.1265,-1.3124 -1.2352,0 -2.2773,0.4439 -3.1458,1.3124 -0.8685,0.8684 -1.293,1.9106 -1.293,3.1264 0,1.2352 0.4245,2.2774 1.293,3.1265 0.8685,0.8685 1.9299,1.2931 3.1458,1.2931 1.1966,0 2.258,-0.4246 3.1265,-1.2931 0.8685,-0.8491 1.3123,-1.8913 1.3123,-3.1265 z"
         style="font-style:normal;font-variant:normal;font-weight:normal;font-stretch:normal;font-family:'Glacial Indifference';-inkscape-font-specification:'Glacial Indifference';text-align:center;text-anchor:middle;fill:#2d3e9f;fill-opacity:1"
         id="path9712" />
      <path
         d="m 3634.2017,3638.3102 1.351,0 0,-5.3073 c 0,-0.9843 -0.2702,-1.7756 -0.772,-2.3738 -0.2702,-0.3088 -0.579,-0.5404 -0.9457,-0.7141 -0.386,-0.1737 -0.8684,-0.2702 -1.4667,-0.2702 -0.6176,0 -1.1387,0.1737 -1.6019,0.4825 -0.4438,0.2895 -0.8105,0.6755 -1.0807,1.1579 l 0,-1.4667 -1.351,0 0,8.4917 1.351,0 0,-3.5511 c 0,-1.0807 0.193,-1.9299 0.5983,-2.5668 0.2316,-0.3474 0.521,-0.6369 0.8877,-0.8685 0.3474,-0.2123 0.8299,-0.328 1.4089,-0.328 0.579,0 0.9842,0.2122 1.2351,0.5982 0.2509,0.386 0.386,0.8685 0.386,1.4089 l 0,5.3073 z"
         style="font-style:normal;font-variant:normal;font-weight:normal;font-stretch:normal;font-family:'Glacial Indifference';-inkscape-font-specification:'Glacial Indifference';text-align:center;text-anchor:middle;fill:#2d3e9f;fill-opacity:1"
         id="path9714" />
    </g>
    <path
       id="path8751"
       style="display:inline;opacity:1;fill:none;fill-opacity:1;stroke:#2d3e9f;stroke-width:3;stroke-linecap:round;stroke-linejoin:miter;stroke-miterlimit:4;stroke-dasharray:none;stroke-dashoffset:0;stroke-opacity:1"
       sodipodi:type="arc"
       sodipodi:cx="105.55392"
       sodipodi:cy="505.98508"
       sodipodi:rx="62"
       sodipodi:ry="62"
       sodipodi:start="5.2325136"
       sodipodi:end="5.6590695"
       sodipodi:open="true"
       d="m 136.36719,452.18413 a 62,62 0 0 1 19.4985,17.56939" />
    <path
       style="display:inline;opacity:1;fill:none;fill-opacity:1;stroke:#2d3e9f;stroke-width:3;stroke-linecap:round;stroke-linejoin:miter;stroke-miterlimit:4;stroke-dasharray:none;stroke-dashoffset:0;stroke-opacity:1"
       id="path8753"
       sodipodi:type="arc"
       sodipodi:cx="105.55392"
       sodipodi:cy="505.98508"
       sodipodi:rx="54.5"
       sodipodi:ry="54.5"
       sodipodi:start="5.142707"
       sodipodi:end="5.6185767"
       sodipodi:open="true"
       d="m 128.28913,456.45367 a 54.5,54.5 0 0 1 20.16491,15.91847" />
    <path
       d="m 138.60044,472.05462 a 56,56 0 0 1 16.72333,-13.5466"
       sodipodi:end="4.224915"
       sodipodi:start="3.838195"
       sodipodi:ry="56"
       sodipodi:rx="56"
       sodipodi:cy="507.98508"
       sodipodi:cx="181.55392"
       sodipodi:type="arc"
       id="path8755"
       style="display:inline;opacity:1;fill:none;fill-opacity:1;stroke:#2d3e9f;stroke-width:3;stroke-linecap:round;stroke-linejoin:miter;stroke-miterlimit:4;stroke-dasharray:none;stroke-dashoffset:0;stroke-opacity:1"
       sodipodi:open="true" />
    <path
       sodipodi:open="true"
       style="display:inline;opacity:1;fill:none;fill-opacity:1;stroke:#2d3e9f;stroke-width:3;stroke-linecap:round;stroke-linejoin:miter;stroke-miterlimit:4;stroke-dasharray:none;stroke-dashoffset:0;stroke-opacity:1"
       id="path8757"
       sodipodi:type="arc"
       sodipodi:cx="181.55392"
       sodipodi:cy="507.98508"
       sodipodi:rx="66"
       sodipodi:ry="66"
       sodipodi:start="3.838195"
       sodipodi:end="4.1593586"
       d="m 130.93017,465.63847 a 66,66 0 0 1 15.95605,-13.81521" />
  </g>
</svg>
