<?xml version="1.0" encoding="UTF-8" standalone="no"?>
<!-- Created with Inkscape (http://www.inkscape.org/) -->

<svg
   xmlns:dc="http://purl.org/dc/elements/1.1/"
   xmlns:cc="http://creativecommons.org/ns#"
   xmlns:rdf="http://www.w3.org/1999/02/22-rdf-syntax-ns#"
   xmlns:svg="http://www.w3.org/2000/svg"
   xmlns="http://www.w3.org/2000/svg"
   xmlns:sodipodi="http://sodipodi.sourceforge.net/DTD/sodipodi-0.dtd"
   xmlns:inkscape="http://www.inkscape.org/namespaces/inkscape"
   version="1.1"
   id="svg2"
   xml:space="preserve"
   width="1058.1484"
   height="595.20856"
   viewBox="0 0 1058.1484 595.20856"
   sodipodi:docname="schema-public-domain.svg"
   inkscape:version="0.91 r13725"><metadata
     id="metadata8"><rdf:RDF><cc:Work
         rdf:about=""><dc:format>image/svg+xml</dc:format><dc:type
           rdf:resource="http://purl.org/dc/dcmitype/StillImage" /><dc:title /></cc:Work></rdf:RDF></metadata><defs
     id="defs6" /><sodipodi:namedview
     pagecolor="#ffffff"
     bordercolor="#666666"
     borderopacity="1"
     objecttolerance="10"
     gridtolerance="10"
     guidetolerance="10"
     inkscape:pageopacity="0"
     inkscape:pageshadow="2"
     inkscape:window-width="1440"
     inkscape:window-height="856"
     id="namedview4"
     showgrid="false"
     inkscape:zoom="2.2429409"
     inkscape:cx="434.77788"
     inkscape:cy="340.05508"
     inkscape:window-x="21"
     inkscape:window-y="0"
     inkscape:window-maximized="0"
     inkscape:current-layer="g12" /><g
     id="g10"
     inkscape:groupmode="layer"
     inkscape:label="PUBLIC-DOMAIN-TALK-creative-work-BW"
     transform="matrix(1.3333333,0,0,-1.3333333,0,595.20854)"><g
       id="g12"><path
         d="M 0.14239638,193.08075 7.316,195.9224 c 1.25,0.492 2.653,-0.114 3.149,-1.364 l 23.582,-59.543 c 0.496,-1.25 -0.113,-2.652 -1.359,-3.144 L 0.24158078,119.01952"
         style="fill:none;stroke:#2d3e9f;stroke-width:3.20000005;stroke-linecap:round;stroke-linejoin:miter;stroke-miterlimit:4;stroke-dasharray:none;stroke-opacity:1"
         id="path16"
         inkscape:connector-curvature="0"
         sodipodi:nodetypes="cccccc" /><g
         id="g18"
         transform="matrix(1,0,0,-1,0,446.4064)"><path
           d="M 136.37448,0.19125243 138.637,48.438 c 0.066,1.343 -0.965,2.472 -2.305,2.535 l -49.586,2.328 c -1.344,0.062 -2.473,-0.969 -2.535,-2.309 L 81.835635,0.3365409"
           style="fill:none;stroke:#2d3e9f;stroke-width:3.20000005;stroke-linecap:round;stroke-linejoin:miter;stroke-miterlimit:4;stroke-dasharray:none;stroke-opacity:1"
           id="path20"
           inkscape:connector-curvature="0"
           sodipodi:nodetypes="cccccc" /></g><g
         id="g80"
         transform="matrix(1,0,0,-1,0,446.4064)"><path
           d="M 544.145,274.918 C 518.469,346.312 445.305,389.027 370.512,376.285 295.719,363.547 240.824,299.016 240.234,223.148 239.645,147.281 293.535,81.906 368.121,68.008 c 74.586,-13.899 148.406,27.676 175.184,98.66"
           style="fill:none;stroke:#2d3e9f;stroke-width:3.20000005;stroke-linecap:round;stroke-linejoin:miter;stroke-miterlimit:4;stroke-dasharray:19.2, 19.19999999999999929;stroke-dashoffset:0;stroke-opacity:1"
           id="path82"
           inkscape:connector-curvature="0" /></g><g
         id="g84"
         transform="matrix(1,0,0,-1,0,446.4064)"><path
           d="M 545.855,221.934 H 395.207"
           style="fill:none;stroke:#2d3e9f;stroke-width:3.20000005;stroke-linecap:round;stroke-linejoin:miter;stroke-miterlimit:4;stroke-dasharray:none;stroke-opacity:1"
           id="path86"
           inkscape:connector-curvature="0" /></g><g
         id="g88"
         transform="matrix(1,0,0,-1,0,446.4064)"><path
           d="m 553.242,221.934 -11.074,6.398 v -12.797 z"
           style="fill:#2d3e9f;fill-opacity:1;fill-rule:evenodd;stroke:#2d3e9f;stroke-width:1.60000002;stroke-linecap:butt;stroke-linejoin:miter;stroke-miterlimit:4;stroke-dasharray:none;stroke-opacity:1"
           id="path90"
           inkscape:connector-curvature="0" /></g><g
         id="g92"
         transform="matrix(1,0,0,-1,0,446.4064)"><path
           d="m 395.602,215.594 v 12.117"
           style="fill:none;stroke:#2d3e9f;stroke-width:3.20000005;stroke-linecap:round;stroke-linejoin:miter;stroke-miterlimit:4;stroke-dasharray:none;stroke-opacity:1"
           id="path94"
           inkscape:connector-curvature="0" /></g><g
         id="g96"
         transform="matrix(1,0,0,-1,0,446.4064)"><path
           d="m 498.715,215.594 v 12.117"
           style="fill:none;stroke:#2d3e9f;stroke-width:3.20000005;stroke-linecap:round;stroke-linejoin:miter;stroke-miterlimit:4;stroke-dasharray:none;stroke-opacity:1"
           id="path98"
           inkscape:connector-curvature="0" /></g><g
         id="g100"
         transform="matrix(1,0,0,-1,0,446.4064)"><path
           d="m 437.824,215.594 v 12.117"
           style="fill:none;stroke:#2d3e9f;stroke-width:3.20000005;stroke-linecap:round;stroke-linejoin:miter;stroke-miterlimit:4;stroke-dasharray:none;stroke-opacity:1"
           id="path102"
           inkscape:connector-curvature="0" /></g><g
         id="g104"
         transform="matrix(1,0,0,-1,0,446.4064)"><path
           d="m 498.301,188.754 v 12.551"
           style="fill:none;stroke:#2d3e9f;stroke-width:2.4000001;stroke-linecap:round;stroke-linejoin:miter;stroke-miterlimit:4;stroke-dasharray:none;stroke-opacity:1"
           id="path106"
           inkscape:connector-curvature="0" /></g><g
         id="g108"
         transform="matrix(1,0,0,-1,0,446.4064)"><path
           d="m 502.43,192.84 h -8.262"
           style="fill:none;stroke:#2d3e9f;stroke-width:2.4000001;stroke-linecap:round;stroke-linejoin:miter;stroke-miterlimit:4;stroke-dasharray:none;stroke-opacity:1"
           id="path110"
           inkscape:connector-curvature="0" /></g><g
         id="g112"
         transform="matrix(1,0,0,-1,0,446.4064)"
         style="fill:none"><path
           d="m 652.543,191.957 47.82,13.313 c 1.297,0.359 2.047,1.691 1.688,2.984 l -17.172,61.699 c -0.359,1.293 -1.691,2.047 -2.984,1.688 L 634.07,258.328 c -1.293,-0.359 -2.047,-1.691 -1.683,-2.984 l 17.172,-61.699 c 0.359,-1.293 1.691,-2.047 2.984,-1.688 z"
           style="fill:none;fill-opacity:1;fill-rule:nonzero;stroke:#2d3e9f;stroke-width:3.20000005;stroke-linecap:round;stroke-linejoin:miter;stroke-miterlimit:4;stroke-dasharray:none;stroke-opacity:1"
           id="path114"
           inkscape:connector-curvature="0" /></g><g
         id="g120"
         transform="matrix(1,0,0,-1,0,446.4064)"><path
           d="M 0.64523093,398.49395 C 14.940635,389.46481 31.329499,382.45359 49.738,378.508 c 63.00166,-11.74365 125.45464,16.09583 159.47493,67.80968"
           style="fill:none;stroke:#2d3e9f;stroke-width:3.20000005;stroke-linecap:round;stroke-linejoin:miter;stroke-miterlimit:4;stroke-dasharray:19.2, 19.19999999999999929;stroke-dashoffset:0;stroke-opacity:1"
           id="path122"
           inkscape:connector-curvature="0"
           sodipodi:nodetypes="ccc" /></g><g
         id="g124"
         transform="matrix(1,0,0,-1,0,446.4064)"><path
           d="M 793.44381,335.76896 759.766,338.602 c -1.34,0.113 -2.508,-0.875 -2.618,-2.215 l -5.367,-63.817 c -0.113,-1.34 0.871,-2.508 2.211,-2.621 l 39.64948,-3.33452"
           style="fill:none;stroke:#2d3e9f;stroke-width:3.20000005;stroke-linecap:round;stroke-linejoin:miter;stroke-miterlimit:4;stroke-dasharray:none;stroke-opacity:1"
           id="path126"
           inkscape:connector-curvature="0"
           sodipodi:nodetypes="cccccc" /></g><g
         id="g128"
         transform="matrix(1,0,0,-1,0,446.4064)"><path
           d="M 533.77471,446.7605 527.098,421.508 c -0.344,-1.297 0.425,-2.621 1.722,-2.965 l 47.992,-12.688 c 1.297,-0.343 2.622,0.426 2.965,1.723 l 10.29557,38.93966"
           style="fill:none;stroke:#2d3e9f;stroke-width:3.20000005;stroke-linecap:round;stroke-linejoin:miter;stroke-miterlimit:4;stroke-dasharray:none;stroke-opacity:1"
           id="path130"
           inkscape:connector-curvature="0"
           sodipodi:nodetypes="cccccc" /></g><g
         id="g132"
         transform="matrix(1,0,0,-1,0,446.4064)"><path
           d="M 794.13515,240.48932 780.324,235.379 c -1.262,-0.465 -1.898,-1.856 -1.433,-3.113 l 15.41564,-41.66911"
           style="fill:none;stroke:#2d3e9f;stroke-width:3.20000005;stroke-linecap:round;stroke-linejoin:miter;stroke-miterlimit:4;stroke-dasharray:none;stroke-opacity:1"
           id="path134"
           inkscape:connector-curvature="0"
           sodipodi:nodetypes="cccc" /></g><g
         id="g160"
         transform="matrix(1,0,0,-1,0,446.4064)"><path
           d="m 279.969,323.164 c 68.051,-34.309 169.855,-30.984 234.144,0.852"
           style="fill:none;stroke:#2d3e9f;stroke-width:3.20000005;stroke-linecap:round;stroke-linejoin:miter;stroke-miterlimit:4;stroke-dasharray:19.2, 19.19999999999999929;stroke-dashoffset:0;stroke-opacity:1"
           id="path162"
           inkscape:connector-curvature="0" /></g><g
         id="g186"
         transform="matrix(1,0,0,-1,0,446.4064)"><path
           d="m 335.207,246.18 47.824,13.308 c 1.293,0.364 2.047,1.696 1.684,2.989 l -17.168,61.699 c -0.363,1.293 -1.695,2.047 -2.988,1.683 l -47.821,-13.308 c -1.293,-0.36 -2.047,-1.692 -1.687,-2.985 l 17.172,-61.699 c 0.359,-1.293 1.691,-2.047 2.984,-1.687 z"
           style="fill:none;fill-opacity:1;fill-rule:nonzero;stroke:#2d3e9f;stroke-width:3.20000005;stroke-linecap:round;stroke-linejoin:miter;stroke-miterlimit:4;stroke-dasharray:none;stroke-opacity:1"
           id="path188"
           inkscape:connector-curvature="0" /></g><g
         id="g190"
         transform="matrix(1,0,0,-1,0,446.4064)"><path
           d="M 46.99005,0.72376001 37.484,34.879 c -0.363,1.293 -1.691,2.047 -2.988,1.687 L 0.76564316,27.176236"
           style="fill:none;stroke:#2d3e9f;stroke-width:3.20000005;stroke-linecap:round;stroke-linejoin:miter;stroke-miterlimit:4;stroke-dasharray:none;stroke-opacity:1"
           id="path192"
           inkscape:connector-curvature="0"
           sodipodi:nodetypes="cccc" /></g><g
         id="g194"
         transform="matrix(1,0,0,-1,0,446.4064)"><path
           d="M 793.54037,74.67541 C 735.30057,78.517563 679.89847,49.460588 649.76453,0.13673055"
           style="fill:none;stroke:#2d3e9f;stroke-width:3.20000005;stroke-linecap:round;stroke-linejoin:miter;stroke-miterlimit:4;stroke-dasharray:19.2, 19.19999999999999929;stroke-dashoffset:0;stroke-opacity:1"
           id="path196"
           inkscape:connector-curvature="0"
           sodipodi:nodetypes="cc" /></g><path
         style="fill:none;stroke:none;stroke-width:0.75px;stroke-linecap:butt;stroke-linejoin:miter;stroke-opacity:1"
         d="m 412.62792,397.91508 c -56.39135,1.42729 -112.10195,-5.30233 -162.50987,-75.57043"
         id="path6795"
         inkscape:connector-curvature="0"
         sodipodi:nodetypes="cc" /><g
         aria-label="public domain"
         transform="matrix(-0.78134418,-0.62410036,-0.62410036,0.78134418,843.12824,291.28536)"
         style="font-style:normal;font-variant:normal;font-weight:normal;font-stretch:normal;font-size:20px;line-height:2.25;font-family:Montserrat;-inkscape-font-specification:'Montserrat, Normal';font-variant-ligatures:normal;font-variant-caps:normal;font-variant-numeric:normal;font-feature-settings:normal;text-align:start;letter-spacing:0px;word-spacing:0px;writing-mode:lr-tb;text-anchor:start;fill:#2d3e9f;fill-opacity:1;stroke:none;stroke-width:0.99999994"
         id="text6801"><path
           d="m 409.65835,392.99058 0.0915,6.49936 c -0.0617,-0.11915 -0.16308,-0.21773 -0.2442,-0.2966 -0.85314,-0.92808 -1.87951,-1.37369 -3.09939,-1.35652 -1.19988,0.0169 -2.21331,0.49119 -3.04,1.44292 -0.78726,0.91117 -1.1923,1.97697 -1.17485,3.21685 0.0172,1.21988 0.45204,2.27386 1.26491,3.18252 0.85286,0.90808 1.87951,1.37368 3.07939,1.3568 1.21988,-0.0172 2.23303,-0.51147 3.06,-1.4432 0.0786,-0.10112 0.17717,-0.20251 0.23547,-0.32335 l 0.0214,1.51985 1.39986,-0.0197 -0.19418,-13.79863 z m -6.06712,9.48631 c -0.0121,-0.85992 0.27718,-1.62406 0.86839,-2.25244 0.59094,-0.64838 1.32636,-0.97876 2.18628,-0.99086 0.87991,-0.0124 1.62434,0.29717 2.23329,0.92866 0.60866,0.6115 0.89933,1.36748 0.91143,2.2274 0.0118,0.83992 -0.25746,1.60378 -0.8484,2.25216 -0.59093,0.64838 -1.32636,0.97876 -2.20627,0.99114 -0.85991,0.0121 -1.60434,-0.29745 -2.21329,-0.92895 -0.60895,-0.63149 -0.91961,-1.38719 -0.93143,-2.22711 z"
           style="font-style:normal;font-variant:normal;font-weight:normal;font-stretch:normal;font-family:'Glacial Indifference';-inkscape-font-specification:'Glacial Indifference';stroke-width:0.99999994;fill:#2d3e9f;fill-opacity:1"
           id="path7008" /><path
           d="m 393.62432,399.51665 0.019,-1.49988 -1.39989,-0.0177 -0.11148,8.7993 1.39989,0.0177 0.0466,-3.6797 c 0.0157,-1.2399 0.2676,-2.17679 0.73643,-2.8709 0.44858,-0.67438 1.23283,-1.00447 2.31274,-0.99079 0.59995,0.008 1.03738,0.21316 1.29229,0.61643 0.25492,0.40326 0.36857,0.90474 0.36122,1.48469 l -0.0697,5.49956 1.39989,0.0177 0.0697,-5.49955 c 0.0129,-1.01992 -0.23641,-1.86315 -0.78801,-2.53019 -0.55185,-0.64704 -1.30773,-0.97664 -2.30765,-0.98931 -1.2999,-0.0165 -2.28691,0.53107 -2.96105,1.64262 z"
           style="font-style:normal;font-variant:normal;font-weight:normal;font-stretch:normal;font-family:'Glacial Indifference';-inkscape-font-specification:'Glacial Indifference';stroke-width:0.99999994;fill:#2d3e9f;fill-opacity:1"
           id="path7010" /><path
           d="m 388.12978,397.86681 -0.0717,1.49828 c -0.0542,-0.12273 -0.14929,-0.2274 -0.22538,-0.31114 -0.79408,-0.97909 -1.79092,-1.48735 -3.00952,-1.54569 -1.19863,-0.0574 -2.23946,0.35331 -3.12345,1.25206 -0.84213,0.86071 -1.31234,1.89941 -1.37164,3.13799 -0.0584,1.21861 0.31048,2.29748 1.06557,3.25469 0.79504,0.95911 1.79092,1.48735 2.98954,1.54473 1.21861,0.0584 2.2604,-0.37232 3.14343,-1.2511 0.0847,-0.0961 0.18936,-0.19116 0.25503,-0.30815 l -0.36919,7.71116 1.39839,0.067 0.71736,-14.98284 z m -6.40333,4.09846 c 0.0411,-0.85902 0.37713,-1.6038 1.00609,-2.1944 0.62992,-0.61057 1.38438,-0.89482 2.2434,-0.85369 0.87899,0.0421 1.60284,0.39711 2.17155,1.06507 0.56966,0.64798 0.81299,1.4205 0.77186,2.27952 -0.0402,0.83904 -0.35619,1.58478 -0.98611,2.19535 -0.62992,0.61058 -1.38438,0.89482 -2.26337,0.85274 -0.85902,-0.0411 -1.58287,-0.39615 -2.15158,-1.06412 -0.5687,-0.66796 -0.83201,-1.44144 -0.79184,-2.28047 z"
           style="font-style:normal;font-variant:normal;font-weight:normal;font-stretch:normal;font-family:'Glacial Indifference';-inkscape-font-specification:'Glacial Indifference';stroke-width:0.99999994;fill:#2d3e9f;fill-opacity:1"
           id="path7012" /><path
           d="m 376.74467,397.18379 -1.17606,14.95383 1.39569,0.10976 1.17606,-14.95382 z"
           style="font-style:normal;font-variant:normal;font-weight:normal;font-stretch:normal;font-family:'Glacial Indifference';-inkscape-font-specification:'Glacial Indifference';stroke-width:0.99999994;fill:#2d3e9f;fill-opacity:1"
           id="path7014" /><path
           d="m 371.17009,408.56395 c 0.16348,0.17685 0.37263,0.29791 0.61148,0.3214 0.23885,0.0235 0.46758,-0.0545 0.64247,-0.19807 0.19676,-0.16151 0.29791,-0.37263 0.3214,-0.61148 0.0235,-0.23884 -0.0346,-0.46562 -0.19807,-0.64247 -0.14161,-0.19479 -0.35272,-0.29594 -0.59157,-0.31944 -0.23885,-0.0235 -0.46562,0.0346 -0.66238,0.19611 -0.17489,0.14357 -0.29594,0.35273 -0.31944,0.59158 -0.0235,0.23884 0.0545,0.46757 0.19611,0.66237 z m 1.0793,-11.79097 -0.86136,8.75774 1.39328,0.13703 0.86136,-8.75774 z"
           style="font-style:normal;font-variant:normal;font-weight:normal;font-stretch:normal;font-family:'Glacial Indifference';-inkscape-font-specification:'Glacial Indifference';stroke-width:0.99999994;fill:#2d3e9f;fill-opacity:1"
           id="path7016" /><path
           d="m 360.2929,400.96599 c 0.14655,1.00862 0.57483,1.87359 1.265,2.59225 0.72981,0.724 1.57899,1.16137 2.57002,1.29498 1.24871,0.16834 2.38048,-0.14324 3.35302,-0.92027 0.99235,-0.77436 1.55288,-1.78856 1.71855,-3.01744 0.16835,-1.24871 -0.10627,-2.35532 -0.85546,-3.38464 -0.3403,-0.46968 -0.75075,-0.86809 -1.27366,-1.18076 -0.50309,-0.30999 -1.04204,-0.50374 -1.59702,-0.57855 -0.55498,-0.0748 -1.05851,-0.0822 -1.51595,0.0176 -1.45425,0.30847 -2.53123,1.11178 -3.21647,2.45225 l 1.56584,0.2111 c 0.34429,-0.45811 0.7545,-0.80643 1.26761,-1.01979 0.51578,-0.23317 1.03,-0.30512 1.58498,-0.2303 0.85229,0.1149 1.52575,0.50841 2.03754,1.20302 0.51178,0.6946 0.6904,1.46538 0.5755,2.31767 -0.10955,0.81264 -0.48591,1.5086 -1.16337,2.04288 -0.3149,0.24008 -0.66409,0.43517 -1.06206,0.54297 -0.37815,0.11046 -0.84739,0.14811 -1.36273,0.0786 -0.51534,-0.0695 -0.9868,-0.31466 -1.45672,-0.72109 -0.44741,-0.42357 -0.76522,-0.9104 -0.92825,-1.49744 z"
           style="font-style:normal;font-variant:normal;font-weight:normal;font-stretch:normal;font-family:'Glacial Indifference';-inkscape-font-specification:'Glacial Indifference';stroke-width:0.99999994;fill:#2d3e9f;fill-opacity:1"
           id="path7018" /><path
           d="m 345.75953,396.77001 c 0.19107,-0.83851 0.65243,-1.51286 1.37518,-1.98406 0.72719,-0.4907 1.5198,-0.63829 2.3583,-0.44722 0.85801,0.19552 1.50842,0.67193 1.95123,1.42924 0.44725,0.73781 0.5514,1.54102 0.36033,2.37953 -0.18663,0.819 -0.62848,1.4978 -1.35568,1.9885 -0.72719,0.4907 -1.51979,0.63829 -2.3778,0.44277 -0.83851,-0.19107 -1.48892,-0.66748 -1.93173,-1.42479 -0.44281,-0.75731 -0.56646,-1.56497 -0.37983,-2.38397 z m -0.38744,-4.60108 -3.33263,14.62511 1.36501,0.31104 1.71519,-7.52705 c 0.0513,0.13477 0.12663,0.25449 0.18241,0.36977 0.6146,1.08363 1.50247,1.77825 2.67248,2.04486 1.1895,0.27106 2.29065,0.0297 3.31406,-0.68071 0.98441,-0.71926 1.60992,-1.6639 1.88097,-2.85341 0.2755,-1.20901 0.121,-2.33138 -0.45905,-3.38663 -0.61016,-1.10313 -1.50246,-1.77826 -2.69197,-2.04931 -1.17001,-0.26661 -2.26672,-0.0447 -3.29457,0.68515 -0.0958,0.0602 -0.21549,0.13551 -0.32015,0.23474 l 0.33326,-1.46251 z"
           style="font-style:normal;font-variant:normal;font-weight:normal;font-stretch:normal;font-family:'Glacial Indifference';-inkscape-font-specification:'Glacial Indifference';stroke-width:0.99999994;fill:#2d3e9f;fill-opacity:1"
           id="path7020" /><path
           d="m 334.28543,393.56167 c 0.25508,-0.84222 0.77585,-1.45769 1.54895,-1.87135 0.79804,-0.42701 1.59323,-0.49962 2.43545,-0.24454 0.84221,0.25509 1.48262,0.76251 1.89049,1.55475 0.4328,0.7789 0.50542,1.57409 0.25033,2.41631 -0.25509,0.84222 -0.75671,1.46348 -1.55475,1.89049 -0.7731,0.41366 -1.59323,0.49962 -2.43545,0.24453 -0.84221,-0.25508 -1.45768,-0.77585 -1.89049,-1.55474 -0.40786,-0.79225 -0.49962,-1.59323 -0.24453,-2.43545 z m -1.33989,-0.40582 c -0.36524,1.2059 -0.23805,2.37287 0.36243,3.49512 0.60047,1.12224 1.50076,1.87555 2.70667,2.24079 1.22504,0.37103 2.39201,0.24384 3.51425,-0.35664 1.12225,-0.60047 1.85642,-1.50656 2.22165,-2.71246 0.37104,-1.22505 0.26299,-2.38622 -0.34329,-3.48932 -0.60047,-1.12225 -1.5257,-1.86221 -2.7316,-2.22745 -1.18677,-0.35944 -2.36708,-0.25719 -3.48932,0.34329 -1.11645,0.58133 -1.86976,1.48163 -2.24079,2.70667 z"
           style="font-style:normal;font-variant:normal;font-weight:normal;font-stretch:normal;font-family:'Glacial Indifference';-inkscape-font-specification:'Glacial Indifference';stroke-width:0.99999994;fill:#2d3e9f;fill-opacity:1"
           id="path7022" /><path
           d="m 321.55254,384.05102 -1.29909,-0.5219 -2.05029,5.10356 c -0.36533,0.90936 -0.42975,1.76718 -0.22293,2.53998 0.10341,0.3864 0.31088,0.72839 0.57038,1.04818 0.27805,0.32724 0.70473,0.60642 1.26148,0.83009 0.57531,0.23112 1.14349,0.2654 1.68962,0.13995 0.50902,-0.14037 0.96617,-0.36623 1.40492,-0.70726 0.0108,0.24142 0.0476,0.47174 0.10293,0.70951 0.10341,0.38641 0.31087,0.7284 0.57037,1.04818 0.27805,0.32724 0.70473,0.60642 1.26148,0.83009 0.57531,0.23113 1.14349,0.2654 1.68962,0.13995 0.48301,-0.12927 0.91414,-0.34403 1.32688,-0.67395 l -0.52935,1.31765 1.29909,0.52189 3.28047,-8.16569 -1.29909,-0.52189 -1.67751,4.17564 c -0.31662,0.62717 -0.71477,1.13538 -1.17954,1.48751 -0.31978,0.25949 -0.71745,0.44459 -1.14097,0.53309 -0.42352,0.0885 -0.82086,0.0582 -1.21059,-0.0984 -0.37116,-0.14912 -0.63827,-0.34264 -0.77912,-0.52855 -0.38544,-0.5428 -0.42523,-1.24851 -0.0897,-2.08363 l 2.05029,-5.10356 -1.29908,-0.52189 -2.0503,5.10355 c -0.0373,0.0928 -0.0634,0.2116 -0.10073,0.30439 -0.12278,0.14466 -0.25665,0.26331 -0.40909,0.3745 -0.31979,0.25949 -0.71745,0.44459 -1.14097,0.53309 -0.42352,0.0885 -0.82086,0.0582 -1.21059,-0.0984 -0.37117,-0.14911 -0.63828,-0.34263 -0.77913,-0.52854 -0.38543,-0.54281 -0.42523,-1.24851 -0.0897,-2.08364 z"
           style="font-style:normal;font-variant:normal;font-weight:normal;font-stretch:normal;font-family:'Glacial Indifference';-inkscape-font-specification:'Glacial Indifference';stroke-width:0.99999994;fill:#2d3e9f;fill-opacity:1"
           id="path7024" /><path
           d="m 309.59884,382.99406 c 0.39234,-0.76529 1.00603,-1.30473 1.8228,-1.58272 0.8259,-0.29579 1.63039,-0.24295 2.39568,0.1494 0.78309,0.40147 1.2956,1.02382 1.53755,1.86707 0.25106,0.82545 0.1535,1.62949 -0.23884,2.39478 -0.38322,0.74749 -0.97911,1.29605 -1.80501,1.59184 -0.82589,0.29578 -1.63039,0.24294 -2.41347,-0.15853 -0.76529,-0.39234 -1.27781,-1.0147 -1.51975,-1.85794 -0.24195,-0.84325 -0.16218,-1.65641 0.22104,-2.4039 z m 0.76152,-4.55413 -4.01468,7.83085 1.24581,0.6387 0.69345,-1.3526 c 0.0164,0.14328 0.0598,0.27789 0.0854,0.40338 0.32777,1.2019 1.01645,2.09437 2.0843,2.64183 1.08564,0.55658 2.21229,0.59478 3.3795,0.15932 1.13161,-0.45371 1.97115,-1.21448 2.52773,-2.30012 0.5657,-1.10344 0.69334,-2.22919 0.39204,-3.39504 -0.31865,-1.2197 -1.01646,-2.09438 -2.1021,-2.65096 -1.06784,-0.54746 -2.18537,-0.60346 -3.3617,-0.1502 -0.10769,0.0347 -0.2423,0.0781 -0.36823,0.14834 l 0.68432,-1.3348 z"
           style="font-style:normal;font-variant:normal;font-weight:normal;font-stretch:normal;font-family:'Glacial Indifference';-inkscape-font-specification:'Glacial Indifference';stroke-width:0.99999994;fill:#2d3e9f;fill-opacity:1"
           id="path7026" /><path
           d="m 300.57262,386.42206 c 0.0748,0.22893 0.21436,0.42621 0.42162,0.54722 0.20726,0.121 0.44767,0.14556 0.66652,0.088 0.2462,-0.0647 0.4262,-0.21435 0.54721,-0.42161 0.121,-0.20727 0.16283,-0.43759 0.0881,-0.66652 -0.0474,-0.23612 -0.19708,-0.41612 -0.40435,-0.53713 -0.20726,-0.121 -0.43759,-0.16283 -0.68379,-0.0981 -0.21884,0.0575 -0.41612,0.19708 -0.53712,0.40434 -0.12101,0.20727 -0.14557,0.44768 -0.0982,0.68379 z m 5.90043,-10.26532 -4.4368,7.59965 1.20904,0.70586 4.4368,-7.59966 z"
           style="font-style:normal;font-variant:normal;font-weight:normal;font-stretch:normal;font-family:'Glacial Indifference';-inkscape-font-specification:'Glacial Indifference';stroke-width:0.99999994;fill:#2d3e9f;fill-opacity:1"
           id="path7028" /><path
           d="m 298.73041,371.28229 -1.17275,-0.76464 -3.00392,4.60722 c -0.5571,0.85443 -0.77041,1.69425 -0.67344,2.49761 0.0598,0.42099 0.19675,0.7968 0.41676,1.15513 0.23676,0.36925 0.60098,0.7261 1.12034,1.06472 0.53611,0.34955 1.08677,0.4937 1.66362,0.4878 0.54919,-6e-5 1.08597,-0.12759 1.5936,-0.3935 l -0.83017,1.27327 1.17274,0.76463 4.80628,-7.37154 -1.17274,-0.76464 -2.0099,3.08265 c -0.61171,0.9382 -1.25987,1.56612 -1.97217,1.88959 -0.39766,0.17049 -0.81281,0.25794 -1.26221,0.25144 -0.42172,-0.0123 -0.9061,-0.1849 -1.4087,-0.5126 -0.50261,-0.3277 -0.73428,-0.74138 -0.7336,-1.21845 6.7e-4,-0.47708 0.15648,-0.97238 0.46233,-1.44148 z"
           style="font-style:normal;font-variant:normal;font-weight:normal;font-stretch:normal;font-family:'Glacial Indifference';-inkscape-font-specification:'Glacial Indifference';stroke-width:0.99999994;fill:#2d3e9f;fill-opacity:1"
           id="path7030" /></g><path
         style="fill:none;stroke:none;stroke-width:0.75px;stroke-linecap:butt;stroke-linejoin:miter;stroke-opacity:1"
         d="m 381.86474,354.11098 c -49.26043,-7.36188 -63.99488,-22.53471 -76.90797,-38.1196"
         id="path6819"
         inkscape:connector-curvature="0"
         sodipodi:nodetypes="cc" /><g
         aria-label="copyright"
         transform="matrix(-0.66092361,-0.75045318,-0.75045318,0.66092361,826.36053,372.69024)"
         style="font-style:normal;font-variant:normal;font-weight:normal;font-stretch:normal;font-size:20px;line-height:2.25;font-family:Montserrat;-inkscape-font-specification:'Montserrat, Normal';font-variant-ligatures:normal;font-variant-caps:normal;font-variant-numeric:normal;font-feature-settings:normal;text-align:start;letter-spacing:0px;word-spacing:0px;writing-mode:lr-tb;text-anchor:start;fill:#2d3e9f;fill-opacity:1;stroke:none;stroke-width:0.99999994"
         id="text6835"><path
           d="m 371.32659,358.10027 c 0.11249,1.01299 0.51138,1.8919 1.17694,2.6334 0.70501,0.74818 1.53897,1.21392 2.52494,1.38084 1.24232,0.21032 2.38395,-0.063 3.38212,-0.80678 1.01788,-0.74048 1.61226,-1.73522 1.81924,-2.95782 0.21032,-1.24233 -0.0268,-2.35756 -0.74094,-3.41154 -0.32428,-0.48088 -0.72107,-0.89289 -1.23316,-1.223 -0.49236,-0.32677 -1.02447,-0.53856 -1.57662,-0.63204 -0.55214,-0.0935 -1.05514,-0.11778 -1.51567,-0.0335 -1.46382,0.2593 -2.56726,1.02587 -3.29727,2.34249 l 1.55783,0.26373 c 0.35953,-0.44625 0.78125,-0.78054 1.30125,-0.97649 0.52335,-0.21567 1.0397,-0.27025 1.59184,-0.17677 0.84794,0.14355 1.50776,0.55952 1.99585,1.27098 0.48809,0.71145 0.64065,1.48781 0.49709,2.33574 -0.13687,0.8085 -0.53646,1.49138 -1.23154,2.00253 -0.32281,0.22933 -0.67838,0.41255 -1.07975,0.50687 -0.38166,0.0977 -0.8519,0.11948 -1.3646,0.0327 -0.51271,-0.0868 -0.97565,-0.34773 -1.4316,-0.76976 -0.43289,-0.43841 -0.73412,-0.93567 -0.87727,-1.52787 z"
           style="font-style:normal;font-variant:normal;font-weight:normal;font-stretch:normal;font-family:'Glacial Indifference';-inkscape-font-specification:'Glacial Indifference';stroke-width:0.99999994;fill:#2d3e9f;fill-opacity:1"
           id="path6989" /><path
           d="m 362.1169,354.92995 c 0.18715,-0.85987 0.6572,-1.51489 1.39488,-1.98885 0.76147,-0.48925 1.54834,-0.62502 2.40821,-0.43787 0.85987,0.18715 1.53868,0.64192 2.00839,1.39913 0.4935,0.74193 0.62926,1.5288 0.44211,2.38867 -0.18715,0.85987 -0.63766,1.51914 -1.39913,2.00839 -0.73767,0.47396 -1.54834,0.62502 -2.40821,0.43787 -0.85987,-0.18715 -1.51488,-0.65721 -2.00839,-1.39913 -0.46971,-0.75722 -0.62501,-1.54835 -0.43786,-2.40821 z m -1.36797,-0.29774 c -0.26797,1.23117 -0.0482,2.3843 0.63983,3.45511 0.68801,1.07082 1.64548,1.74998 2.87666,2.01794 1.25071,0.27222 2.40384,0.0524 3.47465,-0.63559 1.07082,-0.688 1.73043,-1.64972 1.9984,-2.8809 0.27222,-1.25072 0.072,-2.39959 -0.6203,-3.45086 -0.68801,-1.07081 -1.66927,-1.73469 -2.90045,-2.00265 -1.21163,-0.26371 -2.38004,-0.0677 -3.45085,0.6203 -1.06657,0.66846 -1.74573,1.62593 -2.01794,2.87665 z"
           style="font-style:normal;font-variant:normal;font-weight:normal;font-stretch:normal;font-family:'Glacial Indifference';-inkscape-font-specification:'Glacial Indifference';stroke-width:0.99999994;fill:#2d3e9f;fill-opacity:1"
           id="path6991" /><path
           d="m 359.36685,344.52451 -1.77798,6.2521 c -0.0249,-0.13183 -0.0937,-0.25537 -0.14878,-0.3542 -0.55085,-1.13392 -1.40612,-1.85539 -2.57959,-2.1891 -1.15423,-0.32824 -2.26116,-0.16479 -3.32625,0.50959 -1.01567,0.64684 -1.7096,1.55153 -2.04878,2.74424 -0.33372,1.17347 -0.21968,2.30793 0.29815,3.41167 0.55632,1.11469 1.40612,1.85539 2.56035,2.18363 1.17347,0.33371 2.28587,0.15103 3.34549,-0.50412 0.1043,-0.0743 0.22784,-0.14313 0.31837,-0.24214 l -0.41577,1.46203 1.34661,0.38295 3.77479,-13.2737 z m -8.53478,7.34558 c 0.23524,-0.8272 0.73169,-1.47615 1.4784,-1.90839 0.75218,-0.45147 1.55149,-0.55685 2.37869,-0.32161 0.84644,0.24072 1.47069,0.75093 1.87274,1.53064 0.40752,0.76048 0.46896,1.56808 0.23372,2.39528 -0.22977,0.80797 -0.70698,1.46239 -1.45916,1.91386 -0.75218,0.45147 -1.55149,0.55685 -2.39793,0.31614 -0.8272,-0.23524 -1.45145,-0.74545 -1.8535,-1.52517 -0.40205,-0.77971 -0.48273,-1.59278 -0.25296,-2.40075 z"
           style="font-style:normal;font-variant:normal;font-weight:normal;font-stretch:normal;font-family:'Glacial Indifference';-inkscape-font-specification:'Glacial Indifference';stroke-width:0.99999994;fill:#2d3e9f;fill-opacity:1"
           id="path6993" /><path
           d="m 349.07162,341.38405 -10.4297,10.89164 1.46609,0.53308 4.38444,-4.68371 0.63411,6.50848 1.50369,0.54674 -0.94344,-8.17446 4.98247,-5.04085 z"
           style="font-style:normal;font-variant:normal;font-weight:normal;font-stretch:normal;font-family:'Glacial Indifference';-inkscape-font-specification:'Glacial Indifference';stroke-width:0.99999994;fill:#2d3e9f;fill-opacity:1"
           id="path6995" /><path
           d="m 333.50797,348.00785 -0.73267,1.66601 c 0.208,0.22257 0.45846,0.39826 0.73308,0.51903 0.91539,0.40257 1.79991,0.1798 2.65576,-0.62363 l 0.19985,-0.30539 -0.73268,1.66601 1.28155,0.56359 3.54261,-8.05542 -1.28155,-0.5636 -1.7713,4.02771 c -0.28985,0.65908 -0.69396,1.18052 -1.23868,1.57458 -0.26723,0.2102 -0.57329,0.35964 -0.8918,0.43805 -0.31852,0.0784 -0.65975,0.0594 -0.98929,-0.0855 -0.32954,-0.14493 -0.57636,-0.42826 -0.77488,-0.82145 z"
           style="font-style:normal;font-variant:normal;font-weight:normal;font-stretch:normal;font-family:'Glacial Indifference';-inkscape-font-specification:'Glacial Indifference';stroke-width:0.99999994;fill:#2d3e9f;fill-opacity:1"
           id="path6997" /><path
           d="m 328.18432,350.75799 c 0.088,0.22418 0.23885,0.41298 0.45282,0.52168 0.21397,0.10871 0.4554,0.1192 0.67052,0.049 0.242,-0.079 0.41298,-0.23885 0.52168,-0.45282 0.10871,-0.21397 0.13703,-0.44635 0.049,-0.67052 -0.0611,-0.23295 -0.22102,-0.40392 -0.43499,-0.51263 -0.21397,-0.1087 -0.44635,-0.13703 -0.68835,-0.0581 -0.21512,0.0702 -0.40392,0.22102 -0.51263,0.43499 -0.10871,0.21397 -0.1192,0.4554 -0.0581,0.68835 z m 5.29151,-10.59207 -3.98589,7.84555 1.24816,0.63412 3.98589,-7.84555 z"
           style="font-style:normal;font-variant:normal;font-weight:normal;font-stretch:normal;font-family:'Glacial Indifference';-inkscape-font-specification:'Glacial Indifference';stroke-width:0.99999994;fill:#2d3e9f;fill-opacity:1"
           id="path6999" /><path
           d="m 322.34558,338.69877 c 0.46116,-0.7259 1.12192,-1.20653 1.96082,-1.40812 0.84963,-0.21847 1.64584,-0.0918 2.37174,0.3694 0.7259,0.46116 1.17892,1.12807 1.34218,1.99001 0.17398,0.84506 0.0304,1.63055 -0.44149,2.37333 -0.46116,0.7259 -1.11119,1.18965 -1.96082,1.40812 -0.84963,0.21847 -1.64583,0.0918 -2.37174,-0.3694 -0.7259,-0.46116 -1.17892,-1.12807 -1.34218,-1.99001 -0.16325,-0.86195 -0.009,-1.66431 0.44149,-2.37333 z m 8.2699,-1.38074 1.21546,0.77217 c 0.36901,-0.87922 0.4542,-1.79658 0.22183,-2.77351 -0.26017,-1.23155 -0.93583,-2.18207 -1.99936,-2.85772 -1.04665,-0.66492 -2.19419,-0.87266 -3.43646,-0.5956 -1.21467,0.2709 -2.18207,0.93584 -2.85772,1.99937 l -4.95476,7.79923 1.1817,0.75072 0.79362,-1.24923 c 0.0246,0.11042 0.0385,0.23773 0.0524,0.36504 0.24945,1.24842 0.85301,2.20053 1.83214,2.82256 1.04665,0.66492 2.16499,0.80672 3.36734,0.48061 1.16859,-0.34756 2.07462,-1.02779 2.72882,-2.05756 0.66493,-1.04665 0.8957,-2.15586 0.70305,-3.3445 -0.20497,-1.24387 -0.81925,-2.17909 -1.8659,-2.84402 -1.01289,-0.64347 -2.12051,-0.80215 -3.33359,-0.45916 -0.11042,0.0246 -0.23157,0.0661 -0.34199,0.0908 l 1.01883,-1.60374 c 0.47188,-0.74278 1.1388,-1.1958 1.99458,-1.38667 0.85579,-0.19086 1.64127,-0.0473 2.36718,0.41388 0.74278,0.47189 1.20652,1.12192 1.39739,1.97771 0.13545,0.60733 0.1144,1.16263 -0.0846,1.69965 z"
           style="font-style:normal;font-variant:normal;font-weight:normal;font-stretch:normal;font-family:'Glacial Indifference';-inkscape-font-specification:'Glacial Indifference';stroke-width:0.99999994;fill:#2d3e9f;fill-opacity:1"
           id="path7001" /><path
           d="m 320.05888,331.50348 -2.38628,2.80144 c -0.7911,0.92874 -1.53992,1.49941 -2.27466,1.71427 -0.41614,0.11843 -0.81311,0.12182 -1.23208,0.0277 -0.40375,-0.0812 -0.84922,-0.32928 -1.30598,-0.71835 -0.45675,-0.38907 -0.63383,-0.82889 -0.57237,-1.30199 0.0614,-0.4731 0.27909,-0.94451 0.64222,-1.37082 l 3.56645,-4.18694 -1.06576,-0.90782 -3.56645,4.18694 c -0.66142,0.77648 -0.97999,1.58228 -0.98617,2.39145 0.006,0.42517 0.0936,0.81538 0.26618,1.19881 0.18779,0.39641 0.50357,0.79676 0.97556,1.19879 0.4872,0.41501 1.015,0.62814 1.58791,0.69579 0.54472,0.0699 1.09337,0.0118 1.63075,-0.18725 l -5.006,5.87693 1.06576,0.90783 9.72669,-11.41892 z"
           style="font-style:normal;font-variant:normal;font-weight:normal;font-stretch:normal;font-family:'Glacial Indifference';-inkscape-font-specification:'Glacial Indifference';stroke-width:0.99999994;fill:#2d3e9f;fill-opacity:1"
           id="path7003" /><path
           d="m 308.90042,331.60569 -1.52715,-1.5836 5.39867,-5.20619 -0.97182,-1.00775 -5.39867,5.20618 -1.51326,-1.56921 -0.93577,0.90241 1.51326,1.56921 -2.46179,2.37402 0.97182,1.00775 2.46179,-2.37402 1.52715,1.58361 z"
           style="font-style:normal;font-variant:normal;font-weight:normal;font-stretch:normal;font-family:'Glacial Indifference';-inkscape-font-specification:'Glacial Indifference';stroke-width:0.99999994;fill:#2d3e9f;fill-opacity:1"
           id="path7005" /></g><flowRoot
         xml:space="preserve"
         id="flowRoot6839"
         style="fill:black;fill-opacity:1;stroke:none;font-family:Montserrat;font-style:normal;font-weight:normal;font-size:26.66666667px;line-height:2.25;letter-spacing:0px;word-spacing:0px;-inkscape-font-specification:'Montserrat, Normal';font-stretch:normal;font-variant:normal;text-anchor:start;text-align:start;writing-mode:lr;font-variant-ligatures:normal;font-variant-caps:normal;font-variant-numeric:normal;font-feature-settings:normal"><flowRegion
           id="flowRegion6841"><rect
             id="rect6843"
             width="426.22986"
             height="63.051754"
             x="591.42548"
             y="83.228317" /></flowRegion><flowPara
           id="flowPara6845" /></flowRoot><g
         aria-label="author"
         transform="matrix(0.75000002,0,0,-0.75000002,8.9848752,439.3131)"
         style="font-style:normal;font-variant:normal;font-weight:normal;font-stretch:normal;font-size:26.66666603px;line-height:2.25;font-family:Montserrat;-inkscape-font-specification:'Montserrat, Normal';font-variant-ligatures:normal;font-variant-caps:normal;font-variant-numeric:normal;font-feature-settings:normal;text-align:start;letter-spacing:0px;word-spacing:0px;writing-mode:lr-tb;text-anchor:start;fill:#2d3e9f;fill-opacity:1;stroke:none"
         id="flowRoot6859"><path
           d="m 493.04818,252.02661 c 0,1.14666 -0.4,2.16 -1.2,2.98666 -0.8,0.85334 -1.78667,1.28 -2.93334,1.28 -1.17333,0 -2.16,-0.42666 -2.96,-1.28 -0.8,-0.82666 -1.17333,-1.84 -1.17333,-2.98666 0,-1.12 0.37333,-2.13334 1.17333,-2.98667 0.8,-0.85333 1.78667,-1.28 2.96,-1.28 1.14667,0 2.13334,0.42667 2.93334,1.28 0.8,0.85333 1.2,1.86667 1.2,2.98667 z m 1.86666,5.86666 v -11.73333 h -1.86666 v 2.02667 c -0.10667,-0.16 -0.24,-0.29334 -0.34667,-0.42667 -1.12,-1.22667 -2.48,-1.86667 -4.08,-1.86667 -1.62667,0 -2.98667,0.64 -4.10667,1.86667 -1.06666,1.22667 -1.6,2.64 -1.6,4.26667 0,1.65333 0.53334,3.06666 1.6,4.26666 1.12,1.25334 2.48,1.86667 4.10667,1.86667 1.6,0 2.96,-0.61333 4.08,-1.86667 0.10667,-0.10666 0.24,-0.24 0.34667,-0.4 v 2 z"
           style="font-style:normal;font-variant:normal;font-weight:normal;font-stretch:normal;font-family:'Glacial Indifference';-inkscape-font-specification:'Glacial Indifference';fill:#2d3e9f;fill-opacity:1"
           id="path6976" /><path
           d="m 507.02984,255.89327 v 2 h 1.86667 v -11.73333 h -1.86667 v 4.90667 c 0,1.65333 -0.32,2.90666 -0.93333,3.84 -0.58667,0.90666 -1.62667,1.36 -3.06667,1.36 -0.8,0 -1.38666,-0.26667 -1.73333,-0.8 -0.34667,-0.53334 -0.50667,-1.2 -0.50667,-1.97334 v -7.33333 h -1.86666 v 7.33333 c 0,1.36 0.34666,2.48 1.09333,3.36 0.74667,0.85334 1.76,1.28 3.09333,1.28 1.73334,0 3.04,-0.74666 3.92,-2.24 z"
           style="font-style:normal;font-variant:normal;font-weight:normal;font-stretch:normal;font-family:'Glacial Indifference';-inkscape-font-specification:'Glacial Indifference';fill:#2d3e9f;fill-opacity:1"
           id="path6978" /><path
           d="m 511.05026,247.89327 h 2.93333 v 10 h 1.86667 v -10 h 2.90667 v -1.73333 h -2.90667 v -4.56 h -1.86667 v 4.56 h -2.93333 z"
           style="font-style:normal;font-variant:normal;font-weight:normal;font-stretch:normal;font-family:'Glacial Indifference';-inkscape-font-specification:'Glacial Indifference';fill:#2d3e9f;fill-opacity:1"
           id="path6980" /><path
           d="m 523.13359,257.89327 v -4.90666 c 0,-1.62667 0.26667,-2.85334 0.82667,-3.70667 0.32,-0.48 0.72,-0.82667 1.22667,-1.09333 0.48,-0.26667 1.14666,-0.4 1.94666,-0.4 0.8,0 1.36,0.29333 1.70667,0.82666 0.34667,0.53334 0.53333,1.2 0.53333,1.94667 v 7.33333 h 1.86667 v -7.33333 c 0,-1.36 -0.37333,-2.45333 -1.06667,-3.28 -0.37333,-0.42667 -0.8,-0.74667 -1.30666,-0.98667 -0.53334,-0.24 -1.2,-0.37333 -2.02667,-0.37333 -0.85333,0 -1.57333,0.24 -2.21333,0.66667 -0.61334,0.4 -1.12,0.93333 -1.49334,1.6 v -10.29334 h -1.86666 v 20 z"
           style="font-style:normal;font-variant:normal;font-weight:normal;font-stretch:normal;font-family:'Glacial Indifference';-inkscape-font-specification:'Glacial Indifference';fill:#2d3e9f;fill-opacity:1"
           id="path6982" /><path
           d="m 544.46068,251.97327 c 0,1.17334 -0.42667,2.16 -1.25334,2.98667 -0.85333,0.85333 -1.84,1.25333 -3.01333,1.25333 -1.17333,0 -2.18667,-0.4 -3.01333,-1.25333 -0.85334,-0.82667 -1.25334,-1.81333 -1.25334,-2.98667 0,-1.17333 0.4,-2.16 1.25334,-3.01333 0.82666,-0.82667 1.84,-1.25333 3.01333,-1.25333 1.17333,0 2.16,0.42666 3.01333,1.25333 0.82667,0.85333 1.25334,1.84 1.25334,3.01333 z m 1.86666,0 c 0,-1.68 -0.61333,-3.12 -1.81333,-4.32 -1.2,-1.2 -2.64,-1.81333 -4.32,-1.81333 -1.70667,0 -3.14667,0.61333 -4.34667,1.81333 -1.2,1.2 -1.78666,2.64 -1.78666,4.32 0,1.70667 0.58666,3.14667 1.78666,4.32 1.2,1.2 2.66667,1.78667 4.34667,1.78667 1.65333,0 3.12,-0.58667 4.32,-1.78667 1.2,-1.17333 1.81333,-2.61333 1.81333,-4.32 z"
           style="font-style:normal;font-variant:normal;font-weight:normal;font-stretch:normal;font-family:'Glacial Indifference';-inkscape-font-specification:'Glacial Indifference';fill:#2d3e9f;fill-opacity:1"
           id="path6984" /><path
           d="m 555.57485,248.58661 v -2.42667 c -0.37334,-0.16 -0.77334,-0.24 -1.17334,-0.24 -1.33333,0 -2.29333,0.74667 -2.90666,2.18667 l -0.08,0.48 v -2.42667 h -1.86667 v 11.73333 h 1.86667 v -5.86666 c 0,-0.96 0.21333,-1.81334 0.66666,-2.58667 0.21334,-0.4 0.50667,-0.74667 0.85334,-1.01333 0.34666,-0.26667 0.77333,-0.42667 1.25333,-0.42667 0.48,0 0.93333,0.21333 1.38667,0.58667 z"
           style="font-style:normal;font-variant:normal;font-weight:normal;font-stretch:normal;font-family:'Glacial Indifference';-inkscape-font-specification:'Glacial Indifference';fill:#2d3e9f;fill-opacity:1"
           id="path6986" /></g><g
         aria-label="creative"
         transform="matrix(0.75000002,0,0,-0.75000002,42.633708,379.49275)"
         style="font-style:normal;font-variant:normal;font-weight:normal;font-stretch:normal;font-size:26.66666603px;line-height:2.25;font-family:Montserrat;-inkscape-font-specification:'Montserrat, Normal';font-variant-ligatures:normal;font-variant-caps:normal;font-variant-numeric:normal;font-feature-settings:normal;text-align:start;letter-spacing:0px;word-spacing:0px;writing-mode:lr-tb;text-anchor:start;fill:#2d3e9f;fill-opacity:1;stroke:none"
         id="flowRoot6873"><path
           d="m 494.67484,250.37327 c -0.37333,-1.30666 -1.09333,-2.37333 -2.13333,-3.2 -1.09333,-0.82666 -2.29333,-1.25333 -3.62667,-1.25333 -1.68,0 -3.12,0.61333 -4.26666,1.81333 -1.17334,1.2 -1.73334,2.64 -1.73334,4.29334 0,1.68 0.56,3.09333 1.73334,4.32 0.53333,0.56 1.14666,1.01333 1.89333,1.33333 0.72,0.32 1.46667,0.48 2.21333,0.48 0.74667,0 1.41334,-0.08 2,-0.29333 1.86667,-0.66667 3.14667,-1.92 3.81334,-3.81334 h -2.10667 c -0.37333,0.66667 -0.85333,1.2 -1.49333,1.57334 -0.64,0.4 -1.30667,0.58666 -2.05334,0.58666 -1.14666,0 -2.10666,-0.4 -2.90666,-1.22666 -0.8,-0.82667 -1.17334,-1.81334 -1.17334,-2.96 0,-1.09334 0.37334,-2.08 1.17334,-2.90667 0.37333,-0.37333 0.8,-0.69333 1.30666,-0.90667 0.48,-0.21333 1.09334,-0.34666 1.78667,-0.34666 0.69333,0 1.36,0.24 2.05333,0.69333 0.66667,0.48 1.17334,1.06667 1.49334,1.81333 z"
           style="font-style:normal;font-variant:normal;font-weight:normal;font-stretch:normal;font-family:'Glacial Indifference';-inkscape-font-specification:'Glacial Indifference';fill:#2d3e9f;fill-opacity:1"
           id="path6959" /><path
           d="m 503.64776,248.58661 v -2.42667 c -0.37333,-0.16 -0.77333,-0.24 -1.17333,-0.24 -1.33334,0 -2.29334,0.74667 -2.90667,2.18667 l -0.08,0.48 v -2.42667 h -1.86667 v 11.73333 h 1.86667 v -5.86666 c 0,-0.96 0.21333,-1.81334 0.66667,-2.58667 0.21333,-0.4 0.50666,-0.74667 0.85333,-1.01333 0.34667,-0.26667 0.77333,-0.42667 1.25333,-0.42667 0.48,0 0.93334,0.21333 1.38667,0.58667 z"
           style="font-style:normal;font-variant:normal;font-weight:normal;font-stretch:normal;font-family:'Glacial Indifference';-inkscape-font-specification:'Glacial Indifference';fill:#2d3e9f;fill-opacity:1"
           id="path6961" /><path
           d="m 517.36901,251.75994 c 0,-1.6 -0.64,-2.98667 -1.86667,-4.18667 -1.2,-1.14666 -2.64,-1.73333 -4.26666,-1.73333 -1.70667,0 -3.14667,0.61333 -4.34667,1.81333 -1.2,1.2 -1.78667,2.64 -1.78667,4.32 0,1.70667 0.58667,3.14667 1.78667,4.32 0.56,0.56 1.2,0.98667 1.94667,1.30667 0.74666,0.32 1.62666,0.48 2.66666,0.48 1.04,0 2.05334,-0.32 3.06667,-0.96 1.01333,-0.64 1.76,-1.54667 2.26667,-2.66667 h -2.13334 c -0.42666,0.56 -0.93333,0.98667 -1.54666,1.30667 -0.61334,0.32 -1.25334,0.45333 -1.92,0.45333 -1.01334,0 -1.92,-0.32 -2.72,-0.98666 -0.8,-0.64 -1.30667,-1.46667 -1.46667,-2.48 h 10.32 z m -1.97333,-0.61333 h -8.32 c 0.10666,-0.48 0.29333,-0.93334 0.56,-1.36 0.85333,-1.38667 2.05333,-2.08 3.6,-2.08 0.98666,0 1.86666,0.32 2.64,0.96 0.8,0.66666 1.28,1.49333 1.52,2.48 z"
           style="font-style:normal;font-variant:normal;font-weight:normal;font-stretch:normal;font-family:'Glacial Indifference';-inkscape-font-specification:'Glacial Indifference';fill:#2d3e9f;fill-opacity:1"
           id="path6963" /><path
           d="m 529.76693,252.02661 c 0,1.14666 -0.4,2.16 -1.2,2.98666 -0.8,0.85334 -1.78667,1.28 -2.93334,1.28 -1.17333,0 -2.16,-0.42666 -2.96,-1.28 -0.8,-0.82666 -1.17333,-1.84 -1.17333,-2.98666 0,-1.12 0.37333,-2.13334 1.17333,-2.98667 0.8,-0.85333 1.78667,-1.28 2.96,-1.28 1.14667,0 2.13334,0.42667 2.93334,1.28 0.8,0.85333 1.2,1.86667 1.2,2.98667 z m 1.86666,5.86666 v -11.73333 h -1.86666 v 2.02667 c -0.10667,-0.16 -0.24,-0.29334 -0.34667,-0.42667 -1.12,-1.22667 -2.48,-1.86667 -4.08,-1.86667 -1.62667,0 -2.98667,0.64 -4.10667,1.86667 -1.06666,1.22667 -1.6,2.64 -1.6,4.26667 0,1.65333 0.53334,3.06666 1.6,4.26666 1.12,1.25334 2.48,1.86667 4.10667,1.86667 1.6,0 2.96,-0.61333 4.08,-1.86667 0.10667,-0.10666 0.24,-0.24 0.34667,-0.4 v 2 z"
           style="font-style:normal;font-variant:normal;font-weight:normal;font-stretch:normal;font-family:'Glacial Indifference';-inkscape-font-specification:'Glacial Indifference';fill:#2d3e9f;fill-opacity:1"
           id="path6965" /><path
           d="m 534.17526,247.89327 h 2.93333 v 10 h 1.86667 v -10 h 2.90667 v -1.73333 h -2.90667 v -4.56 h -1.86667 v 4.56 h -2.93333 z"
           style="font-style:normal;font-variant:normal;font-weight:normal;font-stretch:normal;font-family:'Glacial Indifference';-inkscape-font-specification:'Glacial Indifference';fill:#2d3e9f;fill-opacity:1"
           id="path6967" /><path
           d="m 546.28526,242.10661 c -0.24,-0.21334 -0.53333,-0.34667 -0.85333,-0.34667 -0.32,0 -0.61334,0.13333 -0.82667,0.34667 -0.24,0.24 -0.34667,0.53333 -0.34667,0.85333 0,0.32 0.10667,0.61333 0.34667,0.82667 0.21333,0.24 0.50667,0.34666 0.82667,0.34666 0.32,0 0.61333,-0.10666 0.85333,-0.34666 0.21333,-0.21334 0.34667,-0.50667 0.34667,-0.82667 0,-0.32 -0.13334,-0.61333 -0.34667,-0.85333 z m 0.10667,15.78666 v -11.73333 h -1.86667 v 11.73333 z"
           style="font-style:normal;font-variant:normal;font-weight:normal;font-stretch:normal;font-family:'Glacial Indifference';-inkscape-font-specification:'Glacial Indifference';fill:#2d3e9f;fill-opacity:1"
           id="path6969" /><path
           d="m 554.16568,259.01327 5.38667,-12.85333 h -2.02667 l -3.36,8.72 -3.38667,-8.72 h -2.02666 z"
           style="font-style:normal;font-variant:normal;font-weight:normal;font-stretch:normal;font-family:'Glacial Indifference';-inkscape-font-specification:'Glacial Indifference';fill:#2d3e9f;fill-opacity:1"
           id="path6971" /><path
           d="m 573.30651,251.75994 c 0,-1.6 -0.64,-2.98667 -1.86667,-4.18667 -1.2,-1.14666 -2.64,-1.73333 -4.26666,-1.73333 -1.70667,0 -3.14667,0.61333 -4.34667,1.81333 -1.2,1.2 -1.78667,2.64 -1.78667,4.32 0,1.70667 0.58667,3.14667 1.78667,4.32 0.56,0.56 1.2,0.98667 1.94667,1.30667 0.74666,0.32 1.62666,0.48 2.66666,0.48 1.04,0 2.05334,-0.32 3.06667,-0.96 1.01333,-0.64 1.76,-1.54667 2.26667,-2.66667 h -2.13334 c -0.42666,0.56 -0.93333,0.98667 -1.54666,1.30667 -0.61334,0.32 -1.25334,0.45333 -1.92,0.45333 -1.01334,0 -1.92,-0.32 -2.72,-0.98666 -0.8,-0.64 -1.30667,-1.46667 -1.46667,-2.48 h 10.32 z m -1.97333,-0.61333 h -8.32 c 0.10666,-0.48 0.29333,-0.93334 0.56,-1.36 0.85333,-1.38667 2.05333,-2.08 3.6,-2.08 0.98666,0 1.86666,0.32 2.64,0.96 0.8,0.66666 1.28,1.49333 1.52,2.48 z"
           style="font-style:normal;font-variant:normal;font-weight:normal;font-stretch:normal;font-family:'Glacial Indifference';-inkscape-font-specification:'Glacial Indifference';fill:#2d3e9f;fill-opacity:1"
           id="path6973" /></g><g
         aria-label="work"
         transform="matrix(0.75000002,0,0,-0.75000002,54.633708,362.10486)"
         style="font-style:normal;font-variant:normal;font-weight:normal;font-stretch:normal;font-size:26.66666603px;line-height:2.25;font-family:Montserrat;-inkscape-font-specification:'Montserrat, Normal';font-variant-ligatures:normal;font-variant-caps:normal;font-variant-numeric:normal;font-feature-settings:normal;text-align:start;letter-spacing:0px;word-spacing:0px;writing-mode:lr-tb;text-anchor:start;fill:#2d3e9f;fill-opacity:1;stroke:none"
         id="flowRoot6885"><path
           d="m 495.18151,259.38661 5.57333,-13.22667 h -2.08 l -3.52,9.04 -3.78666,-9.65333 -3.78667,9.65333 -3.52,-9.04 h -2.08 l 5.62667,13.22667 3.76,-9.46667 z"
           style="font-style:normal;font-variant:normal;font-weight:normal;font-stretch:normal;font-family:'Glacial Indifference';-inkscape-font-specification:'Glacial Indifference';fill:#2d3e9f;fill-opacity:1"
           id="path6950" /><path
           d="m 512.63776,251.97327 c 0,1.17334 -0.42667,2.16 -1.25333,2.98667 -0.85334,0.85333 -1.84,1.25333 -3.01334,1.25333 -1.17333,0 -2.18666,-0.4 -3.01333,-1.25333 -0.85333,-0.82667 -1.25333,-1.81333 -1.25333,-2.98667 0,-1.17333 0.4,-2.16 1.25333,-3.01333 0.82667,-0.82667 1.84,-1.25333 3.01333,-1.25333 1.17334,0 2.16,0.42666 3.01334,1.25333 0.82666,0.85333 1.25333,1.84 1.25333,3.01333 z m 1.86667,0 c 0,-1.68 -0.61334,-3.12 -1.81334,-4.32 -1.2,-1.2 -2.64,-1.81333 -4.32,-1.81333 -1.70666,0 -3.14666,0.61333 -4.34666,1.81333 -1.2,1.2 -1.78667,2.64 -1.78667,4.32 0,1.70667 0.58667,3.14667 1.78667,4.32 1.2,1.2 2.66666,1.78667 4.34666,1.78667 1.65334,0 3.12,-0.58667 4.32,-1.78667 1.2,-1.17333 1.81334,-2.61333 1.81334,-4.32 z"
           style="font-style:normal;font-variant:normal;font-weight:normal;font-stretch:normal;font-family:'Glacial Indifference';-inkscape-font-specification:'Glacial Indifference';fill:#2d3e9f;fill-opacity:1"
           id="path6952" /><path
           d="m 523.75192,248.58661 v -2.42667 c -0.37333,-0.16 -0.77333,-0.24 -1.17333,-0.24 -1.33333,0 -2.29333,0.74667 -2.90667,2.18667 l -0.08,0.48 v -2.42667 h -1.86666 v 11.73333 h 1.86666 v -5.86666 c 0,-0.96 0.21334,-1.81334 0.66667,-2.58667 0.21333,-0.4 0.50667,-0.74667 0.85333,-1.01333 0.34667,-0.26667 0.77334,-0.42667 1.25334,-0.42667 0.48,0 0.93333,0.21333 1.38666,0.58667 z"
           style="font-style:normal;font-variant:normal;font-weight:normal;font-stretch:normal;font-family:'Glacial Indifference';-inkscape-font-specification:'Glacial Indifference';fill:#2d3e9f;fill-opacity:1"
           id="path6954" /><path
           d="m 527.87317,257.89327 v -5.62666 l 4.61334,5.62666 h 2.48 l -5.14667,-6.05333 4.82667,-5.70667 h -2.48 l -4.29334,5.30667 v -13.54667 h -1.86666 v 20 z"
           style="font-style:normal;font-variant:normal;font-weight:normal;font-stretch:normal;font-family:'Glacial Indifference';-inkscape-font-specification:'Glacial Indifference';fill:#2d3e9f;fill-opacity:1"
           id="path6956" /></g><g
         aria-label="open license"
         transform="matrix(0.75000002,0,0,-0.75000002,-12.539393,291.88455)"
         style="font-style:normal;font-variant:normal;font-weight:normal;font-stretch:normal;font-size:26.66666603px;line-height:2.25;font-family:Montserrat;-inkscape-font-specification:'Montserrat, Normal';font-variant-ligatures:normal;font-variant-caps:normal;font-variant-numeric:normal;font-feature-settings:normal;text-align:start;letter-spacing:0px;word-spacing:0px;writing-mode:lr-tb;text-anchor:start;fill:#2d3e9f;fill-opacity:1;stroke:none"
         id="flowRoot6893"><path
           d="m 493.31484,251.97327 c 0,1.17334 -0.42666,2.16 -1.25333,2.98667 -0.85333,0.85333 -1.84,1.25333 -3.01333,1.25333 -1.17334,0 -2.18667,-0.4 -3.01334,-1.25333 -0.85333,-0.82667 -1.25333,-1.81333 -1.25333,-2.98667 0,-1.17333 0.4,-2.16 1.25333,-3.01333 0.82667,-0.82667 1.84,-1.25333 3.01334,-1.25333 1.17333,0 2.16,0.42666 3.01333,1.25333 0.82667,0.85333 1.25333,1.84 1.25333,3.01333 z m 1.86667,0 c 0,-1.68 -0.61333,-3.12 -1.81333,-4.32 -1.2,-1.2 -2.64,-1.81333 -4.32,-1.81333 -1.70667,0 -3.14667,0.61333 -4.34667,1.81333 -1.2,1.2 -1.78667,2.64 -1.78667,4.32 0,1.70667 0.58667,3.14667 1.78667,4.32 1.2,1.2 2.66667,1.78667 4.34667,1.78667 1.65333,0 3.12,-0.58667 4.32,-1.78667 1.2,-1.17333 1.81333,-2.61333 1.81333,-4.32 z"
           style="font-style:normal;font-variant:normal;font-weight:normal;font-stretch:normal;font-family:'Glacial Indifference';-inkscape-font-specification:'Glacial Indifference';fill:#2d3e9f;fill-opacity:1"
           id="path6927" /><path
           d="m 500.26901,264.55994 v -8.66667 c 0.08,0.16 0.21333,0.29334 0.32,0.4 1.12,1.25334 2.48,1.86667 4.10667,1.86667 1.6,0 2.96,-0.61333 4.08,-1.86667 1.06666,-1.2 1.62666,-2.61333 1.62666,-4.26666 0,-1.62667 -0.56,-3.04 -1.62666,-4.26667 -1.12,-1.22667 -2.48,-1.86667 -4.08,-1.86667 -1.62667,0 -2.98667,0.64 -4.10667,1.86667 -0.10667,0.13333 -0.24,0.26667 -0.32,0.42667 v -2.02667 h -1.86667 v 18.4 z m 8.26667,-12.53333 c 0,1.14666 -0.4,2.16 -1.2,2.98666 -0.8,0.85334 -1.78667,1.28 -2.93334,1.28 -1.17333,0 -2.16,-0.42666 -2.96,-1.28 -0.8,-0.82666 -1.17333,-1.84 -1.17333,-2.98666 0,-1.12 0.37333,-2.13334 1.17333,-2.98667 0.8,-0.85333 1.78667,-1.28 2.96,-1.28 1.14667,0 2.13334,0.42667 2.93334,1.28 0.8,0.85333 1.2,1.86667 1.2,2.98667 z"
           style="font-style:normal;font-variant:normal;font-weight:normal;font-stretch:normal;font-family:'Glacial Indifference';-inkscape-font-specification:'Glacial Indifference';fill:#2d3e9f;fill-opacity:1"
           id="path6929" /><path
           d="m 525.07734,251.75994 c 0,-1.6 -0.64,-2.98667 -1.86666,-4.18667 -1.2,-1.14666 -2.64,-1.73333 -4.26667,-1.73333 -1.70667,0 -3.14667,0.61333 -4.34667,1.81333 -1.2,1.2 -1.78666,2.64 -1.78666,4.32 0,1.70667 0.58666,3.14667 1.78666,4.32 0.56,0.56 1.2,0.98667 1.94667,1.30667 0.74667,0.32 1.62667,0.48 2.66667,0.48 1.04,0 2.05333,-0.32 3.06666,-0.96 1.01334,-0.64 1.76,-1.54667 2.26667,-2.66667 h -2.13333 c -0.42667,0.56 -0.93334,0.98667 -1.54667,1.30667 -0.61333,0.32 -1.25333,0.45333 -1.92,0.45333 -1.01333,0 -1.92,-0.32 -2.72,-0.98666 -0.8,-0.64 -1.30667,-1.46667 -1.46667,-2.48 h 10.32 z m -1.97333,-0.61333 h -8.32 c 0.10667,-0.48 0.29333,-0.93334 0.56,-1.36 0.85333,-1.38667 2.05333,-2.08 3.6,-2.08 0.98667,0 1.86667,0.32 2.64,0.96 0.8,0.66666 1.28,1.49333 1.52,2.48 z"
           style="font-style:normal;font-variant:normal;font-weight:normal;font-stretch:normal;font-family:'Glacial Indifference';-inkscape-font-specification:'Glacial Indifference';fill:#2d3e9f;fill-opacity:1"
           id="path6931" /><path
           d="m 536.24859,257.89327 h 1.86667 v -7.33333 c 0,-1.36 -0.37333,-2.45333 -1.06667,-3.28 -0.37333,-0.42667 -0.8,-0.74667 -1.30666,-0.98667 -0.53334,-0.24 -1.2,-0.37333 -2.02667,-0.37333 -0.85333,0 -1.57333,0.24 -2.21333,0.66667 -0.61334,0.4 -1.12,0.93333 -1.49334,1.6 v -2.02667 h -1.86666 v 11.73333 h 1.86666 v -4.90666 c 0,-1.49334 0.26667,-2.66667 0.82667,-3.54667 0.32,-0.48 0.72,-0.88 1.22667,-1.2 0.48,-0.29333 1.14666,-0.45333 1.94666,-0.45333 0.8,0 1.36,0.29333 1.70667,0.82666 0.34667,0.53334 0.53333,1.2 0.53333,1.94667 z"
           style="font-style:normal;font-variant:normal;font-weight:normal;font-stretch:normal;font-family:'Glacial Indifference';-inkscape-font-specification:'Glacial Indifference';fill:#2d3e9f;fill-opacity:1"
           id="path6933" /><path
           d="m 550.78985,257.89327 v -20 h -1.86667 v 20 z"
           style="font-style:normal;font-variant:normal;font-weight:normal;font-stretch:normal;font-family:'Glacial Indifference';-inkscape-font-specification:'Glacial Indifference';fill:#2d3e9f;fill-opacity:1"
           id="path6935" /><path
           d="m 556.70193,242.10661 c -0.24,-0.21334 -0.53334,-0.34667 -0.85334,-0.34667 -0.32,0 -0.61333,0.13333 -0.82666,0.34667 -0.24,0.24 -0.34667,0.53333 -0.34667,0.85333 0,0.32 0.10667,0.61333 0.34667,0.82667 0.21333,0.24 0.50666,0.34666 0.82666,0.34666 0.32,0 0.61334,-0.10666 0.85334,-0.34666 0.21333,-0.21334 0.34666,-0.50667 0.34666,-0.82667 0,-0.32 -0.13333,-0.61333 -0.34666,-0.85333 z m 0.10666,15.78666 v -11.73333 h -1.86666 v 11.73333 z"
           style="font-style:normal;font-variant:normal;font-weight:normal;font-stretch:normal;font-family:'Glacial Indifference';-inkscape-font-specification:'Glacial Indifference';fill:#2d3e9f;fill-opacity:1"
           id="path6937" /><path
           d="m 571.86234,250.37327 c -0.37333,-1.30666 -1.09333,-2.37333 -2.13333,-3.2 -1.09333,-0.82666 -2.29333,-1.25333 -3.62667,-1.25333 -1.68,0 -3.12,0.61333 -4.26666,1.81333 -1.17334,1.2 -1.73334,2.64 -1.73334,4.29334 0,1.68 0.56,3.09333 1.73334,4.32 0.53333,0.56 1.14666,1.01333 1.89333,1.33333 0.72,0.32 1.46667,0.48 2.21333,0.48 0.74667,0 1.41334,-0.08 2,-0.29333 1.86667,-0.66667 3.14667,-1.92 3.81334,-3.81334 h -2.10667 c -0.37333,0.66667 -0.85333,1.2 -1.49333,1.57334 -0.64,0.4 -1.30667,0.58666 -2.05334,0.58666 -1.14666,0 -2.10666,-0.4 -2.90666,-1.22666 -0.8,-0.82667 -1.17334,-1.81334 -1.17334,-2.96 0,-1.09334 0.37334,-2.08 1.17334,-2.90667 0.37333,-0.37333 0.8,-0.69333 1.30666,-0.90667 0.48,-0.21333 1.09334,-0.34666 1.78667,-0.34666 0.69333,0 1.36,0.24 2.05333,0.69333 0.66667,0.48 1.17334,1.06667 1.49334,1.81333 z"
           style="font-style:normal;font-variant:normal;font-weight:normal;font-stretch:normal;font-family:'Glacial Indifference';-inkscape-font-specification:'Glacial Indifference';fill:#2d3e9f;fill-opacity:1"
           id="path6939" /><path
           d="m 586.27526,251.75994 c 0,-1.6 -0.64,-2.98667 -1.86667,-4.18667 -1.2,-1.14666 -2.64,-1.73333 -4.26666,-1.73333 -1.70667,0 -3.14667,0.61333 -4.34667,1.81333 -1.2,1.2 -1.78667,2.64 -1.78667,4.32 0,1.70667 0.58667,3.14667 1.78667,4.32 0.56,0.56 1.2,0.98667 1.94667,1.30667 0.74666,0.32 1.62666,0.48 2.66666,0.48 1.04,0 2.05334,-0.32 3.06667,-0.96 1.01333,-0.64 1.76,-1.54667 2.26667,-2.66667 h -2.13334 c -0.42666,0.56 -0.93333,0.98667 -1.54666,1.30667 -0.61334,0.32 -1.25334,0.45333 -1.92,0.45333 -1.01334,0 -1.92,-0.32 -2.72,-0.98666 -0.8,-0.64 -1.30667,-1.46667 -1.46667,-2.48 h 10.32 z m -1.97333,-0.61333 h -8.32 c 0.10666,-0.48 0.29333,-0.93334 0.56,-1.36 0.85333,-1.38667 2.05333,-2.08 3.6,-2.08 0.98666,0 1.86666,0.32 2.64,0.96 0.8,0.66666 1.28,1.49333 1.52,2.48 z"
           style="font-style:normal;font-variant:normal;font-weight:normal;font-stretch:normal;font-family:'Glacial Indifference';-inkscape-font-specification:'Glacial Indifference';fill:#2d3e9f;fill-opacity:1"
           id="path6941" /><path
           d="m 597.44651,257.89327 h 1.86667 v -7.33333 c 0,-1.36 -0.37334,-2.45333 -1.06667,-3.28 -0.37333,-0.42667 -0.8,-0.74667 -1.30667,-0.98667 -0.53333,-0.24 -1.2,-0.37333 -2.02666,-0.37333 -0.85334,0 -1.57334,0.24 -2.21334,0.66667 -0.61333,0.4 -1.12,0.93333 -1.49333,1.6 v -2.02667 h -1.86667 v 11.73333 h 1.86667 v -4.90666 c 0,-1.49334 0.26667,-2.66667 0.82667,-3.54667 0.32,-0.48 0.72,-0.88 1.22666,-1.2 0.48,-0.29333 1.14667,-0.45333 1.94667,-0.45333 0.8,0 1.36,0.29333 1.70667,0.82666 0.34666,0.53334 0.53333,1.2 0.53333,1.94667 z"
           style="font-style:normal;font-variant:normal;font-weight:normal;font-stretch:normal;font-family:'Glacial Indifference';-inkscape-font-specification:'Glacial Indifference';fill:#2d3e9f;fill-opacity:1"
           id="path6943" /><path
           d="m 604.61359,256.23994 c -0.45333,-0.32 -0.8,-0.85333 -0.98666,-1.62667 h -1.97334 c 0.4,2.42667 1.94667,3.62667 4.66667,3.62667 0.64,0 1.22667,-0.0533 1.78667,-0.21333 0.56,-0.16 1.04,-0.37334 1.49333,-0.66667 0.90667,-0.61333 1.36,-1.54667 1.36,-2.8 0,-1.28 -0.58667,-2.18667 -1.81333,-2.77333 -0.50667,-0.24 -1.06667,-0.42667 -1.68,-0.56 -0.58667,-0.13334 -1.14667,-0.29334 -1.65334,-0.45334 -0.53333,-0.16 -0.96,-0.37333 -1.30666,-0.61333 -0.34667,-0.24 -0.53334,-0.61333 -0.53334,-1.14667 0,-0.53333 0.21334,-0.93333 0.64,-1.17333 0.42667,-0.26667 0.93334,-0.4 1.49334,-0.4 0.58666,0 1.09333,0.13333 1.49333,0.34667 0.4,0.21333 0.72,0.64 0.90667,1.28 h 2 c -0.24,-1.17334 -0.74667,-2 -1.49334,-2.45334 -0.77333,-0.48 -1.70666,-0.72 -2.85333,-0.72 -1.12,0 -2.10667,0.32 -2.93333,0.90667 -0.8,0.61333 -1.22667,1.49333 -1.22667,2.66667 0,0.56 0.16,1.06666 0.45333,1.49333 0.32,0.45333 0.77334,0.8 1.36,1.06667 0.53334,0.24 1.09334,0.42666 1.68,0.58666 0.58667,0.13334 1.14667,0.29334 1.68,0.45334 1.2,0.4 1.81334,0.98666 1.81334,1.73333 0,1.28 -0.85334,1.89333 -2.56,1.89333 -0.72,0 -1.33334,-0.13333 -1.81334,-0.45333 z"
           style="font-style:normal;font-variant:normal;font-weight:normal;font-stretch:normal;font-family:'Glacial Indifference';-inkscape-font-specification:'Glacial Indifference';fill:#2d3e9f;fill-opacity:1"
           id="path6945" /><path
           d="m 625.12943,251.75994 c 0,-1.6 -0.64,-2.98667 -1.86666,-4.18667 -1.2,-1.14666 -2.64,-1.73333 -4.26667,-1.73333 -1.70667,0 -3.14667,0.61333 -4.34667,1.81333 -1.2,1.2 -1.78666,2.64 -1.78666,4.32 0,1.70667 0.58666,3.14667 1.78666,4.32 0.56,0.56 1.2,0.98667 1.94667,1.30667 0.74667,0.32 1.62667,0.48 2.66667,0.48 1.04,0 2.05333,-0.32 3.06666,-0.96 1.01334,-0.64 1.76,-1.54667 2.26667,-2.66667 h -2.13333 c -0.42667,0.56 -0.93334,0.98667 -1.54667,1.30667 -0.61333,0.32 -1.25333,0.45333 -1.92,0.45333 -1.01333,0 -1.92,-0.32 -2.72,-0.98666 -0.8,-0.64 -1.30667,-1.46667 -1.46667,-2.48 h 10.32 z m -1.97333,-0.61333 h -8.32 c 0.10667,-0.48 0.29333,-0.93334 0.56,-1.36 0.85333,-1.38667 2.05333,-2.08 3.6,-2.08 0.98667,0 1.86667,0.32 2.64,0.96 0.8,0.66666 1.28,1.49333 1.52,2.48 z"
           style="font-style:normal;font-variant:normal;font-weight:normal;font-stretch:normal;font-family:'Glacial Indifference';-inkscape-font-specification:'Glacial Indifference';fill:#2d3e9f;fill-opacity:1"
           id="path6947" /></g><g
         aria-label="70"
         transform="matrix(0.75000002,0,0,-0.75000002,174.37751,439.3131)"
         style="font-style:normal;font-variant:normal;font-weight:normal;font-stretch:normal;font-size:26.66666603px;line-height:2.25;font-family:Montserrat;-inkscape-font-specification:'Montserrat, Normal';font-variant-ligatures:normal;font-variant-caps:normal;font-variant-numeric:normal;font-feature-settings:normal;text-align:start;letter-spacing:0px;word-spacing:0px;writing-mode:lr-tb;text-anchor:start;fill:#2d3e9f;fill-opacity:1;stroke:none"
         id="flowRoot6901"><path
           d="m 485.92818,257.89327 7.97333,-18.05333 h -11.38667 v 1.86667 h 8.48 l -7.14666,16.18666 z"
           style="font-style:normal;font-variant:normal;font-weight:normal;font-stretch:normal;font-family:'Glacial Indifference';-inkscape-font-specification:'Glacial Indifference';fill:#2d3e9f;fill-opacity:1"
           id="path6922" /><path
           d="m 503.74651,241.86661 c 0.85333,0.53333 1.46667,1.36 1.89333,2.48 0.50667,1.44 0.77334,2.93333 0.77334,4.53333 0,0.37333 -0.0267,0.82667 -0.08,1.33333 -0.21334,1.97334 -0.72,3.52 -1.54667,4.61334 -0.69333,0.96 -1.52,1.41333 -2.50667,1.41333 -1.12,0 -2.02666,-0.45333 -2.72,-1.38667 -0.32,-0.42666 -0.56,-0.88 -0.77333,-1.41333 -0.21333,-0.53333 -0.34667,-1.06667 -0.45333,-1.62667 -0.10667,-0.53333 -0.18667,-1.06666 -0.24,-1.6 -0.0533,-0.50666 -0.0533,-1.09333 -0.0533,-1.76 0,-0.66666 0.08,-1.52 0.29334,-2.50666 0.10666,-0.53334 0.24,-1.09334 0.45333,-1.62667 0.18667,-0.53333 0.42667,-1.01333 0.74667,-1.44 0.32,-0.42667 0.69333,-0.74667 1.12,-1.01333 0.42666,-0.26667 0.96,-0.4 1.54666,-0.4 0.58667,0 1.12,0.13333 1.54667,0.4 z m -1.44,16.26666 c 2.13333,0 3.73333,-1.04 4.82667,-3.14666 0.85333,-1.68 1.30666,-3.73334 1.30666,-6.18667 0,-2.42667 -0.45333,-4.48 -1.30666,-6.16 -1.09334,-2.10667 -2.69334,-3.17333 -4.82667,-3.17333 -2.16,0 -3.76,1.06666 -4.85333,3.17333 -0.85334,1.68 -1.28,3.73333 -1.28,6.16 0,2.45333 0.42666,4.50667 1.28,6.18667 1.09333,2.10666 2.69333,3.14666 4.85333,3.14666 z"
           style="font-style:normal;font-variant:normal;font-weight:normal;font-stretch:normal;font-family:'Glacial Indifference';-inkscape-font-specification:'Glacial Indifference';fill:#2d3e9f;fill-opacity:1"
           id="path6924" /></g></g></g></svg>