<?xml version="1.0" encoding="utf-8"?>
<!-- Generator: Adobe Illustrator 16.0.0, SVG Export Plug-In . SVG Version: 6.00 Build 0)  -->
<!DOCTYPE svg PUBLIC "-//W3C//DTD SVG 1.0//EN" "http://www.w3.org/TR/2001/REC-SVG-20010904/DTD/svg10.dtd">
<svg version="1.0" id="Layer_1" xmlns="http://www.w3.org/2000/svg" xmlns:xlink="http://www.w3.org/1999/xlink" x="0px" y="0px"
	 width="413.858px" height="569.764px" viewBox="0 0 413.858 569.764" enable-background="new 0 0 413.858 569.764"
	 xml:space="preserve">
<g>
	<defs>
		<rect id="SVGID_1_" width="413.858" height="569.764"/>
	</defs>
	<clipPath id="SVGID_2_">
		<use xlink:href="#SVGID_1_"  overflow="visible"/>
	</clipPath>
	<path clip-path="url(#SVGID_2_)" fill="#FFFFFF" d="M104.125,380.128c-2.788-11.302,6.828-28.434,23.488-47.741
		c89.948-54.285,122.338-49.133,142.573-44.089l0.914,18.576C199.05,311.886,146.579,343.24,104.125,380.128"/>
	<path clip-path="url(#SVGID_2_)" fill="#CDCFD0" d="M60.185,119.452c-6.571,0.896-11.707,6.903-15.772,12.136
		c-4.729,6.092-8.33,13.584-9.102,21.24c-0.605,5.967,3.302,11.626,3.635,17.6c0.132,2.23-0.175,4.488-0.606,6.68
		c-1.062,5.4-4.306,10.303-4.854,15.779c-1.842,18.401,0.921,37.293,5.46,55.222c2.696,10.628,8.844,20.087,12.743,30.341
		c2.895,7.591,2.365,17.108,7.891,23.057c7.035,7.566,18.236,11.226,28.523,12.138c7.235,0.647,14.404-7.309,21.24-4.849
		c9.367,3.364,12.172,15.742,18.204,23.667c0,0,21.438-12.952,32.772-18.212c14.52-6.737,44.913-16.992,44.913-16.992
		s-3.743-0.497-5.468-1.207c-5.542-2.312-12.738-3.231-15.169-9.711c-7.865-20.958,10.623-31.254,10.623-31.254l7.583-3.336
		l15.173-8.495l6.064-11.533c-13.008-7.666-25.711-14.81-57.655-54.011l-31.553-27.91
		C101.918,125.624,86.801,115.841,60.185,119.452"/>
	<path clip-path="url(#SVGID_2_)" d="M217.975,243.256l6.064-11.533c-13.008-7.666-25.71-14.809-57.654-54.01l-31.554-27.911
		c-32.913-24.177-48.029-33.961-74.646-30.35c-6.571,0.896-11.706,6.903-15.772,12.137c-2.596-10.942-0.016-18.774,5.46-24.881
		c2.588-7.16,0.025-14.959,14.56-20.625c0.158-10.571,8.737-12.722,13.964-18.214c12.097-9.846,23.679-20.153,49.15-18.201
		c9.102-3.51,18.311-3.328,27.313-1.817c16.452,2.755,31.901,10.686,46.124,19.415c16.261,9.987,31.212,22.575,43.69,37.019
		c7.004,8.115,16.992,27.304,16.992,27.304c3.834,52.597,9.898,105.187,8.496,157.78c-18.917-4.937-37.824,1.52-56.742,4.862
		l3.335-15.175l-16.991-25.487L217.975,243.256z"/>
	<path clip-path="url(#SVGID_2_)" fill="#FFFFFF" d="M202.493,252.05c-15.882,5.534-22.419,19.016-19.724,30.946
		c2.108,9.31,15.078,17.707,24.28,15.176c7.459-2.05,10.861-12.902,10.619-20.634C217.361,267.656,208.841,257.393,202.493,252.05"
		/>
	<path clip-path="url(#SVGID_2_)" d="M270.984,306.726c0.064,1.609,0.299,7.558,0.381,9.292
		c1.891,41.028,5.549,115.997,7.408,125.895c2.572,13.731,22.691,7.518,33.471,4.298c5.051-1.51,9.707-5.558,12.012-10.303
		c3.004-6.183,0.855-20.594,0.855-20.594l7.725-6.007c0,0,10.113,4.473,15.449,4.29c5.451-0.192,13.523-3.336,19.34-5.941
		c17.953-41.053,31.045,143.353,38.969,159.357l-379.172,0.299c14.162-37.129,30.018-75.419,57.041-121.374
		c-5.933-29.304,11.283-43.185,17.597-64.326C141.934,342.194,203.665,311.712,270.984,306.726"/>
	<path clip-path="url(#SVGID_2_)" fill="#434A9F" d="M127.547,49.667c9.102-3.509,18.311-3.327,27.313-1.814
		c16.452,2.752,31.901,10.684,46.124,19.412c16.26,9.987,31.211,22.575,43.69,37.02c7.004,8.114,16.992,27.303,16.992,27.303
		c3.834,52.596,9.898,105.187,8.496,157.78c0,0,6.031,138.814,8.611,152.544c2.572,13.731,22.691,7.518,33.471,4.298
		c5.051-1.51,9.707-5.558,12.012-10.303c3.004-6.183,0.855-20.595,0.855-20.595l7.725-6.006c0,0,10.113,4.473,15.449,4.289
		c9.408-0.332,26.607-9.441,26.607-9.441s-3.643-35.336-12.877-49.772c-2.189-3.426-9.434-7.724-9.434-7.724
		c-0.258,1.526-27.777-154.712-60.076-236.01c-2.051-5.162-9.443-13.73-9.443-13.73s2.125-10.456,0.855-15.449
		c-4.289-16.933-15.564-31.843-27.461-44.629c-6-6.454-13.426-11.814-21.457-15.45c-13.905-6.295-29.61-13.082-44.628-10.294
		c-14.588,2.703-17.724-1.537-36.898,24.89C134.69,39.58,129.496,44.465,127.547,49.667"/>
</g>
</svg>
